<svg width="1513" height="447" viewBox="0 0 1513 447" fill="none" xmlns="http://www.w3.org/2000/svg">
<rect x="25" y="12" width="1440" height="435" fill="#905A12"/>
<path d="M1500.67 443.646H1501.41C1504.97 438.063 1508.54 432.553 1512.1 427.116V425.992C1508.29 431.797 1504.48 437.682 1500.67 443.646Z" fill="white" fill-opacity="0.1"/>
<path d="M1512.1 392.86V391.8C1511.35 392.851 1510.6 393.903 1509.85 394.954C1497.55 412.171 1487.1 426.8 1476.67 443.646H1477.4C1487.75 426.934 1498.13 412.388 1510.35 395.285L1512.1 392.86Z" fill="white" fill-opacity="0.1"/>
<path d="M1512.1 365.21V364.157C1506.11 372.438 1500.08 380.692 1494.11 388.858C1480.87 406.966 1467.27 425.562 1454.74 443.646H1455.49C1467.95 425.673 1481.47 407.191 1494.63 389.193C1500.42 381.263 1506.29 373.243 1512.1 365.21Z" fill="white" fill-opacity="0.1"/>
<path d="M382.083 419.174C400.405 413.653 417.71 408.448 428.358 401.465C452.228 384.832 473.217 361.712 489.039 334.61C503.152 310.445 512.397 284.348 515.081 261.134C517.181 243.074 512.821 226.039 502.17 210.506C489.728 192.367 468.567 176.14 439.211 162.275C413.039 149.905 393.008 142.476 376.119 138.895C368.092 137.192 360.725 136.34 353.815 136.34C345.838 136.286 337.915 137.559 330.411 140.102C317.483 144.511 305.457 152.894 292.563 166.475C281.44 178.19 269.591 193.735 252.941 218.452C241.306 235.727 229.68 244.592 214.958 255.815C193.213 272.388 166.151 293.012 124.748 351.495C110.791 371.212 121.938 384.572 132.729 397.49C139.596 405.716 146.082 413.484 146.518 422.763C146.8 428.678 143.616 436.032 137.874 443.662H138.714C144.528 435.85 147.447 428.65 147.17 422.763C146.724 413.299 139.874 405.085 133.25 397.131C122.602 384.378 111.597 371.192 125.303 351.83C166.625 293.406 193.633 272.822 215.353 256.272C230.117 245.014 241.781 236.126 253.47 218.767C282.158 176.179 303.983 149.759 330.626 140.658C356.306 131.896 386.67 138.103 438.922 162.804C493.584 188.636 518.996 221.701 514.451 261.071C509.495 304.199 480.807 364.189 428.009 400.984C417.45 407.912 400.187 413.109 381.911 418.614C358.977 425.507 335.481 432.605 323.573 443.646H324.472C336.397 432.936 359.545 425.968 382.083 419.174Z" fill="white" fill-opacity="0.1"/>
<path d="M1512.1 338.64V337.634C1499.19 355.897 1485.56 374.554 1471.21 393.606C1459.25 409.481 1447.9 426.221 1436.7 443.646H1437.44C1448.57 426.339 1459.84 409.734 1471.73 393.961C1485.73 375.364 1499.23 356.87 1512.1 338.64Z" fill="white" fill-opacity="0.1"/>
<path d="M453.539 400.483C440.24 414.182 431.521 428.622 427.421 443.646H428.072C432.163 428.768 440.824 414.466 454.005 400.881C482.495 371.531 496.264 350.801 512.939 312.157C525.351 283.371 530.219 257.199 527.409 234.336C525.863 221.792 524.645 211.886 511.822 199.287C498.309 186.01 472.146 170.198 426.976 148.024C395.264 132.448 370.906 125.193 350.316 125.193C330.626 125.193 313.476 131.928 296.355 146.38C289.442 152.216 283.565 161.128 277.341 170.568C267.798 185.044 256.978 201.452 239.118 212.565C201.458 235.988 196.057 242.975 183.006 259.857C171.842 274.293 154.974 296.135 106.796 342.023C88.6932 358.337 87.013 378.428 85.3749 397.857C83.9216 415.18 82.5271 431.84 68.7544 443.666H69.7247C83.1656 431.761 84.5643 415.16 86.0092 397.924C87.6263 378.602 89.298 358.629 107.233 342.465C155.453 296.518 172.338 274.676 183.51 260.223C196.531 243.405 201.895 236.445 239.462 213.077C257.44 201.894 268.297 185.427 277.878 170.884C284.078 161.483 289.933 152.603 296.78 146.83C330.672 118.221 365.879 118.686 426.69 148.553C471.785 170.702 497.902 186.48 511.364 199.705C524.04 212.162 525.225 221.981 526.779 234.426C529.576 257.179 524.725 283.26 512.351 311.944C495.714 350.498 481.97 371.192 453.539 400.483Z" fill="white" fill-opacity="0.1"/>
<path d="M1512.1 309.771C1483.37 348.857 1450.39 397.769 1419.73 443.646H1420.47C1450.89 398.144 1483.56 349.681 1512.1 310.812V309.771Z" fill="white" fill-opacity="0.1"/>
<path d="M95.922 329.996C120.498 307.345 145.905 283.926 168.545 246.295C177.097 233.239 192.331 222.044 208.448 210.186C218.667 202.674 229.235 194.906 239.379 185.875C248.691 177.09 255.272 168.742 261.64 160.666C276.177 142.235 288.728 126.316 327.379 116.568C346.406 111.769 363.472 109.147 395.037 122.329C405.786 126.816 416.429 132.633 431.159 140.685C448.897 150.378 473.188 163.651 509.591 180.812C536.704 193.596 540.497 216.933 540.556 240.246C540.636 271.398 527.779 308.382 496.167 367.942C489.573 380.367 481.513 390.762 473.721 400.814C462.8 414.903 452.72 427.932 449.38 443.646H450.048C453.371 428.074 463.388 415.144 474.229 401.164C482.038 391.089 490.111 380.659 496.73 368.206C513.006 337.543 523.86 313.848 530.891 293.642C537.956 273.334 541.228 256.37 541.186 240.246C541.161 230.092 540.539 218.238 536.146 207.284C531.278 195.154 522.705 186.325 509.877 180.284C473.494 163.13 449.212 149.861 431.483 140.172C416.74 132.124 406.084 126.288 395.302 121.785C377.992 114.557 365.018 112.053 353.694 112.053C344.239 112.053 335.935 113.8 327.232 115.996C288.362 125.815 275.749 141.793 261.144 160.315C254.789 168.371 248.22 176.703 238.946 185.454C228.832 194.456 218.276 202.217 208.07 209.721C191.894 221.61 176.618 232.84 168.003 245.999C145.406 283.567 120.023 306.959 95.4809 329.597C92.7549 332.113 90.0206 334.625 87.2946 337.165C79.7341 344.176 73.9629 356.191 67.8304 368.908C58.0228 389.26 46.9088 412.324 25.0463 424.876C16.3013 429.895 8.12336 432.139 0 432.423V432.979C8.7534 432.675 17.0112 430.183 25.3739 425.38C47.4002 412.734 58.5562 389.583 68.4059 369.153C74.5131 356.483 80.2801 344.519 87.7272 337.606C90.463 335.038 93.1946 332.501 95.922 329.996Z" fill="white" fill-opacity="0.1"/>
<path d="M1484.38 327.713C1494.72 312.48 1503.87 299.628 1512.1 288.181V287.136C1503.74 298.773 1494.43 311.849 1483.86 327.413C1472.83 343.675 1462.46 358.999 1452.45 373.818C1435.39 399.055 1419.77 422.155 1405 443.646H1405.76C1420.46 422.242 1436 399.236 1452.98 374.133C1463 359.314 1473.36 343.991 1484.38 327.713Z" fill="white" fill-opacity="0.1"/>
<path d="M521.109 337.595C504.887 373.218 488.279 409.698 486.007 443.646H486.637C488.913 409.804 505.492 373.388 521.684 337.827C536.536 305.212 551.897 271.481 555.286 241.035C556.933 226.235 553.493 210.671 545.626 197.177C537.759 183.683 526.048 173.297 512.616 167.74C470.373 150.264 447.116 140.658 410.788 116.887C394.021 105.917 375.052 100.42 354.084 100.42C341.937 100.42 329.136 102.271 315.681 105.972C287.539 113.717 274.875 127.708 261.443 142.523C251.244 153.769 240.702 165.394 222.649 175.442C175.005 201.949 164.265 218.447 150.698 239.323C134.182 264.718 113.635 296.324 22.8286 360.777L22.2867 361.172C13.7811 367.197 6.56925 372.311 0 376.448V377.162C6.67846 372.974 14.0038 367.781 22.6816 361.625L23.2234 361.231C63.5714 332.602 93.6664 307.87 115.214 285.626C133.838 266.398 143.079 252.186 151.236 239.647C165.298 218.014 175.463 202.382 222.968 175.95C241.113 165.859 251.69 154.191 261.922 142.905C275.291 128.181 287.917 114.234 315.862 106.54C352.287 96.5084 384.099 100.152 410.427 117.372C446.81 141.178 470.071 150.804 512.343 168.285C539.808 179.645 558 210.892 554.656 240.972C551.279 271.323 535.957 305.019 521.109 337.595Z" fill="white" fill-opacity="0.1"/>
<path d="M1501.41 280.511C1504.96 275.517 1508.52 270.468 1512.1 265.365V264.289C1508.36 269.644 1504.62 274.942 1500.89 280.184C1488.56 297.582 1476.92 314.014 1466.81 330.773C1445.23 364.528 1417.97 403.614 1388.19 443.646H1388.96C1418.65 403.72 1445.83 364.744 1467.35 331.069C1477.46 314.325 1489.09 297.901 1501.41 280.511Z" fill="white" fill-opacity="0.1"/>
<path d="M1479.45 293.296C1489.92 278.58 1501.15 262.783 1512.1 245.582V242.498C1500.71 260.563 1488.97 277.081 1478.06 292.425C1470.08 303.651 1462.51 314.251 1456.05 324.196C1423.15 374.67 1397.34 408.295 1369.38 443.654H1371.48C1399.2 408.606 1424.85 375.112 1457.5 325.02C1463.95 315.095 1471.48 304.507 1479.45 293.296Z" fill="white" fill-opacity="0.1"/>
<path d="M539.573 325.501C543.807 314.369 548.112 304.017 552.279 294.009C563.279 267.589 572.781 244.738 573.461 224.189C573.826 213.306 571.714 203.597 567.009 194.516C561.914 184.657 553.787 175.536 542.165 166.573C531.441 158.292 521.302 155.378 509.566 151.983C498.608 148.828 486.187 145.244 469.731 136.636C456.613 129.778 445.327 121.919 435.364 114.987C424.636 107.518 415.375 101.071 406.004 97.1435C386.141 88.8152 369.461 84.9192 353.152 84.9192C350.212 84.9192 347.271 85.0493 344.331 85.3135C326.119 86.8711 308.704 93.0779 286.51 102.585C269.999 109.656 257.343 121.359 243.948 133.737C233.351 143.533 222.397 153.663 208.616 162.457L204.273 165.217C169.759 187.209 154.008 197.244 135.543 228.704C106.99 277.353 83.9511 303.517 37.2061 311.545C20.5814 314.416 9.60186 324.558 0 333.864V336.136C10.1815 326.222 20.7284 315.997 37.5086 313.123C84.913 304.964 108.208 278.559 136.997 229.493C155.268 198.36 170.914 188.392 205.197 166.546L209.544 163.785C223.455 154.889 234.46 144.712 245.108 134.885C258.397 122.598 270.952 110.992 287.19 104.036C332.911 84.4342 359.427 79.3512 405.328 98.6064C414.531 102.463 423.725 108.859 434.373 116.276C444.374 123.24 455.71 131.127 468.92 138.04C485.532 146.715 498.041 150.335 509.079 153.517C521.125 156.991 530.639 159.736 541.106 167.808C563.061 184.74 572.524 202.114 571.793 224.154C571.117 244.434 561.667 267.136 550.721 293.453C546.55 303.473 542.24 313.832 538.002 325C526.96 354.046 511.91 393.649 512.343 443.694H514.023C513.594 393.893 528.577 354.433 539.573 325.501Z" fill="white" fill-opacity="0.1"/>
<path d="M1472.3 283.075C1485.97 264.084 1499.11 245.822 1512.1 221.508V220.183C1498.94 245.002 1485.64 263.496 1471.78 282.744C1466.98 289.416 1462.01 296.312 1456.95 303.608C1423.48 353.143 1388.83 397.403 1352.33 443.646H1353.11C1389.53 397.51 1424.07 353.345 1457.48 303.927C1462.54 296.64 1467.5 289.743 1472.3 283.075Z" fill="white" fill-opacity="0.1"/>
<path d="M567.039 285.52C580.9 254.257 592.833 227.257 589.166 207.517C584.936 184.717 576.191 169.121 561.654 158.443C548.738 148.951 533.008 144.614 516.358 140.02C506.697 137.354 496.697 134.598 487.011 130.713C466.774 122.602 456.958 115.457 447.461 108.552C441.484 104.214 435.834 100.09 427.854 95.89C406.462 84.6279 381.386 72.8137 351.892 72.8137C349.598 72.8137 347.277 72.8873 344.928 73.0345C310.485 75.2152 280.743 86.2249 254.033 106.687C244.612 113.903 237.703 121.107 231.02 128.071C221.359 138.127 212.27 147.618 197.258 154.977C173.102 166.806 154.445 179.425 140.222 193.491C127.508 206.078 119.347 218.728 111.455 231C109.165 234.549 106.801 238.228 104.352 241.86C80.9689 276.521 37.0801 293.639 0 302.082V302.689C19.901 298.158 37.832 292.014 53.4445 284.361C76.2226 273.193 93.532 258.997 104.881 242.167C107.334 238.531 109.703 234.856 111.996 231.299C128.378 205.833 143.885 181.783 197.548 155.493C212.669 148.088 221.805 138.537 231.486 128.462C238.152 121.51 245.049 114.325 254.432 107.136C281.033 86.7533 310.649 75.7909 344.97 73.6182C377.345 71.5676 404.567 84.3006 427.547 96.3987C435.486 100.575 441.114 104.68 447.074 109.017C456.601 115.95 466.45 123.115 486.763 131.258C496.482 135.154 506.504 137.914 516.165 140.587C548.642 149.547 579.32 158.009 588.532 207.624C592.165 227.194 580.244 254.119 566.438 285.307C556.248 308.324 544.697 334.413 537.813 361.504C530.097 391.867 529.455 418.76 535.868 443.662H536.52C521.974 387.316 546.936 330.923 567.039 285.52Z" fill="white" fill-opacity="0.1"/>
<path d="M551.872 437.392C533.604 382.245 556.559 333.565 585.625 271.931C587.944 267.006 590.346 261.915 592.766 256.781C601.191 238.728 605.303 220.502 604.976 202.623C604.69 186.716 600.956 174.563 597.877 167.169C592.32 153.825 581.534 143.454 565.821 136.336C555.496 131.66 543.169 128.414 528.14 126.415C482.357 119.853 474.855 112.775 464.455 102.972C457.735 96.6627 450.12 89.4662 430.483 80.7357C398.8 66.6462 372.519 59.8795 348.464 59.8795C340.043 59.8671 331.645 60.7214 323.422 62.4269C309.351 65.345 295.461 70.7079 279.71 79.2806C264.114 87.7785 248.262 98.6383 233.456 109.104C228.105 112.886 222.409 118.091 216.899 123.122C209.758 129.652 203 135.82 197.014 139.081C180.44 148.099 168.633 156.088 157.213 163.813C147.775 170.198 138.857 176.231 127.659 182.627C110.602 192.367 100.408 206.843 90.5498 220.842C80.2927 235.432 70.5984 249.182 54.1837 255.7C42.4943 261.154 29.6708 264.407 13.8609 265.929C9.22489 266.014 4.59743 266.34 0 266.907L0 267.503C4.60701 266.933 9.24436 266.605 13.8903 266.521C29.822 264.987 42.7169 261.718 54.4567 256.237C71.0269 249.659 80.7715 235.818 91.0874 221.169C100.903 207.225 111.056 192.805 127.995 183.132C139.214 176.724 148.157 170.687 157.591 164.291C168.999 156.573 180.793 148.596 197.338 139.594C203.395 136.297 210.17 130.106 217.348 123.548C222.842 118.528 228.525 113.335 233.843 109.577C303.651 60.2305 343.323 42.6394 430.193 81.2562C449.729 89.9315 457.306 97.0807 463.989 103.374C474.49 113.256 482.05 120.394 528.026 126.987C564.85 131.88 588.145 145.465 597.268 167.366C602.447 179.8 612.314 213.369 592.165 256.529C589.771 261.655 587.368 266.754 585.024 271.679C570.945 301.537 557.643 329.744 550.498 356.669C542.593 386.445 542.833 412.147 551.25 437.554C551.934 439.62 552.74 441.649 553.665 443.631H554.354C553.401 441.597 552.572 439.514 551.872 437.392V437.392Z" fill="white" fill-opacity="0.1"/>
<path d="M1512.1 191.913V190.51C1510.18 194.476 1507.95 198.633 1505.35 203.033C1477.76 249.683 1403.85 354.279 1335.58 443.646H1336.35C1404.56 354.338 1478.32 249.927 1505.9 203.321C1508.26 199.331 1510.3 195.545 1512.1 191.913Z" fill="white" fill-opacity="0.1"/>
<path d="M1512.1 126.025V119.593C1509.52 146.92 1505.65 177.489 1485.88 209.524C1430.34 299.526 1373.38 374.639 1319.43 443.646H1320.21C1374.09 374.702 1430.96 299.716 1486.43 209.808C1504.74 180.147 1509.45 151.759 1512.1 126.025Z" fill="white" fill-opacity="0.1"/>
<path d="M564.418 422.746C555.009 357.966 576.599 316.159 595.685 279.277C603.245 264.624 610.411 250.786 615.191 236.468C620.555 220.399 622.168 205.971 620.269 191.069C611.079 118.938 569.74 114.896 529.761 110.984C519.576 109.987 509.037 108.957 499.397 106.741C485.633 104.967 473.498 95.006 461.759 85.3764C451.543 76.989 441.891 69.0669 431.454 66.4209C398.947 56.1407 370.906 51.042 346.095 51.042C328.101 51.042 311.8 53.7313 296.742 59.0785C251.694 75.0804 224.14 97.2379 199.778 118.559C184.703 131.754 153.092 151.778 125.202 169.428C111.446 178.143 98.4547 186.384 89.8231 192.323C77.4995 200.825 69.2417 208.073 62.6389 213.901C46.7282 227.947 38.2898 235.341 0 238.988V239.584C38.5502 235.94 47.0432 228.475 63.0715 214.37C69.6786 208.558 77.9027 201.318 90.197 192.84C98.816 186.893 111.803 178.667 125.555 169.968C153.466 152.29 185.098 132.254 200.207 119.029C225.53 96.8633 251.988 75.6522 296.965 59.666C332.663 46.9685 375.312 49.3148 431.269 67.0006C441.585 69.6189 451.182 77.4937 461.347 85.8378C473.154 95.5265 485.36 105.554 499.28 107.337C508.94 109.557 519.487 110.59 529.698 111.588C569.429 115.476 610.512 119.494 619.643 191.156C623.776 223.597 610.495 249.288 595.118 279.036C576.011 315.993 554.375 357.903 563.796 422.861C565.372 430.02 567.794 436.991 571.016 443.646H571.647C568.415 436.954 565.99 429.944 564.418 422.746V422.746Z" fill="white" fill-opacity="0.1"/>
<path d="M2.36896 15.6149C1.56251 14.3649 0.764452 13.1228 0 11.853V13.036C0.596441 13.9982 1.21388 14.9525 1.82713 15.9068C8.23256 25.8518 14.848 36.1399 5.18736 56.4046C2.98743 60.9419 1.25054 65.6647 0 70.5098L0 73.2701C1.2367 67.5406 3.16738 61.9627 5.75439 56.6451C15.5621 36.1083 8.85421 25.6901 2.36896 15.6149Z" fill="white" fill-opacity="0.1"/>
<path d="M632.509 246.678C649.789 219.914 651.599 205.273 653.052 193.51C654.22 184.07 655.06 177.248 663.553 167.993C672.512 161.372 685.004 161.565 699.461 161.79C722.202 162.145 747.975 162.547 768.892 136.434C782.585 119.344 787.193 104.43 782.976 90.8379C777.095 71.91 754.061 55.9159 710.458 40.5291C683.681 31.0651 670.647 29.5627 660.655 34.7206C650.255 40.0874 643.518 52.915 632.353 74.1537L628.938 80.6405C611.427 105.878 602.439 103.559 578.413 97.3246C561.658 92.987 538.771 87.0365 501.325 87.0365H499.964C478.388 87.0365 470.273 78.8739 462.431 70.9793C456.601 65.1117 451.09 59.5713 440.493 57.8205C429.425 55.8922 418.147 53.4277 407.235 51.042C377.228 44.4803 348.884 38.2853 323.279 41.9723C304.268 44.7025 285.803 50.1022 268.503 57.9901C251.421 65.719 234.985 75.8533 218.26 88.9687C212.862 93.2038 208.141 96.9737 203.979 100.302C185.522 115.054 176.257 122.459 156.49 131.174C130.448 142.657 113.971 156.51 99.4418 168.73C82.7163 182.8 69.5106 193.908 48.1731 196.247C36.5425 197.528 31.1577 192.615 26.424 188.281C25.7982 187.725 25.2017 187.173 24.6137 186.652C18.9433 178.947 9.69426 177.129 0 176.42V177.011C9.53885 177.717 18.6115 179.511 24.1139 187.015C24.1269 187.034 24.1425 187.051 24.1601 187.066C24.7607 187.587 25.3529 188.131 25.983 188.707C30.8175 193.131 36.2989 198.143 48.2445 196.838C69.7794 194.472 83.0565 183.312 99.8618 169.176C114.357 156.983 130.789 143.15 156.759 131.714C176.605 122.964 185.888 115.547 204.386 100.755C208.548 97.4311 213.265 93.6573 218.667 89.4262C252.437 62.9232 285.725 48.0411 323.363 42.6112C348.846 38.9202 377.127 45.1033 407.079 51.6492C418 54.0152 429.286 56.5034 440.371 58.4317C450.762 60.151 456.197 65.6243 461.956 71.4171C469.895 79.4023 478.098 87.6635 499.948 87.6596H500.221C538.221 87.5413 561.352 93.543 578.233 97.9122C590.031 100.972 598.558 103.184 606.164 101.367C613.952 99.5092 620.697 93.6021 629.472 80.948C630.665 78.6925 631.809 76.5197 632.904 74.4297C655.165 32.0983 659.785 23.2889 710.222 41.089C753.628 56.4009 776.549 72.2649 782.358 91.0074C786.512 104.415 781.938 119.151 768.38 136.079C747.651 161.955 722.05 161.553 699.461 161.202C684.869 160.978 672.264 160.78 663.129 167.551L663.083 167.59C654.459 176.991 653.561 184.251 652.426 193.443C650.977 205.151 649.18 219.721 631.967 246.374C610.373 279.817 589.065 315.63 579.463 350.954C574.57 368.94 572.961 385.533 574.553 401.681C575.987 416.216 580.072 430.411 586.629 443.646H587.326C554.715 377.185 589.993 312.515 632.509 246.678Z" fill="white" fill-opacity="0.1"/>
<path d="M1512.1 58.4956C1506.4 70.7199 1502.19 82.605 1502.36 97.6921C1503.14 168.518 1470.5 217.518 1427.76 274.214C1413.48 293.142 1399.2 313.21 1384.05 334.456C1372.08 351.251 1359.69 368.621 1346.52 386.579C1331.45 407.108 1317.28 426.103 1303.81 443.647H1304.61C1318 426.194 1332.09 407.313 1347.06 386.914C1360.25 368.952 1372.62 351.582 1384.6 334.788C1399.72 313.545 1414.03 293.478 1428.28 274.558C1451.92 243.2 1469.13 218.369 1481.9 191.511C1496.65 160.485 1503.36 130.67 1503 97.6842C1502.84 83.2281 1506.74 71.7136 1512.11 59.9822L1512.1 58.4956Z" fill="white" fill-opacity="0.1"/>
<path d="M58.0985 93.4254C62.4836 108.197 71.4806 117.282 83.4262 119.006C98.5472 121.182 116.109 111.344 128.172 93.9341C132.372 90.0933 136.904 91.2369 142.146 92.5579C146.027 93.5398 150.429 94.6479 155.188 93.6778C178.538 87.7865 196.166 76.8123 214.832 65.1953C233.498 53.5783 252.727 41.6024 279.697 33.1795C282.331 32.3554 284.83 31.5628 287.22 30.8135C308.776 23.968 321.788 19.8354 349.645 21.4127C373.981 22.7889 380.807 24.2637 390.257 26.3063C392.635 26.8229 395.096 27.3553 398.061 27.9349C406.882 29.6581 414.442 29.5359 424.981 29.3663C434.15 29.2204 445.562 29.039 461.524 30.1274C469.798 30.6913 476.909 33.1125 483.785 35.4548C488.67 37.1189 493.286 38.6883 497.86 39.3981C505.555 40.5811 511.65 39.4257 517.547 38.2979C522.444 37.3634 527.073 36.4761 532.13 37.1149C536.751 37.6946 541.371 38.7159 546.269 39.7925C558.147 42.4187 570.433 45.1317 583.37 41.2633C605.383 34.6662 613.662 24.1493 621.643 13.9756C625.553 8.99915 629.287 4.24746 634.491 0.0241699H633.538C628.569 4.16859 624.932 8.79409 621.139 13.6246C613.213 23.7195 605.014 34.1614 583.189 40.6836C570.416 44.5008 558.218 41.8035 546.424 39.197C541.522 38.1165 536.893 37.0913 532.227 36.5116C527.065 35.8649 522.386 36.7601 517.434 37.6946C511.595 38.8106 505.555 39.966 497.974 38.7909C493.458 38.0929 488.872 36.5313 484.016 34.8751C477.098 32.5092 469.945 30.084 461.582 29.5122C445.596 28.4239 434.171 28.6053 424.985 28.7512C414.51 28.9207 406.924 29.043 398.208 27.3316C395.268 26.7519 392.79 26.2196 390.413 25.707C380.937 23.6604 374.09 22.1777 349.699 20.7975C321.721 19.2202 308.662 23.3607 287.035 30.2299C284.645 30.991 282.15 31.7836 279.517 32.5959C252.437 41.0661 233.15 53.0814 214.484 64.6945C195.818 76.3075 178.273 87.2305 155.041 93.0863C150.442 94.0248 146.309 92.9798 142.31 91.9703C137.097 90.6572 132.175 89.4151 127.706 93.5161C127.689 93.5314 127.675 93.5487 127.664 93.5674C115.735 110.8 98.4086 120.548 83.5228 118.41C71.825 116.746 63.0044 107.803 58.7075 93.2677C53.6462 76.2168 55.6035 67.9004 57.4936 59.856C60.27 48.0261 62.8952 36.8705 42.9942 0.0241699H42.2886C62.2441 36.902 59.6358 47.9906 56.8762 59.7298C54.9692 67.8491 52.9951 76.2326 58.0985 93.4254Z" fill="white" fill-opacity="0.1"/>
<path d="M1486.1 56.2321C1484.36 63.6219 1482.74 70.6016 1481.39 77.3762C1479.31 87.96 1478.08 99.1511 1476.89 109.976C1475.49 122.661 1474.05 135.781 1471.23 148.525C1463.86 181.799 1440.2 213.629 1419.32 241.714C1413.71 249.261 1408.4 256.395 1403.78 263.118L1399.74 268.958C1354.86 333.92 1316.37 389.663 1271.03 443.647H1271.87C1283.04 430.338 1294.13 416.513 1305.34 401.974C1336.77 361.184 1366.2 318.589 1400.27 269.266L1404.29 263.437C1408.91 256.734 1414.23 249.596 1419.84 242.053C1440.75 213.921 1464.45 182.036 1471.84 148.648C1474.67 135.871 1476.12 122.736 1477.51 110.035C1478.7 99.2221 1479.93 88.0428 1482 77.4826C1483.33 70.7199 1484.97 63.7441 1486.71 56.3583C1491.09 37.7301 1495.61 18.5025 1495.75 0.0241699H1495.12C1494.99 18.4592 1490.47 37.6315 1486.1 56.2321Z" fill="white" fill-opacity="0.1"/>
<path d="M605.799 391.832C604.421 349.977 622.709 309.574 670.996 247.782C688.528 225.337 717.044 211.748 753.141 194.548C765.112 188.842 777.502 182.943 790.796 176.117C809.278 166.653 822.635 155.505 830.527 143.017C837.76 131.581 840.318 119.156 838.129 106.139C834.769 86.1027 820.068 65.4753 796.794 48.0576C773.827 30.8727 744.896 18.5262 715.309 13.2855C702.515 11.0102 693.887 5.41468 686.449 0.0241699H685.42C693.047 5.59607 701.868 11.4992 715.216 13.8652C744.677 19.0861 773.512 31.3893 796.4 48.5151C819.56 65.842 834.156 86.3354 837.504 106.229C840.704 125.232 835.143 152.693 790.494 175.592C777.196 182.414 764.822 188.313 752.855 194.015C716.682 211.256 688.112 224.876 670.488 247.435C646.336 278.347 630.291 303.15 619.988 325.513C609.163 348.98 604.446 370.072 605.173 391.863C605.795 410.972 610.86 427.582 621.021 443.663H621.731C611.49 427.424 606.412 410.464 605.799 391.832Z" fill="white" fill-opacity="0.1"/>
<path d="M591.4 393.74C590.14 347.58 615.556 292.527 676.423 209.686C686.209 197.513 702.851 193.802 718.946 190.218C730.287 187.69 742.002 185.092 751.415 179.547C792.477 159.748 814.751 131.62 812.529 102.369C811.525 89.1272 805.359 76.343 794.703 65.4555C783.782 54.2762 768.241 45.2027 749.73 39.2167C746.273 38.1008 742.128 36.8902 737.743 35.6086C724.382 31.7126 707.748 26.8623 698.063 20.9237C658.706 -3.21329 644.824 15.4031 630.119 35.1196C622.138 45.8218 613.893 56.8867 601.095 62.3285C586.562 68.4998 568.114 66.2718 544.702 55.4711C527.014 47.3242 518.576 52.277 511.129 56.6541C502.447 61.7488 495.588 65.7749 476.145 47.6988C463.161 35.6283 453.715 37.2254 444.579 38.7672C442.53 39.1142 440.409 39.4691 438.279 39.6544C413.497 41.8233 395.629 38.1915 378.358 34.6819C360.548 31.062 343.726 27.6392 321.162 31.0028C295.961 34.7569 267.037 46.4961 230.197 67.9398C212.703 78.1017 196.951 88.4924 181.713 98.5281C155.276 115.942 130.306 132.389 98.5471 146.589C81.6326 154.156 60.4295 152.177 43.2126 141.427C24.4331 129.692 14.281 110.591 15.3815 89.0247C15.3836 88.9879 15.3836 88.9511 15.3815 88.9143C14.5414 80.3573 20.6108 73.3343 26.4912 66.5399C31.1661 61.1415 35.9965 55.5618 37.3406 49.1894C38.8443 40.8098 34.0853 33.3373 29.0492 25.427C24.3995 18.1397 19.2415 10.0323 18.2881 0.0241699H16.6079C17.5278 10.4306 22.8034 18.7234 27.5959 26.2432C32.6866 34.2324 37.0801 41.1292 35.7024 48.9212C34.4424 54.8796 29.9523 60.065 25.2017 65.5541C19.1029 72.5811 12.8109 79.8328 13.7013 89.0089C13.1301 100.445 15.5957 111.115 21.0392 120.76C26.072 129.631 33.3793 137.185 42.3011 142.74C60.0053 153.782 81.8426 155.817 99.2864 148.013C131.154 133.758 156.183 117.255 182.679 99.8176C197.897 89.7976 213.631 79.4306 231.1 69.2608C311.241 22.6272 342.176 28.9208 378.026 36.208C395.423 39.757 413.409 43.4006 438.46 41.2081C440.644 41.0188 442.799 40.656 444.886 40.3012C453.996 38.7633 462.607 37.3121 474.969 48.8029C484.209 57.4112 491.45 61.733 497.696 62.4074C503.417 63.0265 507.601 60.5737 512.028 57.9751C519.101 53.8228 527.119 49.1184 543.95 56.8788C560.037 64.2883 572.932 67.2931 583.496 67.2931C608.164 67.2931 620.349 50.9599 631.484 36.0227C646.323 16.1168 659.138 -1.06813 697.13 22.2211C707.026 28.2938 723.773 33.1795 737.226 37.1031C741.603 38.3808 745.736 39.5874 749.163 40.6955C785.744 52.5254 808.807 75.6253 810.836 102.471C813.008 131.064 791.053 158.648 750.6 178.147L750.537 178.183C741.351 183.585 729.758 186.172 718.543 188.668C702.162 192.32 685.214 196.097 675.045 208.748C646.424 247.707 626.708 278.875 612.961 306.853C596.621 340.103 589.019 368.538 589.72 393.784C590.088 410.627 594.441 427.182 602.464 442.251C602.708 442.716 602.96 443.181 603.212 443.647H605.014C596.264 427.763 591.888 411.422 591.4 393.74Z" fill="white" fill-opacity="0.1"/>
<path d="M1352.03 357.856C1366.03 338.621 1378.51 321.183 1389.51 305.769C1398.43 293.296 1406.85 281.514 1414.49 271.02C1444.63 229.616 1465.64 198.716 1477.22 172.595C1488.26 147.67 1491.22 126.723 1492.82 96.7812C1493.55 78.9298 1500.16 58.3852 1506.56 38.5149C1508.48 32.525 1510.38 26.6337 1512.1 20.8843V14.9062C1510 22.3788 1507.48 30.1353 1504.96 38.0574C1498.54 58.0224 1491.89 78.6735 1491.16 96.7102C1488.01 155.576 1480.94 176.988 1413.12 270.129C1405.47 280.626 1397.05 292.413 1388.13 304.889C1377.13 320.268 1364.65 337.737 1350.65 356.965C1347.35 361.496 1343.44 366.989 1338.89 373.349C1325.51 392.119 1307.72 417.077 1287.09 443.647H1289.16C1309.51 417.4 1327.06 392.778 1340.29 374.244C1344.82 367.872 1348.73 362.379 1352.03 357.856Z" fill="white" fill-opacity="0.1"/>
<path d="M1466.81 86.9265C1465.97 94.2886 1465.33 100.768 1464.75 106.481C1459.86 155.075 1459.86 155.075 1396.2 252.688L1383.73 271.813C1340.46 338.226 1300.73 386.93 1253.3 443.646H1254.1C1301.41 387.072 1341.09 338.419 1384.26 272.112C1388.67 265.346 1392.83 258.969 1396.73 252.983C1460.47 155.256 1460.47 155.256 1465.38 106.525C1465.95 100.811 1466.61 94.336 1467.44 86.9777C1473.15 36.3811 1472.06 14.3617 1469.29 0.0119629H1468.65C1471.44 14.3301 1472.53 36.2786 1466.81 86.9265Z" fill="white" fill-opacity="0.1"/>
<path d="M620.647 392.225C616.808 343.411 647.558 288.366 707.223 237.253C727.46 219.902 744.278 214.011 774.81 203.293C776.737 202.615 778.722 201.917 780.766 201.199C797.144 195.384 812.229 186.762 825.251 175.773C838.394 164.653 848.084 152.062 853.271 139.356C859.433 124.273 858.95 109.553 851.877 96.7686C843.279 81.2437 838.491 70.0408 834.656 61.0422C828.108 45.7658 824.516 37.3468 810.235 25.8994C794.757 11.8651 776.385 10.5205 756.938 9.10087C742.073 8.01251 726.855 6.89655 712.142 0.03125H710.743C725.894 7.42496 741.577 8.57641 756.888 9.69631C776.209 11.112 794.48 12.4566 809.811 26.345C823.991 37.7096 827.57 46.0615 834.064 61.2669C837.919 70.2774 842.716 81.4961 851.327 97.0446C858.316 109.663 858.786 124.218 852.692 139.136C842.233 164.747 813.915 188.884 780.556 200.651L774.588 202.71C743.984 213.451 727.124 219.366 706.799 236.784C646.987 288.047 616.165 343.253 620.017 392.253C621.358 409.621 627.256 426.408 637.184 441.118C637.751 441.966 638.334 442.806 638.931 443.646H639.8C628.594 427.944 622.092 410.644 620.647 392.225Z" fill="white" fill-opacity="0.1"/>
<path d="M110.501 64.1306C135.283 73.6734 160.405 72.5811 185.153 60.8852C311.308 1.25054 355.344 9.14899 390.744 15.4977C399.384 17.0474 407.545 18.5104 416.269 18.8732C436.2 18.5893 456.109 20.2888 475.363 21.9372C510.646 24.9577 544.017 27.8087 577.077 19.3188C589.485 16.1326 599.889 8.35639 609.739 0.0241699H608.798C599.137 8.1395 588.968 15.6515 576.914 18.747C543.962 27.2094 510.667 24.3623 475.418 21.3496C456.151 19.7013 436.229 17.9938 416.278 18.2817C407.617 17.9229 399.477 16.4638 390.862 14.9181C355.378 8.55355 311.216 0.635384 184.867 60.3568C160.291 71.9738 135.35 73.0582 110.74 63.5825C70.9848 48.2785 62.874 24.0784 65.7092 0.0241699H65.1044C64.0417 8.9952 64.5919 16.9489 66.7299 24.2164C71.8794 41.7168 86.194 54.7731 110.501 64.1306Z" fill="white" fill-opacity="0.1"/>
<path d="M644.962 416.998C630.623 385.759 634.592 351.464 657.097 312.145C695.702 244.715 743.421 229.651 778.259 218.665C788.847 215.329 798 212.446 805.762 208.582C824.663 199.173 839.184 189.847 850.121 180.076C860.698 170.612 867.683 160.974 871.476 150.568C875.054 140.745 875.722 130.39 873.508 118.915C871.505 108.509 867.09 97.0967 860.017 84.0325C852.23 69.6552 848.513 55.9561 845.236 43.8659C839.978 24.4727 835.828 9.18448 818.136 0.363295C817.905 0.244995 817.67 0.138526 817.439 0.0241699H816.036C816.637 0.300202 817.237 0.58412 817.842 0.883812C835.286 9.58276 839.406 24.7763 844.623 44.0158C847.912 56.1296 851.638 69.8642 859.454 84.3046C874.13 111.403 877.654 131.782 870.879 150.379C863.352 171.038 841.956 189.903 805.464 208.058C797.744 211.902 788.621 214.761 778.061 218.105C743.119 229.123 695.265 244.21 656.543 311.865C633.941 351.354 629.963 385.818 644.383 417.231C648.499 426.198 654.085 434.975 661.268 443.651H662.07C654.774 434.881 649.112 426.04 644.962 416.998Z" fill="white" fill-opacity="0.1"/>
<path d="M140.411 41.2122C157.775 45.8377 173.069 46.6224 188.543 43.6847C202.714 40.9953 215.895 35.5141 231.138 29.1378C254.659 19.3347 283.893 7.13805 328.727 1.14028C343.214 -0.795891 361.733 1.75938 381.332 4.46843C395.89 6.48346 410.944 8.56159 424.112 8.59708C439.002 8.64045 454.547 9.64205 469.58 10.6121C506.887 13.0136 545.462 15.4979 575.082 3.07644C577.198 2.17493 579.254 1.15574 581.24 0.0243182H580.005C578.325 0.944624 576.595 1.78175 574.822 2.53226C545.349 14.8945 506.853 12.4142 469.626 10.0246C454.58 9.0545 439.027 8.0529 424.112 8.00952C410.994 7.97403 395.97 5.89591 381.424 3.88876C369.079 2.17342 357.163 0.529062 346.394 0.0243182H334.267C332.335 0.134731 330.459 0.310865 328.639 0.552722C283.717 6.56233 254.42 18.7787 230.881 28.5976C200.219 41.3857 178.063 50.6288 140.575 40.6444C129.398 37.6672 123.774 24.1771 116.634 7.10651C115.663 4.78389 114.676 2.42579 113.647 0.00854492H112.967C114.029 2.48494 115.046 4.91797 116.046 7.30367C123.245 24.5478 128.949 38.1561 140.411 41.2122Z" fill="white" fill-opacity="0.1"/>
<path d="M1392.92 232.238C1390.23 236.137 1387.46 240.178 1384.58 244.364C1377.64 254.498 1370.68 264.782 1363.3 275.67C1326.05 330.683 1285.59 390.42 1238.82 443.655H1239.55C1249.77 432.009 1260.09 419.608 1270.52 406.453C1304.76 363.203 1336.14 316.877 1363.83 275.989C1371.2 265.101 1378.17 254.817 1385.12 244.683C1387.98 240.495 1390.76 236.455 1393.45 232.561C1420.96 192.604 1439.14 166.203 1447.18 132.689C1454.57 101.931 1453.77 64.0754 1444.12 0.0241699H1443.48C1463.17 130.224 1447.33 153.23 1392.92 232.238Z" fill="white" fill-opacity="0.1"/>
<path d="M1420.81 18.2541C1450.29 121.79 1436.5 142.33 1399.66 197.225C1395.88 202.844 1391.99 208.661 1387.83 215.006C1330.52 302.476 1286.9 362.848 1226.85 437.732C1225.29 439.688 1223.69 441.659 1222.07 443.647H1222.88C1224.41 441.762 1225.9 439.912 1227.36 438.098C1287.42 363.176 1331.05 302.807 1388.36 215.301C1392.53 208.949 1396.42 203.14 1400.19 197.525C1437.15 142.468 1450.97 121.869 1421.42 18.1043C1419.67 11.951 1417.48 5.9116 1414.89 0.0241699L1414.21 0.0241699C1416.84 5.95814 1419.04 12.048 1420.81 18.2541V18.2541Z" fill="white" fill-opacity="0.1"/>
<path d="M678.552 435.827C656.329 409.04 648.567 382.553 656.098 359.22C689.637 255.346 740.523 239.904 789.709 224.97C809.698 218.901 828.578 213.172 846.467 201.89C866.75 189.102 882.061 171.44 894.661 146.321C908.821 118.083 895.312 100.791 883.396 85.5308C878.15 78.8271 873.189 72.4626 870.695 65.5776C866.641 54.4062 865.276 44.5677 864.071 35.8845C862.445 24.165 861.038 14.0385 853.826 4.12112C852.768 2.67393 851.667 1.32137 850.529 0.0397949H849.689C850.965 1.45311 852.165 2.92583 853.284 4.45236C860.425 14.2554 861.807 24.3148 863.428 35.9634C864.633 44.6702 866.007 54.5403 870.077 65.7669C872.597 72.7426 877.591 79.1229 882.867 85.8778C894.678 101.004 908.069 118.146 894.069 146.065C866.519 201.026 829.137 212.383 789.516 224.398C740.162 239.383 689.129 254.872 655.497 359.039C651.818 370.427 651.784 382.699 655.392 395.558C659.143 408.91 666.766 422.577 678.074 436.174C680.14 438.666 682.33 441.152 684.643 443.631H685.483C683.035 441.044 680.725 438.443 678.552 435.827Z" fill="white" fill-opacity="0.1"/>
<path d="M177.004 22.6391C177.802 22.6391 178.621 22.6062 179.462 22.5405C210.271 20.1745 235.598 12.7335 262.409 4.87839C267.899 3.26557 273.439 1.64093 279.151 0.0241699H276.975C271.973 1.45165 267.071 2.89096 262.22 4.31055C235.443 12.1617 210.136 19.5751 179.411 21.9529C163.244 23.199 155.091 11.724 147.531 0.0241699H146.796C154.121 11.3809 161.942 22.6391 177.004 22.6391Z" fill="white" fill-opacity="0.1"/>
<path d="M534.932 0.0241699H531.819C499.973 5.88393 466.009 2.65042 439.35 0.0241699H433.289L438.262 0.513141C465.946 3.24191 501.733 6.76723 534.932 0.0241699Z" fill="white" fill-opacity="0.1"/>
<path d="M864.751 203.57C839.318 218.878 823.89 225.282 790.435 236.749C786.73 238.019 783.03 239.241 779.451 240.42C754.216 248.745 730.379 256.588 711.667 280.047C703.707 290.023 688.986 310.41 679.678 334.985C670.437 359.433 669.391 380.589 676.565 397.885C682.261 411.615 694.206 427.775 710.088 443.627H712.394C696.122 427.562 683.882 411.158 678.132 397.293C671.109 380.36 672.163 359.567 681.261 335.493C690.472 311.128 705.106 290.875 713.011 280.973C731.417 257.917 753.951 250.507 779.993 241.911C783.576 240.728 787.281 239.505 790.998 238.232C824.6 226.717 840.074 220.286 865.641 204.895C880.96 195.675 894.333 184.299 904.317 171.996C914.129 159.902 920.699 146.885 923.357 134.349C926.747 118.256 923.702 103.248 914.537 90.9372C889.373 57.1233 889.268 55.8141 887.478 33.9642C887.058 28.8025 886.529 22.3788 885.563 14.1452C885.046 9.28213 883.746 4.52091 881.707 0.0241699L879.863 0.0241699C882.022 4.55402 883.389 9.38065 883.912 14.3187C884.878 22.5247 885.403 28.9365 885.823 34.0865C887.646 56.3386 887.756 57.6714 913.18 91.8402C922.072 103.788 925.025 118.383 921.723 134.034C916.397 159.306 895.081 185.301 864.751 203.57Z" fill="white" fill-opacity="0.1"/>
<path d="M1294.06 329.969C1319.34 298.422 1345.47 265.792 1367.65 228.626C1372.08 221.212 1376.57 214.036 1380.92 207.123C1400.14 176.483 1416.75 150.02 1420.13 115.674C1423.39 82.4394 1413.37 45.2973 1388.71 0.0241699H1386.83C1443.69 103.974 1415.12 149.503 1379.47 206.326C1375.12 213.263 1370.62 220.432 1366.19 227.861C1344.06 264.928 1317.96 297.512 1292.71 329.038C1286.07 337.781 1279.19 347.067 1271.91 356.898C1251 385.108 1228.16 415.925 1204.02 443.651H1206.19C1230.04 416.146 1252.61 385.684 1273.28 357.805C1280.57 347.974 1287.45 338.688 1294.06 329.969Z" fill="white" fill-opacity="0.1"/>
<path d="M1350.72 0.576233C1377.6 27.1936 1403.11 77.6759 1399.8 122.661C1396.23 171.377 1358.4 219.769 1314.6 275.8C1307.16 285.319 1299.48 295.157 1291.87 305.11C1278.63 322.461 1266.16 339.654 1254.07 356.283C1231.09 387.951 1209.08 418.287 1185.97 443.647H1186.81C1209.81 418.342 1231.73 388.141 1254.6 356.618C1266.66 339.989 1279.13 322.796 1292.37 305.457C1299.97 295.504 1307.66 285.666 1315.1 276.151C1336.65 248.575 1357.01 222.522 1372.52 197.166C1389.91 168.703 1398.78 145.043 1400.42 122.701C1402.01 101.012 1397.18 76.8635 1386.44 52.8133C1377.44 32.6354 1364.58 13.4472 1351.16 0.170072C1351.11 0.122753 1351.06 0.0714897 1351.02 0.0241699H1350.18C1350.35 0.209506 1350.53 0.394841 1350.72 0.576233Z" fill="white" fill-opacity="0.1"/>
<path d="M715.691 410.704C698.667 391.358 697.512 367.296 699.541 350.518C703.435 318.309 722.643 284.727 747.302 266.951C763.831 255.046 787.146 247.443 811.836 239.391C856.438 224.844 907.022 208.353 933.795 161.306C955.049 123.951 949.882 90.1604 918.443 60.8852C917.603 60.0966 916.704 59.3434 915.742 58.5192C909.778 53.4955 903.02 47.8013 909.896 36.4604C918.258 22.6588 919.733 10.5844 914.281 0.552574C914.184 0.375125 914.079 0.201619 913.978 0.0241699H913.26C913.415 0.288372 913.575 0.552574 913.722 0.812832C919.069 10.6711 917.599 22.5484 909.345 36.1607C902.205 47.9157 909.484 54.0357 915.322 58.9491C916.276 59.7574 917.183 60.5264 918.002 61.2796C949.219 90.3536 954.343 123.903 933.241 161.006C906.582 207.864 856.136 224.312 811.63 238.827C786.89 246.891 763.528 254.51 746.92 266.474C722.139 284.341 702.817 318.084 698.915 350.443C696.874 367.336 698.041 391.567 715.204 411.071C726.284 423.666 737.104 434.471 747.853 443.639H748.911C738.259 434.668 727.225 423.816 715.691 410.704Z" fill="white" fill-opacity="0.1"/>
<path d="M747.269 398.046C732.265 381.519 725.679 359.677 728.716 336.53C732.005 311.526 746.605 288.13 767.779 273.95C797.601 253.981 815.633 248.713 834.731 243.172C853.633 237.652 873.193 231.973 905.972 211.807C926.726 199.039 941.969 182.059 951.289 161.333C959.967 142.034 963.369 119.881 961.404 95.4794C960.538 84.7378 955.691 76.0389 951 67.6239C945.669 58.0653 940.159 48.1794 940.553 35.2887C940.953 22.2206 937.638 10.1619 931.187 0H930.448C936.971 10.1304 940.322 22.189 939.923 35.269C939.524 48.3489 945.073 58.2664 950.424 67.8959C955.086 76.2558 959.904 84.9034 960.761 95.5228C963.626 131.099 956.38 180.067 905.611 211.306C872.904 231.417 853.393 237.107 834.526 242.596C815.381 248.172 797.294 253.437 767.392 273.461C756.427 280.838 747.291 290.356 740.611 301.36C733.994 312.162 729.732 324.092 728.073 336.455C725.016 359.752 731.652 381.756 746.769 398.409C766.964 421.185 790.658 434.687 817.178 443.627H819.073C791.981 434.73 767.812 421.201 747.269 398.046Z" fill="white" fill-opacity="0.1"/>
<path d="M1307.27 2.18116C1310.01 6.31769 1312.85 10.5962 1315.98 14.7998L1316 14.8313C1320.83 19.6697 1326.45 23.826 1332.39 28.2386C1346.25 38.4912 1361.95 50.1437 1371.78 74.2491C1383.89 103.958 1388.36 125.792 1377.33 156.037C1366.21 186.563 1338.52 225.889 1284.76 287.535C1272.84 301.202 1260.2 319.87 1245.57 341.444C1223.18 374.485 1197.33 412.629 1166.27 443.674H1167.14C1198.05 412.664 1223.79 374.666 1246.1 341.763C1260.72 320.186 1273.35 301.542 1285.25 287.91C1339.05 226.177 1366.77 186.795 1377.93 156.203C1383.32 141.423 1385.17 128.095 1383.76 114.258C1382.58 102.74 1379.17 90.7006 1372.37 74.0125C1362.48 49.7533 1346.7 38.0614 1332.78 27.7456C1326.86 23.3646 1321.27 19.2202 1316.48 14.4212C1313.36 10.2571 1310.54 5.99434 1307.8 1.8657L1306.58 0.0241699H1305.84L1307.27 2.18116Z" fill="white" fill-opacity="0.1"/>
<path d="M1281.26 1.96428C1288.31 14.9772 1296.29 29.6936 1325.11 52.8645C1383.65 99.9437 1364.76 154.689 1348.29 183.128C1327.17 219.584 1302.69 244.845 1281.08 267.12C1263.79 284.96 1248.85 300.366 1238.3 318.336C1196.49 389.513 1180.01 417.566 1145.92 443.639H1146.91C1157.1 435.792 1166.42 426.99 1174.72 417.368C1193 396.213 1209.28 368.96 1238.85 318.62C1249.35 300.71 1264.28 285.331 1281.55 267.519C1303.18 245.207 1327.7 219.919 1348.85 183.404C1357.18 169.023 1366.77 146.621 1365.17 121.585C1363.49 95.5036 1350.17 72.2301 1325.52 52.4111C1296.81 29.3151 1288.85 14.6381 1281.84 1.6843L1280.92 0.0241699H1280.21C1280.56 0.66693 1280.91 1.30969 1281.26 1.96428Z" fill="white" fill-opacity="0.1"/>
<path d="M928.163 442.436C832.56 428.035 785.87 413.216 761.915 363.479C753.645 346.31 752.465 331.231 758.311 317.39C771.752 285.512 820.421 266.647 867.477 248.382C883.136 242.309 897.929 236.576 911.534 230.369C933.728 220.238 949.828 206.606 960.761 188.692C970.556 172.639 976.302 152.808 978.327 128.107C984.127 88.3741 980.767 76.3667 975.647 58.188C973.937 52.1153 972.001 45.2342 970.216 36.4367C968.238 21.1406 965.369 9.29489 960.975 0.0241699H960.265C964.722 9.27912 967.612 21.1445 969.599 36.5274C971.396 45.3644 973.333 52.2573 975.059 58.3379C980.15 76.4495 983.518 88.4135 977.722 128.063C973.522 179.413 953.024 210.806 911.278 229.856C897.69 236.055 882.909 241.789 867.259 247.853C820.081 266.146 771.299 285.059 757.744 317.173C751.835 331.172 753.019 346.401 761.361 363.724C785.433 413.709 832.249 428.583 928.112 443.02C929.557 443.193 931.002 443.414 932.451 443.647H935.811C933.211 443.15 930.679 442.74 928.163 442.436Z" fill="white" fill-opacity="0.1"/>
<path d="M959.841 433.859C940.066 426.217 920.732 422.818 902.033 419.557C881.779 416.008 862.651 412.664 844.14 404.296C800.394 384.521 779.384 365.392 793.594 321.022C806.535 280.618 846.282 268.824 885.883 260.204C909.404 255.078 931.099 247.388 948.597 237.948C967.242 227.892 980.591 216.062 987.206 203.74C998.358 182.954 997.455 161.751 996.585 141.246C996.266 133.773 995.934 126.045 996.228 118.576C997.22 84.2454 995.334 55.3133 990.638 32.588C988.05 20.0917 984.547 9.2042 980.187 0.0241699H979.532C991.881 25.6557 997.173 64.6945 995.598 118.556C995.304 126.048 995.636 133.785 995.955 141.27C996.825 161.7 997.724 182.824 986.643 203.471C980.087 215.696 966.822 227.439 948.282 237.435C930.838 246.844 909.219 254.518 885.74 259.628C845.959 268.284 806.027 280.133 792.989 320.848C786.172 342.142 787.134 358.199 796.013 371.386C804.023 383.286 818.334 393.287 843.867 404.829C862.449 413.232 881.623 416.588 901.919 420.141C920.585 423.41 939.89 426.789 959.602 434.407C963.522 435.927 967.364 437.421 971.127 438.891C975.294 440.516 979.377 442.101 983.375 443.647H985.056C980.6 441.935 976.044 440.167 971.388 438.343C967.608 436.884 963.759 435.389 959.841 433.859Z" fill="white" fill-opacity="0.1"/>
<path d="M1262.22 18.9836C1275.75 45.735 1295.4 63.5746 1312.75 79.3163C1335.01 99.506 1352.56 115.457 1347.33 141.274C1334.15 206.315 1290.82 242.715 1256 271.959C1251.41 275.815 1247.08 279.451 1242.87 283.099C1222.24 300.986 1215.24 318.857 1207.84 337.781C1202.56 351.259 1197.11 365.195 1186.29 379.43C1163.82 409.005 1143.42 430.015 1123.64 443.651H1124.71C1144.33 429.963 1164.55 409.036 1186.8 379.769C1197.67 365.471 1203.14 351.496 1208.43 337.97C1215.81 319.117 1222.78 301.297 1243.29 283.525C1247.49 279.881 1251.83 276.241 1256.42 272.389C1273.9 257.704 1293.71 241.063 1310.51 220.187C1329.83 196.2 1342.05 170.419 1347.94 141.372C1353.24 115.24 1335.56 99.1787 1313.17 78.8786C1295.87 63.1763 1276.27 45.3604 1262.77 18.7234C1259.54 12.2786 1255.89 6.03293 1251.82 0.0241699L1251.05 0.0241699C1255.21 6.10715 1258.94 12.4406 1262.22 18.9836V18.9836Z" fill="white" fill-opacity="0.1"/>
<path d="M1241.05 34.5665C1241.05 34.6098 1241.05 34.6533 1241.05 34.6966C1245.22 59.3936 1264.8 73.2898 1283.75 86.7483C1312.44 107.1 1339.53 126.323 1318.31 180.248C1307.42 207.926 1293.08 220.04 1271.39 238.377L1269.98 239.56C1264.22 244.43 1257.45 249.193 1250.29 254.237C1230.55 268.129 1208.19 283.878 1201.31 306.836C1181.49 372.985 1143.73 420.798 1097.73 437.995C1090.93 440.545 1083.87 442.438 1076.66 443.646H1084.61C1089.29 442.533 1093.88 441.134 1098.36 439.458C1122.89 430.282 1144.9 412.789 1163.77 387.461C1180.33 365.241 1193.87 337.507 1202.94 307.258C1209.66 284.817 1231.79 269.237 1251.31 255.494C1258.51 250.427 1265.3 245.636 1271.11 240.727L1272.53 239.544C1293.62 221.712 1308.86 208.829 1319.9 180.788C1325.09 167.602 1327.58 156.091 1327.53 145.598C1327.48 136.197 1325.36 127.853 1321.07 120.038C1313.12 105.593 1298.71 95.3684 1284.77 85.4786C1266.11 72.2409 1246.81 58.5537 1242.73 34.5231C1242.81 22.0977 1240.7 12.133 1236.3 4.06103C1235.53 2.67667 1234.69 1.3326 1233.78 0.0349121H1231.76C1237.72 7.96097 1241.16 19.0101 1241.05 34.5665Z" fill="white" fill-opacity="0.1"/>
<path d="M979.927 422.353C958.569 410.377 937.832 406.442 915.881 402.277C901.377 399.517 886.378 396.682 869.77 391.382C848.025 384.442 821.173 363.566 815.708 341.937C812.768 330.296 816.128 319.779 825.642 310.674C836.953 299.881 851.839 299.491 866.229 299.116C880.09 298.758 894.401 298.383 904.645 288.32C917.834 275.362 935.593 267.333 952.772 259.569C965.629 253.757 978.927 247.739 989.911 239.766C1002.26 230.799 1010.4 220.179 1014.81 207.3C1026.39 173.439 1024.71 161.763 1019.14 123.075C1017.07 108.662 1014.48 90.74 1011.83 66.4729C1010.84 37.2096 1010.04 15.7974 1008.56 0.0241699H1006.88C1008.36 15.7422 1009.16 37.178 1010.15 66.5557C1010.15 66.5741 1010.15 66.5926 1010.15 66.6109C1012.81 90.9017 1015.4 108.86 1017.48 123.288C1023.01 161.708 1024.68 173.301 1013.21 206.823C1003.62 234.821 978.566 246.158 952.041 258.149C934.732 265.977 916.83 274.069 903.431 287.235C893.666 296.829 880.33 297.176 866.183 297.547C851.457 297.941 836.231 298.336 824.445 309.574C814.478 319.089 811.004 330.103 814.07 342.304C817.43 355.565 827.599 366.551 835.546 373.432C845.656 382.182 857.934 389.272 869.233 392.877C885.937 398.212 900.991 401.067 915.549 403.827C937.353 407.964 957.972 411.871 979.066 423.709C996.377 433.418 1013.22 440.064 1029.59 443.647H1038.16C1019.44 440.705 1000.03 433.607 979.927 422.353Z" fill="white" fill-opacity="0.1"/>
<path d="M1195.99 8.9676C1210.49 20.9986 1211.83 31.5825 1213.01 40.9084C1213.67 46.1609 1214.3 51.1176 1217.38 55.3961C1236.38 84.8842 1256.81 96.1503 1273.25 105.2C1285.9 112.176 1295.89 117.689 1300.09 129.235C1310.22 157.043 1308 179.263 1293.31 197.166C1280.29 213.022 1259.37 223.712 1239.13 234.052C1212.45 247.664 1187.29 260.504 1181.96 283.678C1180.18 291.403 1178.74 298.383 1177.34 305.134C1169.63 342.662 1164.98 365.313 1121.25 400.759C1100.37 418.473 1077.06 427.327 1051.33 427.321C1016.89 427.321 978.197 411.394 935.648 379.607C913.054 362.714 921.556 352.568 931.401 340.821C937.239 333.853 943.275 326.653 943.826 317.271C946.867 296.088 959.123 279.644 979.242 269.723C1018.54 253.622 1040.39 229.6 1046.03 196.283C1050.96 167.161 1043.2 135.784 1035.71 105.441C1027.84 73.5787 1020.41 43.4834 1031.13 23.4632C1036.07 14.2411 1042.02 6.43336 1048.97 0.0399432H1048.06C1041.28 6.38342 1035.45 14.0965 1030.57 23.1793C1019.74 43.3927 1027.21 73.5866 1035.1 105.559C1042.58 135.848 1050.32 167.169 1045.41 196.176C1039.81 229.276 1018.08 253.153 978.969 269.175C958.64 279.199 946.274 295.796 943.2 317.2C942.658 326.42 936.685 333.545 930.91 340.438C925.962 346.353 921.291 351.913 920.732 358.183C920.107 365.218 924.723 372.162 935.257 380.037C967.599 404.214 997.95 419.419 1025.48 425.231C1033.92 427.051 1042.55 427.984 1051.21 428.015C1058.93 428.032 1066.61 427.204 1074.12 425.547C1091.06 421.777 1107.06 413.579 1121.67 401.185C1165.56 365.609 1170.23 342.883 1177.95 305.229C1179.34 298.485 1180.77 291.506 1182.57 283.789C1187.86 260.874 1212.9 248.094 1239.4 234.564C1259.72 224.194 1280.72 213.472 1293.81 197.497C1308.63 179.429 1310.88 157.027 1300.68 129.014C1296.4 117.263 1286.32 111.703 1273.56 104.664C1257.2 95.6455 1236.85 84.4229 1217.92 55.0531C1214.92 50.8771 1214.33 46.2122 1213.65 40.8138C1212.45 31.3498 1211.1 20.6713 1196.43 8.47863C1192.58 5.36539 1188.48 2.53867 1184.16 0.0241699L1182.98 0.0241699C1187.57 2.66893 1191.92 5.65996 1195.99 8.9676V8.9676Z" fill="white" fill-opacity="0.1"/>
<path d="M1141.68 12.6822C1161.35 25.7346 1180.52 47.2177 1198.64 76.5283C1210.91 96.379 1227.62 108.244 1242.32 118.722C1262.33 132.918 1278.13 144.168 1275.16 168.865C1272.68 188.779 1263.69 202.383 1247.68 210.483C1233.65 217.581 1215.91 219.552 1200.25 221.319C1180.51 223.535 1163.5 225.448 1156.05 235.941C1156.03 235.956 1156.02 235.971 1156.02 235.988C1149.3 250.555 1149.83 262.049 1150.42 274.214C1151.34 293.351 1152.39 315.04 1126.8 355.589C1118.16 369.28 1096.26 384.56 1071.02 394.521C1042.82 405.649 1015.89 408.204 997.157 401.524C984.434 396.989 975.466 388.381 970.502 375.936C964.865 361.807 964.449 342.777 969.267 319.373C973.37 299.412 986.122 292.661 1002.26 284.112C1021.25 274.061 1044.88 261.552 1066.82 223.22C1075.51 208.042 1078.63 191.192 1076.33 171.712C1074.29 154.342 1068.23 136.459 1062.36 119.163C1054.15 94.9357 1045.65 69.872 1047.71 45.321C1052.65 21.878 1068.02 4.87839 1088.29 0.0241699H1085.97C1077.21 2.54789 1069.29 7.40999 1062.78 14.299C1055.06 22.501 1049.65 33.1756 1047.1 45.2303C1045.03 69.9351 1053.55 95.0461 1061.78 119.329C1073.98 155.331 1085.52 189.335 1066.28 222.928C1044.44 261.111 1020.89 273.572 1001.97 283.588C985.686 292.208 972.824 299.022 968.662 319.247C963.827 342.765 964.251 361.902 969.922 376.133C974.962 388.752 984.043 397.467 996.947 402.064C1003.88 404.537 1011.92 405.759 1020.72 405.759C1035.9 405.759 1053.34 402.135 1071.28 395.053C1096.64 385.049 1118.65 369.67 1127.35 355.876C1153.04 315.178 1151.99 293.395 1151.06 274.179C1150.48 262.085 1149.93 250.665 1156.6 236.236C1163.9 225.984 1180.79 224.091 1200.34 221.895C1216.05 220.132 1233.86 218.133 1247.99 210.991C1264.2 202.801 1273.29 189.039 1275.8 168.92C1277.18 157.433 1274.64 148.068 1267.81 139.448C1261.64 131.672 1252.46 125.145 1242.74 118.237C1228.04 107.803 1211.41 95.9807 1199.2 76.2326C1181.04 46.8431 1161.82 25.3008 1142.08 12.2011C1133.2 6.33347 1124.3 2.25214 1115.6 0.0241699H1113.04C1122.43 2.06681 1132.08 6.33347 1141.68 12.6822Z" fill="white" fill-opacity="0.1"/>
<path d="M1070.23 66.1259C1070.87 80.7398 1075.12 96.7891 1081.88 110.165C1089.98 126.159 1090.79 135.138 1091.5 143.056C1092.44 153.553 1093.26 162.615 1110.4 184.066C1116.08 191.164 1128.17 196.433 1144.45 198.858C1151.13 199.829 1157.88 200.307 1164.64 200.289C1174.24 200.305 1183.81 199.389 1193.2 197.556C1218.13 192.592 1234.37 181.811 1237.73 167.982C1239.69 159.953 1237.46 150.95 1231.1 141.226C1224.06 130.433 1211.88 118.71 1194.89 106.36C1179.14 97.4358 1168.09 81.6074 1157.41 66.2994C1146.49 50.6642 1136.19 35.8965 1121.7 29.3585C1112.33 25.3008 1104 23.4435 1096.92 23.8103C1090.41 24.1533 1084.94 26.3852 1080.67 30.4429C1073.25 37.4857 1069.55 50.1673 1070.23 66.1259ZM1098.68 24.3268C1105.23 24.3268 1112.83 26.1881 1121.43 29.9066C1135.75 36.3776 1146.01 51.0743 1156.87 66.6386C1167.6 82.0175 1178.68 97.8893 1194.52 106.86C1211.43 119.148 1223.55 130.816 1230.56 141.561C1236.82 151.152 1239.03 160.008 1237.11 167.879C1233.8 181.476 1217.75 192.095 1193.07 197.012C1177.53 200.112 1159.83 200.585 1144.55 198.306C1128.43 195.904 1116.49 190.731 1110.9 183.743C1093.87 162.414 1093.07 153.427 1092.13 143.024C1091.41 135.051 1090.6 126.021 1082.46 109.928C1075.74 96.6235 1071.51 80.6531 1070.87 66.1141C1070.18 50.3409 1073.81 37.8169 1081.12 30.8885C1085.72 26.5035 1091.6 24.3229 1098.69 24.3229L1098.68 24.3268Z" fill="white" fill-opacity="0.1"/>
<path d="M1129.46 151.171C1129.47 151.187 1129.48 151.202 1129.5 151.215C1133.94 155.745 1139.34 159.364 1145.34 161.847C1151.35 164.33 1157.84 165.622 1164.4 165.643C1167.4 165.656 1170.39 165.349 1173.31 164.728C1181.57 162.926 1187.34 158.62 1189.12 152.898C1190.69 147.879 1189.96 139.404 1177.7 127.555C1147.95 97.9799 1133.03 103.272 1128 106.912C1123.06 110.488 1120.44 117.034 1120.66 125.35C1120.88 133.781 1124 142.945 1129.46 151.171ZM1128.41 107.4C1133.3 103.852 1147.86 98.7725 1177.26 127.981C1189.34 139.629 1190.06 147.883 1188.54 152.753C1186.82 158.249 1181.23 162.406 1173.19 164.161C1160.8 166.862 1142.64 163.79 1129.98 150.844C1124.6 142.713 1121.52 133.663 1121.31 125.354C1121.09 117.342 1123.68 110.8 1128.39 107.393L1128.41 107.4Z" fill="white" fill-opacity="0.1"/>
<path d="M669.715 129.202C681.669 136.182 692.371 139.617 702.254 139.617C704.108 139.619 705.96 139.495 707.795 139.246C719.816 137.617 731.073 130.61 742.237 117.81C749.205 108.598 751.179 98.1763 747.949 87.6713C745.081 78.3454 738.23 69.4335 728.657 62.58C718.48 55.2889 706.564 51.1878 695.11 51.0301C682.202 50.8526 671.08 55.7147 662.915 65.0762V65.0998C650.986 81.7248 646.592 94.5603 649.083 105.491C651.112 114.529 657.87 122.286 669.715 129.202ZM663.414 65.4429C680.636 45.7066 709.08 49.299 728.279 63.0493C745.921 75.6679 756.904 97.3995 741.741 117.467C729.09 131.982 716.468 139.124 702.359 139.124C692.493 139.124 681.896 135.626 670.063 128.717C658.374 121.887 651.708 114.257 649.684 105.385C647.218 94.6076 651.578 81.918 663.398 65.4429H663.414Z" fill="white" fill-opacity="0.1"/>
<path d="M685.214 95.4162C689.028 103.228 694.635 107.443 700.969 107.443C702.299 107.438 703.622 107.261 704.901 106.919C713.024 104.782 719.366 96.6071 718.468 89.4303C717.569 82.2535 709.807 77.8843 697.155 77.4111C695.345 77.3451 693.544 77.6873 691.903 78.4091C690.263 79.1308 688.83 80.2111 687.726 81.5595C684.785 85.1084 683.798 90.3964 685.205 95.361C685.206 95.3797 685.209 95.3982 685.214 95.4162ZM688.221 81.9262C689.263 80.6493 690.617 79.6262 692.168 78.9434C693.719 78.2605 695.422 77.9379 697.134 78.0026C713.982 78.6296 717.342 85.4752 717.842 89.4973C718.707 96.41 712.579 104.285 704.728 106.351C697.143 108.346 690.246 104.281 685.798 95.1915C684.462 90.4043 685.39 85.3214 688.221 81.9262Z" fill="white" fill-opacity="0.1"/>
<path d="M203.928 401.899C215.865 421.347 228.181 441.418 249.56 441.418C250.868 441.418 252.176 441.344 253.475 441.198H253.584C271.019 437.116 285.162 426.473 298.838 416.181C316.269 403.062 332.734 390.668 355.046 391.413C379.361 392.675 401.61 389.047 421.184 380.581C438.48 373.112 453.639 361.941 466.236 347.378C485.049 325.623 493.739 301.636 497.738 285.338C502.707 264.983 503.173 244.975 498.998 230.439C493.193 210.131 472.259 187.789 444.361 172.138C412.468 154.235 375.926 146.9 341.424 151.447C307.936 155.879 290.265 183.554 273.174 210.321C267.714 218.882 262.056 227.734 256.062 235.436C215.353 277.913 199.094 299.321 180.36 335.004C170.036 355.687 178.962 367.162 189.298 380.451C191.991 383.913 194.78 387.498 197.355 391.409C199.56 394.781 201.782 398.401 203.928 401.899ZM181.872 335.69C200.505 300.157 216.735 278.832 257.335 236.477C257.354 236.457 257.372 236.436 257.389 236.414C263.438 228.645 269.117 219.749 274.61 211.145C291.5 184.697 308.965 157.362 341.66 153.024C375.783 148.509 411.951 155.785 443.5 173.474C471.037 188.924 491.681 210.904 497.377 230.83C505.614 259.659 495.73 310.757 464.934 346.369C446.369 367.828 412.258 392.778 355.126 389.82C332.167 389.059 315.467 401.626 297.788 414.935C284.267 425.109 270.284 435.63 253.227 439.64C230.545 442.089 217.751 421.256 205.386 401.114C203.231 397.604 201.005 393.973 198.783 390.585C196.174 386.618 193.369 383.01 190.655 379.52C180.633 366.638 171.981 355.513 181.872 335.69Z" fill="white" fill-opacity="0.1"/>
<path d="M231.705 372.801C238.118 378.203 247.489 380.904 259.725 380.904C270.872 380.904 284.376 378.661 300.236 374.173C320.062 368.55 339.967 367.54 359.2 366.594C379.479 365.581 400.451 364.532 420.785 357.919C438.178 352.982 458.974 331.846 473.767 304.073C488.724 275.985 493.593 248.76 486.788 231.248C476.191 203.992 452.846 187.907 435.125 179.196C413.48 168.577 387.527 162.733 363.925 163.147C350.249 163.387 338.594 167.382 327.253 175.71C315.706 184.184 303.639 197.745 289.274 218.377C284.872 224.363 278.353 231.48 271.486 239.02C253.004 259.269 229.97 284.471 225.597 310.418C225.287 312.267 224.854 314.448 224.392 316.758C221.221 332.764 215.895 359.496 231.705 372.801ZM225.018 316.9C225.476 314.586 225.912 312.401 226.223 310.544C230.571 284.762 253.525 259.628 271.969 239.434C278.865 231.891 285.376 224.757 289.82 218.74C317.743 178.632 337.144 164.247 363.963 163.77C364.749 163.77 365.534 163.746 366.324 163.746C412.107 163.746 468.983 187.158 486.213 231.465C492.962 248.815 488.107 275.878 473.225 303.824C458.524 331.459 437.859 352.477 420.613 357.371C400.35 363.944 379.425 364.993 359.188 366.003C339.917 366.965 319.99 367.974 300.073 373.605C267.084 382.955 244.209 382.537 232.146 372.363C216.588 359.279 221.863 332.749 225.018 316.9Z" fill="white" fill-opacity="0.1"/>
<path d="M371.427 328.368C378.001 328.182 384.801 327.973 391.517 328.399C393.435 328.593 395.363 328.69 397.293 328.691C409.969 328.691 422.57 324.472 434.053 316.333C446.15 307.756 456.088 295.406 462.04 281.545C467.274 269.356 469.025 256.994 467.105 245.787C465.005 233.48 458.403 222.995 448.032 215.459C389.358 175.474 354.786 186.673 336.153 203.136C317.122 219.927 310.25 245.148 307.856 258.705C304.361 278.461 306.037 297.693 312.027 306.561C327.622 329.606 348.893 329.007 371.427 328.368ZM308.477 258.788C310.859 245.318 317.68 220.238 336.586 203.582C355.067 187.284 389.341 176.203 447.654 215.94C471.176 233.046 470.214 260.937 461.456 281.336C450.838 306.064 424.439 331.152 391.572 327.82C388.632 327.642 385.641 327.575 382.684 327.575C378.904 327.575 375.123 327.682 371.41 327.788C349.061 328.419 327.946 329.014 312.56 306.242C306.646 297.476 305.004 278.422 308.477 258.788Z" fill="white" fill-opacity="0.1"/>
<path d="M389.446 289.324C391.234 289.733 393.067 289.938 394.907 289.935C402.614 289.935 413.04 286.446 425.204 273.519L425.254 273.464C437.279 257.084 430.815 246.965 425.888 242.387C414.434 231.74 390.186 229.91 376.938 238.68L376.879 238.724C368.97 245.396 365.933 256.555 368.966 267.857C371.935 278.89 379.777 287.12 389.446 289.324ZM377.686 239.639C383.734 235.652 392.58 233.771 401.963 234.477C411.347 235.183 419.764 238.381 424.994 243.239C433.008 250.684 432.735 261.173 424.229 272.774C409.305 288.618 397.225 289.904 389.724 288.189C380.508 286.087 373.019 278.188 370.176 267.581C367.286 256.709 370.163 246.007 377.707 239.627L377.686 239.639Z" fill="white" fill-opacity="0.1"/>
<path d="M350.149 300.859C360.28 307.082 373.67 310.213 390.081 310.213C395.341 310.197 400.597 309.909 405.823 309.349C415.089 307.807 424.725 301.62 432.945 291.931C440.64 282.862 446.57 271.268 449.221 260.129C453.287 243.007 449.38 229.059 438.51 221.859C412.745 204.8 400.989 197.016 367.907 202.572C357.344 204.346 346.486 213.44 338.867 226.898C331.092 240.621 327.849 256.375 329.97 270.117C332.016 283.382 338.993 294.013 350.149 300.859ZM339.421 227.159C346.952 213.862 357.642 204.883 368.021 203.136C375.077 201.953 381.159 201.377 386.611 201.377C406.512 201.377 418.038 209.011 438.145 222.328C448.801 229.383 452.615 243.109 448.603 259.983C445.978 271.024 440.089 282.542 432.449 291.549C424.326 301.123 414.829 307.235 405.735 308.75C382.159 311.202 363.573 308.379 350.493 300.35C339.492 293.599 332.612 283.106 330.592 270.014C328.492 256.414 331.709 240.791 339.421 227.159Z" fill="white" fill-opacity="0.1"/>
<path d="M306.579 343.053C318.566 347.863 335.981 350.446 356.054 350.446C358.116 350.446 360.212 350.419 362.325 350.363C383.856 349.804 405.13 346.42 420.709 341.089C431.117 339.176 455.223 318.509 469.365 290.413C477.976 273.307 485.427 248.054 472.032 224.899C457.428 199.662 424.367 183.416 373.771 176.665C337.724 171.858 323.787 194.5 306.146 223.168C301.748 230.317 297.2 237.715 291.991 245.219C276.669 267.302 271.435 292.602 277.992 312.87C282.553 326.944 292.436 337.382 306.579 343.053ZM292.529 245.542C297.746 238.022 302.299 230.621 306.701 223.46C322.632 197.56 335.515 176.609 364.526 176.609C367.588 176.62 370.645 176.833 373.674 177.248C424.078 183.972 456.966 200.096 471.474 225.179C484.738 248.117 477.354 273.177 468.785 290.157C454.719 318.111 430.823 338.66 420.558 340.509H420.507C390.324 350.86 335.292 353.916 306.827 342.481C292.861 336.881 283.099 326.573 278.605 312.669C272.099 292.594 277.303 267.491 292.529 245.542Z" fill="white" fill-opacity="0.1"/>
</svg>
