<svg width="60" height="85" viewBox="0 0 60 85" fill="none" xmlns="http://www.w3.org/2000/svg">
<path d="M0.898438 64.0831H2.09349V69.5937H5.30462V70.7505H0.898438V64.0831Z" fill="white"/>
<path d="M9.25232 64.0831H13.7497V65.2398H10.4474V66.8247H13.3757V67.9815H10.4474V69.5937H13.8774V70.7505H9.25232V64.0831Z" fill="white"/>
<path d="M17.4362 67.4168C17.4362 66.9613 17.5214 66.5272 17.6917 66.1143C17.868 65.7013 18.1113 65.337 18.4215 65.0212C18.7377 64.7055 19.0996 64.4596 19.507 64.2835C19.9206 64.1013 20.3615 64.0102 20.8298 64.0102C21.2981 64.0102 21.739 64.1013 22.1526 64.2835C22.5661 64.4596 22.931 64.7055 23.2473 65.0212C23.5635 65.337 23.8098 65.7013 23.9862 66.1143C24.1686 66.5272 24.2599 66.9644 24.2599 67.4259C24.2599 67.8935 24.1686 68.3337 23.9862 68.7466C23.8098 69.1535 23.5635 69.5148 23.2473 69.8305C22.931 70.1402 22.5661 70.3831 22.1526 70.5592C21.739 70.7353 21.2981 70.8233 20.8298 70.8233C20.3676 70.8233 19.9297 70.7353 19.5162 70.5592C19.1026 70.3831 18.7377 70.1402 18.4215 69.8305C18.1113 69.5208 17.868 69.1626 17.6917 68.7557C17.5214 68.3428 17.4362 67.8965 17.4362 67.4168ZM18.6769 67.4259C18.6769 67.8388 18.7742 68.2153 18.9688 68.5553C19.1634 68.8954 19.4249 69.1656 19.7533 69.366C20.0878 69.5664 20.4619 69.6666 20.8754 69.6666C21.2768 69.6666 21.6387 69.5664 21.961 69.366C22.2894 69.1656 22.5479 68.8954 22.7364 68.5553C22.9249 68.2153 23.0192 67.8388 23.0192 67.4259C23.0192 67.0008 22.9219 66.6183 22.7273 66.2782C22.5327 65.9382 22.2712 65.6679 21.9428 65.4676C21.6204 65.2672 21.2555 65.167 20.848 65.167C20.4345 65.167 20.0635 65.2672 19.7351 65.4676C19.4128 65.6679 19.1543 65.9382 18.9597 66.2782C18.7712 66.6183 18.6769 67.0008 18.6769 67.4259Z" fill="white"/>
<path d="M30.1306 64.0831C30.9334 64.0831 31.5507 64.2804 31.9825 64.6751C32.4143 65.0698 32.6301 65.6042 32.6301 66.2782C32.6301 66.5454 32.5906 66.8156 32.5116 67.0889C32.4325 67.3561 32.3017 67.5989 32.1193 67.8175C31.9429 68.0362 31.7057 68.2122 31.4077 68.3458C31.1158 68.4794 30.757 68.5462 30.3313 68.5462H29.3734V70.7505H28.1784V64.0831H30.1306ZM30.3221 67.3803C30.5411 67.3803 30.7205 67.3439 30.8604 67.271C31.0063 67.1982 31.1189 67.104 31.1979 66.9887C31.2831 66.8733 31.3439 66.7549 31.3804 66.6334C31.4169 66.512 31.4351 66.4027 31.4351 66.3055C31.4351 66.2205 31.4199 66.1203 31.3895 66.005C31.3652 65.8835 31.3135 65.7651 31.2344 65.6497C31.1614 65.5283 31.052 65.4311 30.906 65.3583C30.7661 65.2793 30.5776 65.2398 30.3404 65.2398H29.3734V67.3803H30.3221Z" fill="white"/>
<path d="M35.0272 70.7505L38.0194 63.8098H38.0832L41.0754 70.7505H39.6888L37.6909 65.6862L38.5576 65.1032L36.2131 70.7505H35.0272ZM36.9976 68.3094H39.1323L39.5519 69.3204H36.6327L36.9976 68.3094Z" fill="white"/>
<path d="M46.6334 64.0831C47.1625 64.0831 47.6156 64.1711 47.9927 64.3472C48.3758 64.5233 48.6678 64.7753 48.8685 65.1032C49.0752 65.4311 49.1786 65.8228 49.1786 66.2782C49.1786 66.5454 49.1361 66.8126 49.0509 67.0798C48.9718 67.3469 48.8411 67.5898 48.6586 67.8084C48.4823 68.027 48.242 68.2031 47.938 68.3367C47.64 68.4703 47.272 68.5371 46.8341 68.5371H45.8763V70.7505H44.6812V64.0831H46.6334ZM46.825 67.3803C47.1169 67.3803 47.342 67.3227 47.5001 67.2073C47.6643 67.0858 47.7768 66.9431 47.8376 66.7792C47.9045 66.6152 47.938 66.4634 47.938 66.3238C47.938 66.2327 47.9228 66.1264 47.8924 66.005C47.868 65.8835 47.8163 65.7651 47.7373 65.6497C47.6643 65.5283 47.5548 65.4311 47.4089 65.3583C47.2629 65.2793 47.0744 65.2398 46.8433 65.2398H45.8763V67.3803H46.825ZM48.0201 68.1181L49.6986 70.7505H48.3029L46.5878 68.1455L48.0201 68.1181Z" fill="white"/>
<path d="M53.4271 70.7505V64.0831H55.3702C56.0392 64.0831 56.6078 64.1833 57.0761 64.3836C57.5444 64.578 57.9214 64.8421 58.2073 65.1761C58.4992 65.5101 58.7121 65.8835 58.8459 66.2964C58.9797 66.7033 59.0466 67.1132 59.0466 67.5261C59.0466 68.0179 58.9553 68.4642 58.7729 68.865C58.5965 69.2597 58.3532 69.5998 58.0431 69.8852C57.739 70.1645 57.3832 70.3801 56.9757 70.5319C56.5744 70.6776 56.1486 70.7505 55.6986 70.7505H53.4271ZM54.6221 69.5937H55.4888C55.9449 69.5937 56.3463 69.5117 56.6929 69.3478C57.0396 69.1838 57.3102 68.944 57.5049 68.6282C57.7056 68.3064 57.8059 67.9117 57.8059 67.4441C57.8059 67.013 57.7329 66.6547 57.587 66.3693C57.4471 66.0839 57.2707 65.8592 57.0579 65.6953C56.845 65.5252 56.6169 65.4068 56.3737 65.34C56.1365 65.2672 55.9175 65.2307 55.7168 65.2307H54.6221V69.5937Z" fill="white"/>
<path d="M5.78191 78.1764C5.70263 78.2454 5.59165 78.3145 5.44895 78.3835C5.30625 78.4525 5.14505 78.5162 4.96536 78.5746C4.79095 78.6277 4.61125 78.6701 4.42627 78.702C4.24129 78.7339 4.06688 78.7498 3.90304 78.7498C3.28997 78.7498 2.75881 78.6277 2.30957 78.3835C1.86033 78.134 1.51151 77.7968 1.26311 77.3721C1.02 76.9474 0.898438 76.4643 0.898438 75.9228C0.898438 75.4291 0.975072 74.9911 1.12834 74.6089C1.2869 74.2267 1.50359 73.9055 1.77841 73.6453C2.05324 73.3852 2.36506 73.1888 2.71388 73.0561C3.06799 72.918 3.44323 72.849 3.83962 72.849C4.18315 72.849 4.50026 72.8888 4.79095 72.9685C5.08163 73.0481 5.33532 73.149 5.55201 73.2711L5.27454 74.0435C5.16883 73.9798 5.03671 73.9214 4.87815 73.8683C4.72488 73.8099 4.56369 73.7648 4.39456 73.7329C4.23072 73.7011 4.08009 73.6852 3.94268 73.6852C3.49873 73.6852 3.11291 73.7728 2.78523 73.9479C2.45755 74.1231 2.20387 74.3727 2.02417 74.6965C1.84448 75.0203 1.75463 75.4052 1.75463 75.8512C1.75463 76.2599 1.84448 76.6209 2.02417 76.9342C2.20915 77.2421 2.46284 77.4836 2.78523 77.6588C3.11291 77.834 3.4908 77.9216 3.9189 77.9216C4.10916 77.9216 4.29414 77.903 4.47384 77.8659C4.65882 77.8287 4.81473 77.773 4.94157 77.6986V76.6316H3.82377V75.8273H5.78191V78.1764Z" fill="#828282"/>
<path d="M9.44396 72.9127H10.2684V77.8818H13.1541V78.6861H9.44396V72.9127Z" fill="#828282"/>
<path d="M16.024 78.6861L18.5529 72.6738H18.6005L21.1294 78.6861H20.1702L18.3309 73.9798L18.9255 73.5896L16.8484 78.6861H16.024ZM17.554 76.5201H19.6152L19.9006 77.2368H17.3083L17.554 76.5201Z" fill="#828282"/>
<path d="M24.3893 78.6861V72.7216H24.3972L27.4414 77.0616L27.0847 76.9899L30.121 72.7216H30.1368V78.6861H29.3124V74.6089L29.3599 75.0309L27.2353 78.0649H27.2194L25.0473 75.0309L25.19 74.6407V78.6861H24.3893Z" fill="#828282"/>
<path d="M35.549 72.9127C36.1832 72.9127 36.68 73.072 37.0394 73.3905C37.3988 73.709 37.5785 74.155 37.5785 74.7283C37.5785 74.9566 37.5441 75.1822 37.4754 75.4052C37.4067 75.6282 37.2957 75.8326 37.1425 76.0184C36.9945 76.1989 36.7963 76.3449 36.5479 76.4564C36.3048 76.5625 36.0062 76.6156 35.6521 76.6156H34.8038V78.6861H33.9793V72.9127H35.549ZM35.6441 75.8034C35.8608 75.8034 36.0405 75.7689 36.1832 75.6999C36.3312 75.6255 36.4448 75.5326 36.5241 75.4211C36.6087 75.3097 36.6668 75.1929 36.6985 75.0708C36.7355 74.9487 36.754 74.8398 36.754 74.7443C36.754 74.6381 36.7355 74.5266 36.6985 74.4098C36.6668 74.2877 36.6087 74.1762 36.5241 74.0754C36.4448 73.9692 36.3365 73.8842 36.1991 73.8205C36.0617 73.7515 35.8899 73.717 35.6838 73.717H34.8038V75.8034H35.6441Z" fill="#828282"/>
<path d="M40.9681 72.9127H41.7926V78.6861H40.9681V72.9127Z" fill="#828282"/>
<path d="M50.6444 78.8852L46.2128 74.4417L46.4586 74.5213L46.4744 78.6861H45.642V72.7296H45.6737L50.0498 77.1731L49.8596 77.1253L49.8437 72.9127H50.6682V78.8852H50.6444Z" fill="#828282"/>
<path d="M59.0466 78.1764C58.9673 78.2454 58.8563 78.3145 58.7136 78.3835C58.5709 78.4525 58.4097 78.5162 58.23 78.5746C58.0556 78.6277 57.8759 78.6701 57.6909 78.702C57.5059 78.7339 57.3315 78.7498 57.1677 78.7498C56.5546 78.7498 56.0235 78.6277 55.5742 78.3835C55.125 78.134 54.7762 77.7968 54.5278 77.3721C54.2846 76.9474 54.1631 76.4643 54.1631 75.9228C54.1631 75.4291 54.2397 74.9911 54.393 74.6089C54.5515 74.2267 54.7682 73.9055 55.0431 73.6453C55.3179 73.3852 55.6297 73.1888 55.9785 73.0561C56.3326 72.918 56.7079 72.849 57.1043 72.849C57.4478 72.849 57.7649 72.8888 58.0556 72.9685C58.3463 73.0481 58.6 73.149 58.8167 73.2711L58.5392 74.0435C58.4335 73.9798 58.3014 73.9214 58.1428 73.8683C57.9895 73.8099 57.8283 73.7648 57.6592 73.7329C57.4954 73.7011 57.3447 73.6852 57.2073 73.6852C56.7634 73.6852 56.3776 73.7728 56.0499 73.9479C55.7222 74.1231 55.4685 74.3727 55.2888 74.6965C55.1091 75.0203 55.0193 75.4052 55.0193 75.8512C55.0193 76.2599 55.1091 76.6209 55.2888 76.9342C55.4738 77.2421 55.7275 77.4836 56.0499 77.6588C56.3776 77.834 56.7554 77.9216 57.1835 77.9216C57.3738 77.9216 57.5588 77.903 57.7385 77.8659C57.9235 77.8287 58.0794 77.773 58.2062 77.6986V76.6316H57.0884V75.8273H59.0466V78.1764Z" fill="#828282"/>
<path d="M34.9568 85.0003H33.4578C33.3937 85.0003 33.3616 84.9682 33.3616 84.904V82.149C33.3616 82.0848 33.3937 82.0527 33.4578 82.0527H34.9568C35.0179 82.0527 35.0485 82.0848 35.0485 82.149V82.4607C35.0485 82.5249 35.0179 82.557 34.9568 82.557H33.9987C33.9621 82.557 33.9437 82.5738 33.9437 82.6074V83.2033C33.9437 83.2369 33.9621 83.2537 33.9987 83.2537H34.7826C34.8468 83.2537 34.8789 83.2858 34.8789 83.35V83.6617C34.8789 83.7259 34.8468 83.758 34.7826 83.758H33.9987C33.9621 83.758 33.9437 83.7748 33.9437 83.8084V84.4456C33.9437 84.4792 33.9621 84.496 33.9987 84.496H34.9568C35.0179 84.496 35.0485 84.5281 35.0485 84.5923V84.904C35.0485 84.9682 35.0179 85.0003 34.9568 85.0003Z" fill="white"/>
<path d="M36.8569 84.2485V84.1568C36.8569 84.0926 36.889 84.0605 36.9532 84.0605H37.3429C37.407 84.0605 37.4391 84.0926 37.4391 84.1568V84.1935C37.4391 84.3096 37.462 84.389 37.5079 84.4318C37.5537 84.4746 37.6378 84.496 37.76 84.496H37.9754C38.0946 84.496 38.1771 84.4731 38.223 84.4272C38.2719 84.3814 38.2963 84.2958 38.2963 84.1705V84.1155C38.2963 84.0269 38.2597 83.9597 38.1863 83.9138C38.116 83.8649 38.0274 83.8359 37.9204 83.8267C37.8135 83.8176 37.6974 83.8008 37.5721 83.7763C37.4498 83.7488 37.3352 83.7152 37.2283 83.6755C37.1213 83.6327 37.0311 83.5517 36.9578 83.4325C36.8875 83.3103 36.8524 83.1544 36.8524 82.965V82.8045C36.8524 82.5661 36.9196 82.3813 37.0541 82.2498C37.1885 82.1184 37.3749 82.0527 37.6133 82.0527H38.0717C38.3131 82.0527 38.5011 82.1184 38.6355 82.2498C38.77 82.3813 38.8372 82.5661 38.8372 82.8045V82.8916C38.8372 82.9558 38.8052 82.9879 38.741 82.9879H38.3513C38.2872 82.9879 38.2551 82.9558 38.2551 82.8916V82.8641C38.2551 82.7449 38.2322 82.6639 38.1863 82.6212C38.1405 82.5784 38.0564 82.557 37.9342 82.557H37.7554C37.6301 82.557 37.5445 82.5814 37.4987 82.6303C37.4559 82.6762 37.4345 82.7678 37.4345 82.9054V82.9925C37.4345 83.1361 37.5598 83.2186 37.8104 83.24C38.0702 83.2614 38.3009 83.3133 38.5026 83.3958C38.6096 83.4417 38.6982 83.5242 38.7685 83.6434C38.8418 83.7595 38.8785 83.9093 38.8785 84.0926V84.2485C38.8785 84.4868 38.8113 84.6717 38.6768 84.8031C38.5423 84.9345 38.3559 85.0003 38.1176 85.0003H37.6179C37.3795 85.0003 37.1931 84.9345 37.0586 84.8031C36.9242 84.6717 36.8569 84.4868 36.8569 84.2485Z" fill="white"/>
<path d="M41.6888 85.0003H41.3037C41.2365 85.0003 41.2029 84.9682 41.2029 84.904V82.6074C41.2029 82.5738 41.1861 82.557 41.1524 82.557H40.6299C40.5657 82.557 40.5336 82.5249 40.5336 82.4607V82.149C40.5336 82.0848 40.5657 82.0527 40.6299 82.0527H42.3626C42.4268 82.0527 42.4589 82.0848 42.4589 82.149V82.4607C42.4589 82.5249 42.4268 82.557 42.3626 82.557H41.8401C41.8034 82.557 41.785 82.5738 41.785 82.6074V84.904C41.785 84.9682 41.753 85.0003 41.6888 85.0003Z" fill="white"/>
<path d="M44.6471 84.3402V84.904C44.6471 84.9682 44.6181 85.0003 44.56 85.0003H44.152C44.0909 85.0003 44.0604 84.9682 44.0604 84.904V84.3447C44.0604 84.2836 44.0909 84.2531 44.152 84.2531H44.56C44.6181 84.2531 44.6471 84.2821 44.6471 84.3402Z" fill="white"/>
<path d="M46.616 84.904V84.4685C46.616 84.2943 46.6909 84.1461 46.8406 84.0239L47.6841 83.3088C47.8216 83.1957 47.8903 83.0734 47.8903 82.942V82.8045C47.8903 82.7098 47.8674 82.6425 47.8216 82.6028C47.7788 82.56 47.707 82.5386 47.6061 82.5386H47.4457C47.3479 82.5386 47.2791 82.56 47.2394 82.6028C47.1997 82.6425 47.1798 82.7098 47.1798 82.8045V82.9512C47.1798 83.0184 47.1477 83.052 47.0836 83.052H46.6939C46.6297 83.052 46.5977 83.0184 46.5977 82.9512V82.7953C46.5977 82.557 46.6634 82.3736 46.7948 82.2453C46.9262 82.1169 47.1126 82.0527 47.354 82.0527H47.7024C47.9438 82.0527 48.1302 82.1169 48.2617 82.2453C48.3931 82.3736 48.4588 82.557 48.4588 82.7953V82.9787C48.4588 83.2171 48.3671 83.4142 48.1837 83.57L47.3219 84.3035C47.2853 84.3371 47.2669 84.3738 47.2669 84.4135V84.4868H48.3625C48.4267 84.4868 48.4588 84.5189 48.4588 84.5831V84.904C48.4588 84.9682 48.4267 85.0003 48.3625 85.0003H46.7123C46.6481 85.0003 46.616 84.9682 46.616 84.904Z" fill="white"/>
<path d="M51.132 84.496H51.4024C51.5002 84.496 51.569 84.4761 51.6087 84.4364C51.6485 84.3936 51.6683 84.3233 51.6683 84.2256V82.8274C51.6683 82.7296 51.6485 82.6609 51.6087 82.6212C51.569 82.5784 51.5002 82.557 51.4024 82.557H51.132C51.0342 82.557 50.9654 82.5784 50.9257 82.6212C50.886 82.6609 50.8661 82.7296 50.8661 82.8274V84.2256C50.8661 84.3233 50.886 84.3936 50.9257 84.4364C50.9654 84.4761 51.0342 84.496 51.132 84.496ZM51.4941 85.0003H51.0357C50.7943 85.0003 50.6079 84.9361 50.4765 84.8077C50.3451 84.6794 50.2794 84.4945 50.2794 84.2531V82.7999C50.2794 82.5585 50.3451 82.3736 50.4765 82.2453C50.6079 82.1169 50.7943 82.0527 51.0357 82.0527H51.4941C51.7325 82.0527 51.9174 82.1184 52.0488 82.2498C52.1802 82.3782 52.2459 82.5616 52.2459 82.7999V84.2531C52.2459 84.4914 52.1802 84.6763 52.0488 84.8077C51.9174 84.9361 51.7325 85.0003 51.4941 85.0003Z" fill="white"/>
<path d="M54.0847 84.904V84.4685C54.0847 84.2943 54.1596 84.1461 54.3093 84.0239L55.1528 83.3088C55.2903 83.1957 55.3591 83.0734 55.3591 82.942V82.8045C55.3591 82.7098 55.3361 82.6425 55.2903 82.6028C55.2475 82.56 55.1757 82.5386 55.0748 82.5386H54.9144C54.8166 82.5386 54.7479 82.56 54.7081 82.6028C54.6684 82.6425 54.6485 82.7098 54.6485 82.8045V82.9512C54.6485 83.0184 54.6164 83.052 54.5523 83.052H54.1626C54.0985 83.052 54.0664 83.0184 54.0664 82.9512V82.7953C54.0664 82.557 54.1321 82.3736 54.2635 82.2453C54.3949 82.1169 54.5813 82.0527 54.8227 82.0527H55.1711C55.4125 82.0527 55.599 82.1169 55.7304 82.2453C55.8618 82.3736 55.9275 82.557 55.9275 82.7953V82.9787C55.9275 83.2171 55.8358 83.4142 55.6524 83.57L54.7906 84.3035C54.754 84.3371 54.7356 84.3738 54.7356 84.4135V84.4868H55.8312C55.8954 84.4868 55.9275 84.5189 55.9275 84.5831V84.904C55.9275 84.9682 55.8954 85.0003 55.8312 85.0003H54.181C54.1168 85.0003 54.0847 84.9682 54.0847 84.904Z" fill="white"/>
<path d="M57.6106 82.8733V82.4974C57.6106 82.4454 57.6335 82.4057 57.6793 82.3782L58.0965 82.1169C58.1667 82.0741 58.2263 82.0527 58.2752 82.0527H58.642C58.7061 82.0527 58.7382 82.0848 58.7382 82.149V84.904C58.7382 84.9407 58.7306 84.9666 58.7153 84.9819C58.7031 84.9941 58.6802 85.0003 58.6465 85.0003H58.2523C58.1881 85.0003 58.1561 84.9682 58.1561 84.904V82.6716L57.7068 82.9283C57.6426 82.9558 57.6106 82.9374 57.6106 82.8733Z" fill="white"/>
<path d="M0.437256 28.5273C0.437256 26.153 1.48903 23.9007 3.30951 22.3765L24.1703 4.9109C27.2609 2.32332 31.7618 2.32332 34.8523 4.9109L55.7131 22.3765C57.5336 23.9007 58.5854 26.153 58.5854 28.5273V55.3785C58.5854 57.1506 57.1487 58.5873 55.3766 58.5873H3.64606C1.87389 58.5873 0.437256 57.1506 0.437256 55.3785V28.5273Z" fill="#9F6938"/>
<mask id="mask0_6_1335" style="mask-type:alpha" maskUnits="userSpaceOnUse" x="0" y="0" width="59" height="59">
<path d="M0.233887 3.20881C0.233887 1.43663 1.67052 0 3.44269 0H55.6087C57.3809 0 58.8175 1.43663 58.8175 3.2088V55.3748C58.8175 57.147 57.3809 58.5836 55.6087 58.5836H3.44269C1.67052 58.5836 0.233887 57.147 0.233887 55.3748V3.20881Z" fill="#C4C4C4"/>
</mask>
<g mask="url(#mask0_6_1335)">
<path d="M51.4252 71.8888C51.4252 71.8888 49.6509 76.4301 50.5023 84.3053C46.3876 76.1457 46.0325 71.3209 45.4646 63.5163C44.8968 55.7117 38.1547 54.576 36.028 56.1374C37.8729 43.7907 34.3959 42.4421 33.6867 37.2632C28.7197 41.9466 23.9656 37.3338 23.9656 37.3338C23.9656 37.3338 20.9858 39.2529 18.9987 42.0879C18.1351 43.3223 17.0831 43.6171 16.1724 43.5543C16.2212 43.9704 16.1977 44.4702 16.7071 44.677C18.3183 45.3312 22.1948 44.1231 24.8632 40.6495C27.0763 40.5012 30.8647 42.6654 32.8205 38.7566C32.776 41.8786 33.7573 43.4671 33.1537 45.8808C33.0028 44.8488 32.2727 43.5901 31.3297 43.1339C32.817 46.4827 32.011 48.455 32.011 48.455C32.011 48.455 30.5655 42.573 29.8066 47.5216C29.0477 52.4702 34.5651 66.3636 34.5651 66.3636L37.8057 74.1725C37.8057 74.1725 39.5181 64.2744 42.374 64.4654C37.5763 81.001 45.1367 90.7849 49.8245 98.0608C53.346 104.721 53.9313 109.739 52.6577 117.994C52.6484 118.196 52.6348 118.396 52.6167 118.596C55.9062 106.852 57.9379 102.673 58.4351 97.0777C58.1914 97.5837 57.9376 98.1047 57.6735 98.6409C59.3004 87.9952 51.4252 71.8888 51.4252 71.8888Z" fill="#FFED90"/>
<path d="M58.2178 74.7571C56.8299 69.3139 53.9173 64.702 50.7159 61.067C50.2059 60.801 49.7237 60.4849 49.2765 60.1232C48.9137 59.8388 48.9102 59.5527 49.1082 59.3381C47.3282 57.5294 45.3887 55.8848 43.3134 54.4244C42.9523 55.0978 41.8898 55.445 41.4362 54.3188C41.1684 53.6541 40.9555 53.1769 40.8378 52.8533C40.2774 52.53 39.697 52.2427 39.1001 51.9932C39.1001 51.9932 40.5272 48.1768 40.652 44.9449C40.7158 43.5943 40.6024 42.2412 40.3144 40.9201C39.6165 40.6584 39.0775 39.6666 39.9716 39.7198C39.7004 38.9162 39.3109 38.1577 38.8158 37.4692C38.5427 37.8042 37.12 36.8586 36.8967 36.5742C36.8477 36.5199 36.8104 36.4561 36.7871 36.3868C36.7639 36.3174 36.7552 36.244 36.7616 36.1712C36.768 36.0983 36.7893 36.0276 36.8242 35.9634C36.8592 35.8991 36.907 35.8428 36.9647 35.7978C36.2959 35.4238 35.5493 35.2103 34.7839 35.1741C34.6862 35.7848 34.2972 35.667 33.9413 35.1959C33.4783 35.2448 33.022 35.344 32.5805 35.4917C27.9275 37.0261 27.2838 32.2248 24.6607 32.8677C22.0377 33.5106 18.7211 37.1246 18.7211 37.1246C19.5551 35.8275 20.5168 34.617 21.5919 33.5115C19.2166 35.2439 16.0484 37.7684 15.5041 39.9954C15.1944 41.262 14.213 41.5359 13.4236 41.5368C14.2671 42.0663 14.3404 42.9927 15.3968 42.9116C16.0205 42.8636 16.126 43.1732 16.1705 43.551C17.0829 43.612 18.1349 43.3172 18.9985 42.0829C20.9857 39.2452 23.9655 37.3287 23.9655 37.3287C23.9655 37.3287 28.7196 41.9415 33.6866 37.2581C34.3957 42.4379 37.8737 43.7856 36.0278 56.1323C38.1563 54.5709 44.8967 55.7058 45.4645 63.5112C46.0324 71.3167 46.3874 76.1406 50.5021 84.3002C49.6508 76.425 51.4251 71.8837 51.4251 71.8837C51.4251 71.8837 59.3003 87.9901 57.6691 98.6332C57.9331 98.097 58.1869 97.576 58.4306 97.07C61.5343 90.6088 62.8794 86.5229 63.0181 82.6934C60.8687 80.8249 59.063 78.0675 58.2178 74.7571Z" fill="#FFD961"/>
<path d="M52.9905 51.9432C44.8082 51.432 43.2834 51.3727 43.2834 51.3727C43.2834 51.3727 46.4385 48.8595 52.1348 48.3745C51.1351 45.0911 46.1385 34.2431 40.9997 30.1013C40.2852 32.6712 37.8593 34.0267 37.8593 34.0267C37.8593 34.0267 40.4963 27.6745 38.4979 24.8195C36.4994 21.9644 32.1422 26.8895 32.1422 26.8895C32.1422 26.8895 32.2137 24.2839 32.5705 23.4272C29.0019 23.9236 16.8697 26.1759 17.5833 30.6012C15.8701 32.8142 12.6582 37.454 12.6582 37.454C12.6582 37.454 14.7282 37.0257 14.7997 37.8815C14.8713 38.7372 12.6582 41.2364 12.6582 41.2364C12.9332 41.286 13.1964 41.3872 13.4337 41.5347C14.2188 41.5347 15.2045 41.26 15.5142 39.9934C16.0585 37.7663 19.2267 35.2419 21.602 33.5094C20.5269 34.615 19.5652 35.8254 18.7313 37.1226C18.7313 37.1226 22.046 33.5094 24.6708 32.8657C27.2956 32.2219 27.9376 37.024 32.5906 35.4896C33.0321 35.3419 33.4884 35.2428 33.9514 35.1939C33.7665 34.9409 33.6196 34.6623 33.5152 34.3669C33.004 32.9712 32.0323 33.1029 31.9285 32.4845C31.7593 31.5127 34.1093 30.6823 34.6719 33.5871C34.8193 34.3451 34.8464 34.8554 34.7949 35.1721C35.5603 35.2083 36.3069 35.4218 36.9757 35.7958C37.3307 35.5088 38.0765 35.5716 38.6558 36.6803C38.8852 37.1165 38.9175 37.3598 38.8302 37.4654C39.3253 38.1539 39.7149 38.9124 39.986 39.716C40.1008 39.7242 40.2147 39.7426 40.3262 39.7709C41.8598 40.1478 42.7199 41.0087 40.649 40.9817C40.5393 40.9787 40.4309 40.9566 40.3289 40.9163C40.6146 42.2394 40.7255 43.5943 40.6586 44.9463C40.5339 48.1818 39.1067 51.9999 39.1067 51.9999C39.7036 52.2494 40.284 52.5367 40.8444 52.86C40.5391 52.0208 40.8679 52.2206 42.5184 52.9001C43.4779 53.2935 43.5791 53.9469 43.32 54.431C45.3951 55.8898 47.3346 57.5326 49.1148 59.3395C49.551 58.8755 50.9563 58.7664 51.6907 59.8158C52.5325 61.0179 52.1915 61.7933 50.726 61.0667C53.9239 64.7016 56.8365 69.3136 58.2279 74.7568C59.0731 78.0716 60.8788 80.8246 63.0256 82.6948C68.1722 87.1654 75.2894 86.54 75.9358 76.1909C76.2176 71.6845 75.5729 68.1656 74.3971 65.3393C66.1729 55.517 56.833 52.1866 52.9905 51.9432ZM36.9295 26.025C38.0495 26.5972 36.3808 32.2132 36.3808 32.2132C36.3808 32.2132 36.3084 28.3026 34.0508 28.8801C34.0508 28.8801 35.8059 25.4519 36.9295 26.025ZM21.2496 31.4255L17.4001 35.1677C17.4001 35.1677 18.637 32.9791 19.9699 31.0757C22.0635 28.0304 25.6801 29.2674 25.6801 29.2674C25.6801 29.2674 25.1087 30.5043 24.3481 31.0757C23.4923 31.9323 21.2496 31.4255 21.2496 31.4255ZM48.0645 44.3471C48.1971 43.22 49.0328 42.8947 49.7045 44.5084C50.3762 46.1222 49.8127 47.0382 49.1671 46.5523C48.5216 46.0664 48.0105 44.8024 48.0645 44.3453V44.3471ZM46.9576 47.6148C47.0378 48.4749 43.4613 50.5187 43.4884 49.5504C43.5154 48.5821 43.8643 48.8526 43.9987 48.3405C44.475 46.5296 46.8764 46.752 46.9576 47.613V47.6148ZM43.5189 41.6316C43.0627 40.4574 45.5627 40.0448 46.1821 42.9226C46.8014 45.8003 44.0842 43.0813 43.5189 41.6316ZM44.5657 37.4628C45.3185 37.4628 46.1795 38.1353 45.6953 38.5383C45.2112 38.9413 44.5116 38.8611 44.1618 38.5654C43.0627 37.6303 43.8146 37.4602 44.5683 37.4602L44.5657 37.4628ZM42.548 34.0738C43.7588 36.8713 41.0154 34.8005 40.7467 34.585C39.9494 33.9421 41.3407 31.2746 42.5506 34.0712L42.548 34.0738ZM41.476 38.7241C39.392 37.4418 40.239 35.658 41.476 37.0563C42.7129 38.4546 41.8249 38.9396 41.476 38.7241ZM40.8139 46.0585C39.8683 44.8373 42.7495 44.6873 43.1805 45.386C43.6114 46.0847 42.3997 48.1024 40.813 46.0585H40.8139ZM64.0689 57.5635C66.3997 59.4355 62.8075 58.6329 61.7372 58.366C60.5857 58.0773 61.7398 55.6906 64.0689 57.5635ZM62.4115 63.4664C61.4633 62.5671 63.1538 60.716 64.6446 63.1777C66.1354 65.6394 63.6702 64.6702 62.4115 63.4664ZM58.1057 58.1645C57.9225 59.9911 56.0506 61.4523 55.4112 57.7074C55.043 55.5685 58.2854 56.337 58.1031 58.1645H58.1057ZM53.0611 52.9411C54.2414 52.976 55.4705 52.8364 55.733 53.57C55.9956 54.3037 53.9256 55.0626 53.0611 54.6168C52.1967 54.1711 52.1679 52.9149 53.0585 52.9411H53.0611ZM46.8241 54.5418C46.3007 53.2516 47.4792 52.4718 48.3437 53.5194C49.2081 54.5671 50.6222 55.1175 50.2296 55.5109C49.8371 55.9043 47.2166 55.5083 46.8241 54.5418ZM55.0151 64.3292C54.7238 62.54 56.0471 61.9791 58.3971 64.2716C60.7471 66.564 55.4164 66.7908 55.0151 64.3265V64.3292ZM58.1101 71.1498C57.9705 68.9123 62.0652 67.7678 61.1484 70.5767C60.2316 73.3855 58.2244 72.9816 58.1101 71.1472V71.1498ZM62.6383 78.6011C60.6956 75.5986 64.8191 73.9586 65.619 76.5372C66.4189 79.1157 63.8988 80.5472 62.6383 78.5985V78.6011ZM68.8858 71.3774C66.3064 72.3518 64.7589 70.9762 65.9051 68.798C66.6858 67.316 71.4652 70.4022 68.8858 71.3774ZM69.8026 82.3817C68.6302 79.5423 71.8089 77.4531 72.0383 80.3187C72.2677 83.1842 70.8921 85.0178 69.8026 82.3808V82.3817ZM70.5475 65.7606C68.9416 63.4848 71.064 61.003 72.6114 65.5312C74.1589 70.0594 71.2358 66.7341 70.5475 65.7597V65.7606ZM75.1909 74.3581C74.3883 78.4842 73.0101 76.0199 72.8976 75.2174C72.5731 72.9476 75.9925 70.2304 75.1909 74.3573V74.3581Z" fill="#FFC52E"/>
<path d="M25.6798 29.2748C25.6798 29.2748 22.0632 28.0379 19.9696 31.084C18.6367 32.9865 17.3989 35.1751 17.3989 35.1751L21.2484 31.4329C21.2484 31.4329 23.4912 31.9415 24.3478 31.084C25.1084 30.5118 25.6798 29.2748 25.6798 29.2748Z" fill="#262626"/>
<g filter="url(#filter0_i_6_1335)">
<path d="M49.8229 98.0583C45.136 90.7824 37.5765 80.9985 42.3725 64.4629C39.5165 64.2719 37.8085 74.1727 37.8085 74.1727L34.5723 66.3689C34.5723 66.3689 29.0523 52.4739 29.8138 47.527C30.5753 42.5801 32.0181 48.4603 32.0181 48.4603C32.0181 48.4603 32.8241 46.4854 31.3368 43.1392C32.2798 43.5954 33.0099 44.8542 33.1609 45.8861C33.7645 43.4698 32.7831 41.884 32.8276 38.762C30.8719 42.6734 27.0843 40.5066 24.8686 40.6592C22.2002 44.1328 18.3263 45.3409 16.7125 44.6867C16.2031 44.48 16.2266 43.9801 16.1778 43.564C16.1333 43.1855 16.0277 42.8767 15.404 42.9246C14.3512 43.0058 14.27 42.0776 13.4344 41.5464C13.197 41.3988 12.9339 41.2976 12.6589 41.248C12.6589 41.248 14.8667 38.7419 14.796 37.8844C14.7254 37.0269 12.6545 37.457 12.6545 37.457C12.6545 37.457 15.8664 32.8171 17.5796 30.6041C16.866 26.1797 28.9982 23.9274 32.5694 23.431C32.2126 24.2877 32.1385 26.8933 32.1385 26.8933C32.1385 26.8933 36.4922 21.9682 38.4916 24.8233C40.4909 27.6783 37.8487 34.0314 37.8487 34.0314C37.8487 34.0314 40.2754 32.675 40.989 30.106C46.1278 34.246 51.1244 45.0958 52.1241 48.3792C46.4279 48.8642 43.2727 51.3774 43.2727 51.3774C43.2727 51.3774 44.7975 51.4367 52.9798 51.9478C56.8258 52.1886 66.1657 55.5243 74.3899 65.344C76.0326 67.3114 77.5272 69.3978 78.8614 71.5862C66.5844 47.0315 57.7863 50.6158 55.1213 44.2392C52.4564 37.8626 44.9414 28.3919 41.8011 26.4885C42.0829 19.6365 36.1738 19.5772 33.0335 21.0043C32.7474 21.0043 26.6656 20.9685 20.3849 23.158C14.1043 25.3475 14.5788 31.0568 14.5788 31.0568L9.63281 38.5762C9.63281 38.5762 10.8698 41.1695 11.7264 41.5263C11.7264 42.8819 12.5114 44.0246 12.9398 44.0246C13.0828 44.9519 13.7248 48.1646 18.2931 47.308C22.8614 46.4514 25.2891 42.5251 25.5028 47.5933C25.7165 52.6614 30.9513 68.8402 34.3777 76.6413C37.8042 84.4424 32.8547 86.1582 45.9882 105.003C46.2246 105.352 46.4514 105.736 46.6695 106.137C48.5136 108.744 51.0747 113.891 51.7682 122.917C52.1232 121.143 52.4215 119.515 52.6562 117.988C53.9298 109.737 53.3444 104.718 49.8229 98.0583Z" fill="#262626"/>
</g>
<path d="M36.3778 32.2163C36.3778 32.2163 38.0465 26.6003 36.9265 26.0281C35.8064 25.4558 34.0479 28.8831 34.0479 28.8831C36.3054 28.3083 36.3778 32.2163 36.3778 32.2163Z" fill="#262626"/>
<path d="M34.7926 35.1824C34.8432 34.8657 34.817 34.3554 34.6696 33.5974C34.1044 30.6926 31.757 31.523 31.9262 32.4948C32.0335 33.1133 33.0018 32.9789 33.5129 34.3772C33.6173 34.6726 33.7642 34.9512 33.9491 35.2042C34.3059 35.6709 34.6949 35.793 34.7926 35.1824Z" fill="#262626"/>
<path d="M36.8977 36.5781C37.121 36.8634 38.5437 37.8081 38.8167 37.4731C38.904 37.3658 38.8752 37.1242 38.6423 36.6881C38.0631 35.5793 37.3172 35.5165 36.9622 35.8035C36.905 35.8487 36.8577 35.9052 36.8233 35.9694C36.7888 36.0336 36.7679 36.1042 36.7618 36.1768C36.7558 36.2495 36.7647 36.3226 36.7881 36.3916C36.8114 36.4606 36.8487 36.5241 36.8977 36.5781V36.5781Z" fill="#262626"/>
<path d="M40.7501 34.5815C41.0188 34.7969 43.7622 36.8678 42.5515 34.0703C41.3407 31.2728 39.9502 33.9412 40.7501 34.5815Z" fill="#262626"/>
<path d="M41.4747 37.0617C40.2378 35.666 39.3907 37.4473 41.4747 38.7296C41.8236 38.945 42.7108 38.4609 41.4747 37.0617Z" fill="#262626"/>
<path d="M44.1591 38.5684C44.5081 38.8641 45.2059 38.9453 45.6927 38.5414C46.1794 38.1375 45.3158 37.4658 44.563 37.4658C43.8102 37.4658 43.0574 37.6359 44.1591 38.5684Z" fill="#262626"/>
<path d="M40.3201 40.9189C40.4221 40.9593 40.5305 40.9814 40.6402 40.9844C42.7111 41.0114 41.851 40.1504 40.3174 39.7736C40.2059 39.7452 40.092 39.7268 39.9772 39.7186C39.0831 39.6654 39.6213 40.6529 40.3201 40.9189Z" fill="#262626"/>
<path d="M43.5116 41.6335C44.0768 43.0859 46.7932 45.8023 46.1747 42.9246C45.5563 40.0468 43.0553 40.4568 43.5116 41.6335Z" fill="#262626"/>
<path d="M49.1656 46.55C49.8111 47.0341 50.3755 46.1199 49.703 44.5061C49.0304 42.8924 48.1956 43.2177 48.063 44.3448C48.0089 44.8019 48.5201 46.0658 49.1656 46.55Z" fill="#262626"/>
<path d="M43.9943 48.3487C43.86 48.8599 43.5102 48.5912 43.484 49.5586C43.4579 50.526 47.0335 48.483 46.9532 47.6229C46.873 46.7628 44.4706 46.5395 43.9943 48.3487Z" fill="#262626"/>
<path d="M40.8045 46.0631C42.3913 48.1069 43.6012 46.0901 43.1711 45.3906C42.7411 44.691 39.859 44.8454 40.8045 46.0631Z" fill="#262626"/>
<path d="M43.3129 54.4309C43.5746 53.9459 43.4673 53.2969 42.5112 52.9C40.8608 52.2204 40.5319 52.0207 40.8373 52.8599C40.955 53.1835 41.1679 53.6606 41.4357 54.3253C41.8893 55.4515 42.9517 55.1043 43.3129 54.4309Z" fill="#262626"/>
<path d="M53.0522 54.6193C53.9167 55.0641 55.9858 54.3044 55.7241 53.5725C55.4624 52.8406 54.2325 52.9784 53.0522 52.9435C52.1616 52.9165 52.1878 54.1735 53.0522 54.6193Z" fill="#262626"/>
<path d="M50.2286 55.5149C50.6211 55.1215 49.2062 54.5719 48.3426 53.5234C47.479 52.4749 46.2997 53.2556 46.8231 54.5457C47.2156 55.5149 49.8352 55.9074 50.2286 55.5149Z" fill="#262626"/>
<path d="M55.402 57.7139C56.0414 61.4588 57.9134 59.9977 58.0966 58.171C58.2798 56.3444 55.0365 55.575 55.402 57.7139Z" fill="#262626"/>
<path d="M30.1415 23.5254C30.1415 23.5254 23.5215 26.0211 21.8911 27.4509C27.9005 25.2613 32.7898 24.9046 32.7898 24.9046L33.0951 23.3257L30.1415 23.5254Z" fill="#262626"/>
</g>
<defs>
<filter id="filter0_i_6_1335" x="9.63281" y="20.2637" width="69.2285" height="127.653" filterUnits="userSpaceOnUse" color-interpolation-filters="sRGB">
<feFlood flood-opacity="0" result="BackgroundImageFix"/>
<feBlend mode="normal" in="SourceGraphic" in2="BackgroundImageFix" result="shape"/>
<feColorMatrix in="SourceAlpha" type="matrix" values="0 0 0 0 0 0 0 0 0 0 0 0 0 0 0 0 0 0 127 0" result="hardAlpha"/>
<feOffset dy="25"/>
<feGaussianBlur stdDeviation="25"/>
<feComposite in2="hardAlpha" operator="arithmetic" k2="-1" k3="1"/>
<feColorMatrix type="matrix" values="0 0 0 0 0 0 0 0 0 0 0 0 0 0 0 0 0 0 0.25 0"/>
<feBlend mode="normal" in2="shape" result="effect1_innerShadow_6_1335"/>
</filter>
</defs>
</svg>
