<svg width="1513" height="445" viewBox="0 0 1513 445" fill="none" xmlns="http://www.w3.org/2000/svg">
<rect width="1440" height="362.295" transform="translate(50 45)" fill="#0A0A0A"/>
<path d="M1500.67 444.277H1501.41C1504.97 438.693 1508.54 433.183 1512.1 427.747V426.623C1508.29 432.427 1504.48 438.312 1500.67 444.277Z" fill="white" fill-opacity="0.1"/>
<path d="M1512.1 393.491V392.43C1511.35 393.482 1510.6 394.533 1509.85 395.585C1497.55 412.801 1487.1 427.431 1476.67 444.277H1477.4C1487.75 427.565 1498.13 413.018 1510.35 395.916L1512.1 393.491Z" fill="white" fill-opacity="0.1"/>
<path d="M1512.1 365.841V364.788C1506.11 373.069 1500.08 381.322 1494.11 389.489C1480.87 407.596 1467.27 426.193 1454.74 444.277H1455.49C1467.95 426.303 1481.47 407.821 1494.63 389.824C1500.42 381.894 1506.29 373.873 1512.1 365.841Z" fill="white" fill-opacity="0.1"/>
<path d="M382.083 419.805C400.405 414.284 417.71 409.079 428.358 402.095C452.228 385.462 473.217 362.343 489.039 335.24C503.152 311.076 512.397 284.979 515.081 261.765C517.181 243.704 512.821 226.669 502.17 211.136C489.728 192.997 468.567 176.771 439.211 162.906C413.039 150.536 393.008 143.106 376.119 139.526C368.092 137.822 360.725 136.971 353.815 136.971C345.838 136.916 337.915 138.19 330.411 140.733C317.483 145.141 305.457 153.525 292.563 167.105C281.44 178.821 269.591 194.366 252.941 219.082C241.306 236.358 229.68 245.222 214.958 256.445C193.213 273.019 166.151 293.642 124.748 352.126C110.791 371.842 121.938 385.202 132.729 398.12C139.596 406.346 146.082 414.115 146.518 423.393C146.8 429.308 143.616 436.662 137.874 444.293H138.714C144.528 436.481 147.447 429.281 147.17 423.393C146.724 413.929 139.874 405.715 133.25 397.762C122.602 385.009 111.597 371.822 125.303 352.461C166.625 294.037 193.633 273.453 215.353 256.903C230.117 245.644 241.781 236.756 253.47 219.398C282.158 176.81 303.983 150.39 330.626 141.289C356.306 132.527 386.67 138.733 438.922 163.434C493.584 189.267 518.996 222.332 514.451 261.702C509.495 304.83 480.807 364.819 428.009 401.614C417.45 408.543 400.187 413.74 381.911 419.245C358.977 426.138 335.481 433.236 323.573 444.277H324.472C336.397 433.567 359.545 426.599 382.083 419.805Z" fill="white" fill-opacity="0.1"/>
<path d="M1512.1 339.27V338.265C1499.19 356.527 1485.56 375.185 1471.21 394.236C1459.25 410.112 1447.9 426.851 1436.7 444.277H1437.44C1448.57 426.969 1459.84 410.364 1471.73 394.591C1485.73 375.994 1499.23 357.5 1512.1 339.27Z" fill="white" fill-opacity="0.1"/>
<path d="M453.539 401.114C440.24 414.813 431.521 429.253 427.421 444.277H428.072C432.163 429.399 440.824 415.097 454.005 401.512C482.495 372.162 496.264 351.432 512.939 312.787C525.351 284.001 530.219 257.83 527.409 234.966C525.863 222.423 524.645 212.517 511.822 199.918C498.309 186.641 472.146 170.828 426.976 148.655C395.264 133.079 370.906 125.823 350.316 125.823C330.626 125.823 313.476 132.558 296.355 147.011C289.442 152.847 283.565 161.759 277.341 171.199C267.798 185.675 256.978 202.083 239.118 213.195C201.458 236.618 196.057 243.606 183.006 260.487C171.842 274.924 154.974 296.766 106.796 342.654C88.6932 358.968 87.013 379.059 85.3749 398.487C83.9216 415.81 82.5271 432.471 68.7544 444.297H69.7247C83.1656 432.392 84.5643 415.791 86.0092 398.554C87.6263 379.232 89.298 359.259 107.233 343.096C155.453 297.148 172.338 275.306 183.51 260.854C196.531 244.036 201.895 237.076 239.462 213.708C257.44 202.525 268.297 186.057 277.878 171.514C284.078 162.114 289.933 153.233 296.78 147.46C330.672 118.851 365.879 119.317 426.69 149.183C471.785 171.333 497.902 187.11 511.364 200.336C524.04 212.793 525.225 222.612 526.779 235.057C529.576 257.81 524.725 283.891 512.351 312.575C495.714 351.128 481.97 371.823 453.539 401.114Z" fill="white" fill-opacity="0.1"/>
<path d="M1512.1 310.401C1483.37 349.487 1450.39 398.4 1419.73 444.277H1420.47C1450.89 398.775 1483.56 350.311 1512.1 311.442V310.401Z" fill="white" fill-opacity="0.1"/>
<path d="M95.922 330.626C120.498 307.976 145.905 284.557 168.545 246.925C177.097 233.869 192.331 222.674 208.448 210.817C218.667 203.305 229.235 195.536 239.379 186.506C248.691 177.72 255.272 169.372 261.64 161.296C276.177 142.865 288.728 126.946 327.379 117.198C346.406 112.399 363.472 109.777 395.037 122.96C405.786 127.447 416.429 133.263 431.159 141.316C448.897 151.008 473.188 164.282 509.591 181.443C536.704 194.227 540.497 217.564 540.556 240.876C540.636 272.029 527.779 309.013 496.167 368.573C489.573 380.998 481.513 391.393 473.721 401.444C462.8 415.534 452.72 428.562 449.38 444.276H450.048C453.371 428.704 463.388 415.774 474.229 401.795C482.038 391.72 490.111 381.29 496.73 368.837C513.006 338.174 523.86 314.478 530.891 294.273C537.956 273.965 541.228 257.001 541.186 240.876C541.161 230.722 540.539 218.869 536.146 207.914C531.278 195.785 522.705 186.956 509.877 180.914C473.494 163.761 449.212 150.492 431.483 140.803C416.74 132.755 406.084 126.919 395.302 122.415C377.992 115.187 365.018 112.683 353.694 112.683C344.239 112.683 335.935 114.43 327.232 116.627C288.362 126.446 275.749 142.424 261.144 160.946C254.789 169.002 248.22 177.334 238.946 186.084C228.832 195.087 218.276 202.847 208.07 210.351C191.894 222.24 176.618 233.471 168.003 246.63C145.406 284.198 120.023 307.589 95.4809 330.228C92.7549 332.744 90.0206 335.256 87.2946 337.795C79.7341 344.806 73.9629 356.822 67.8304 369.539C58.0228 389.89 46.9088 412.955 25.0463 425.506C16.3013 430.526 8.12336 432.77 0 433.054V433.61C8.7534 433.306 17.0112 430.814 25.3739 426.011C47.4002 413.365 58.5562 390.214 68.4059 369.783C74.5131 357.113 80.2801 345.149 87.7272 338.237C90.463 335.668 93.1946 333.131 95.922 330.626Z" fill="white" fill-opacity="0.1"/>
<path d="M1484.38 328.343C1494.72 313.11 1503.87 300.259 1512.1 288.812V287.767C1503.74 299.403 1494.43 312.479 1483.86 328.044C1472.83 344.306 1462.46 359.63 1452.45 374.448C1435.39 399.686 1419.77 422.786 1405 444.277H1405.76C1420.46 422.872 1436 399.867 1452.98 374.764C1463 359.945 1473.36 344.621 1484.38 328.343Z" fill="white" fill-opacity="0.1"/>
<path d="M521.109 338.225C504.887 373.849 488.279 410.329 486.007 444.277H486.637C488.913 410.435 505.492 374.019 521.684 338.458C536.536 305.843 551.897 272.112 555.286 241.665C556.933 226.866 553.493 211.302 545.626 197.808C537.759 184.314 526.048 173.927 512.616 168.371C470.373 150.894 447.116 141.288 410.788 117.518C394.021 106.548 375.052 101.051 354.084 101.051C341.937 101.051 329.136 102.902 315.681 106.603C287.539 114.348 274.875 128.338 261.443 143.154C251.244 154.4 240.702 166.025 222.649 176.072C175.005 202.579 164.265 219.078 150.698 239.954C134.182 265.349 113.635 296.955 22.8286 361.408L22.2867 361.802C13.7811 367.828 6.56925 372.942 0 377.079V377.792C6.67846 373.605 14.0038 368.411 22.6816 362.256L23.2234 361.861C63.5714 333.233 93.6664 308.501 115.214 286.256C133.838 267.029 143.079 252.817 151.236 240.277C165.298 218.644 175.463 203.013 222.968 176.581C241.113 166.49 251.69 154.822 261.922 143.536C275.291 128.812 287.917 114.864 315.862 107.171C352.287 97.139 384.099 100.783 410.427 118.003C446.81 141.809 470.071 151.434 512.343 168.915C539.808 180.276 558 211.523 554.656 241.602C551.279 271.954 535.957 305.649 521.109 338.225Z" fill="white" fill-opacity="0.1"/>
<path d="M1501.41 281.142C1504.96 276.147 1508.52 271.098 1512.1 265.995V264.919C1508.36 270.274 1504.62 275.572 1500.89 280.814C1488.56 298.212 1476.92 314.644 1466.81 331.403C1445.23 365.158 1417.97 404.244 1388.19 444.277H1388.96C1418.65 404.351 1445.83 365.375 1467.35 331.699C1477.46 314.956 1489.09 298.532 1501.41 281.142Z" fill="white" fill-opacity="0.1"/>
<path d="M1479.45 293.927C1489.92 279.21 1501.15 263.413 1512.1 246.213V243.129C1500.71 261.193 1488.97 277.712 1478.06 293.055C1470.08 304.282 1462.51 314.881 1456.05 324.826C1423.15 375.301 1397.34 408.925 1369.38 444.285H1371.48C1399.2 409.237 1424.85 375.742 1457.5 325.651C1463.95 315.725 1471.48 305.137 1479.45 293.927Z" fill="white" fill-opacity="0.1"/>
<path d="M539.573 326.131C543.807 314.999 548.112 304.648 552.279 294.64C563.279 268.22 572.781 245.368 573.461 224.82C573.826 213.936 571.714 204.228 567.009 195.146C561.914 185.288 553.787 176.167 542.165 167.204C531.441 158.923 521.302 156.009 509.566 152.614C498.608 149.459 486.187 145.875 469.731 137.266C456.613 130.409 445.327 122.55 435.364 115.618C424.636 108.149 415.375 101.702 406.004 97.7741C386.141 89.4458 369.461 85.5498 353.152 85.5498C350.212 85.5498 347.271 85.6799 344.331 85.9441C326.119 87.5017 308.704 93.7085 286.51 103.216C269.999 110.286 257.343 121.99 243.948 134.368C233.351 144.163 222.397 154.294 208.616 163.087L204.273 165.847C169.759 187.839 154.008 197.875 135.543 229.335C106.99 277.983 83.9511 304.147 37.2061 312.176C20.5814 315.047 9.60186 325.189 0 334.495V336.766C10.1815 326.853 20.7284 316.628 37.5086 313.753C84.913 305.595 108.208 279.19 136.997 230.123C155.268 198.991 170.914 189.022 205.197 167.176L209.544 164.416C223.455 155.52 234.46 145.342 245.108 135.516C258.397 123.228 270.952 111.623 287.19 104.667C332.911 85.0648 359.427 79.9819 405.328 99.237C414.531 103.094 423.725 109.49 434.373 116.907C444.374 123.871 455.71 131.758 468.92 138.67C485.532 147.345 498.041 150.965 509.079 154.148C521.125 157.622 530.639 160.366 541.106 168.438C563.061 185.371 572.524 202.745 571.793 224.784C571.117 245.065 561.667 267.766 550.721 294.084C546.55 304.104 542.24 314.463 538.002 325.63C526.96 354.677 511.91 394.28 512.343 444.324H514.023C513.594 394.524 528.577 355.063 539.573 326.131Z" fill="white" fill-opacity="0.1"/>
<path d="M1472.3 283.705C1485.97 264.714 1499.11 246.453 1512.1 222.138V220.813C1498.94 245.633 1485.64 264.127 1471.78 283.374C1466.98 290.046 1462.01 296.943 1456.95 304.238C1423.48 353.774 1388.83 398.034 1352.33 444.277H1353.11C1389.53 398.14 1424.07 353.975 1457.48 304.558C1462.54 297.27 1467.5 290.373 1472.3 283.705Z" fill="white" fill-opacity="0.1"/>
<path d="M567.039 286.151C580.9 254.888 592.833 227.888 589.166 208.148C584.936 185.348 576.191 169.752 561.654 159.073C548.738 149.582 533.008 145.244 516.358 140.65C506.697 137.985 496.697 135.228 487.011 131.344C466.774 123.233 456.958 116.087 447.461 109.183C441.484 104.845 435.834 100.72 427.854 96.5206C406.462 85.2585 381.386 73.4443 351.892 73.4443C349.598 73.4443 347.277 73.5179 344.928 73.6652C310.485 75.8458 280.743 86.8555 254.033 107.317C244.612 114.534 237.703 121.738 231.02 128.702C221.359 138.757 212.27 148.249 197.258 155.607C173.102 167.437 154.445 180.056 140.222 194.121C127.508 206.709 119.347 219.359 111.455 231.63C109.165 235.179 106.801 238.858 104.352 242.49C80.9689 277.152 37.0801 294.27 0 302.712V303.32C19.901 298.789 37.832 292.645 53.4445 284.991C76.2226 273.824 93.532 259.628 104.881 242.798C107.334 239.162 109.703 235.487 111.996 231.93C128.378 206.464 143.885 182.414 197.548 156.124C212.669 148.718 221.805 139.168 231.486 129.092C238.152 122.14 245.049 114.956 254.432 107.767C281.033 87.3839 310.649 76.4215 344.97 74.2488C377.345 72.1983 404.567 84.9312 427.547 97.0293C435.486 101.205 441.114 105.31 447.074 109.648C456.601 116.58 466.45 123.745 486.763 131.888C496.482 135.784 506.504 138.544 516.165 141.218C548.642 150.177 579.32 158.64 588.532 208.254C592.165 227.825 580.244 254.75 566.438 285.938C556.248 308.955 544.697 335.044 537.813 362.134C530.097 392.498 529.455 419.391 535.868 444.293H536.52C521.974 387.947 546.936 331.554 567.039 286.151Z" fill="white" fill-opacity="0.1"/>
<path d="M551.872 438.023C533.604 382.876 556.559 334.196 585.625 272.562C587.944 267.637 590.346 262.546 592.766 257.412C601.191 239.359 605.303 221.133 604.976 203.254C604.69 187.347 600.956 175.193 597.877 167.8C592.32 154.456 581.534 144.085 565.821 136.967C555.496 132.29 543.169 129.045 528.14 127.046C482.357 120.484 474.855 113.406 464.455 103.603C457.735 97.2934 450.12 90.0968 430.483 81.3663C398.8 67.2769 372.519 60.5101 348.464 60.5101C340.043 60.4977 331.645 61.352 323.422 63.0575C309.351 65.9756 295.461 71.3385 279.71 79.9112C264.114 88.4091 248.262 99.269 233.456 109.735C228.105 113.516 222.409 118.721 216.899 123.753C209.758 130.283 203 136.45 197.014 139.712C180.44 148.73 168.633 156.719 157.213 164.444C147.775 170.828 138.857 176.862 127.659 183.258C110.602 192.998 100.408 207.473 90.5498 221.472C80.2927 236.062 70.5984 249.813 54.1837 256.331C42.4943 261.785 29.6708 265.038 13.8609 266.56C9.22489 266.644 4.59743 266.971 0 267.538L0 268.133C4.60701 267.563 9.24436 267.236 13.8903 267.151C29.822 265.618 42.7169 262.349 54.4567 256.867C71.0269 250.29 80.7715 236.449 91.0874 221.799C100.903 207.856 111.056 193.435 127.995 183.762C139.214 177.354 148.157 171.317 157.591 164.921C168.999 157.204 180.793 149.227 197.338 140.224C203.395 136.928 210.17 130.737 217.348 124.179C222.842 119.159 228.525 113.966 233.843 110.208C303.651 60.8611 343.323 43.27 430.193 81.8868C449.729 90.5621 457.306 97.7113 463.989 104.005C474.49 113.887 482.05 121.024 528.026 127.617C564.85 132.511 588.145 146.096 597.268 167.997C602.447 180.43 612.314 214 592.165 257.159C589.771 262.285 587.368 267.384 585.024 272.309C570.945 302.168 557.643 330.375 550.498 357.3C542.593 387.075 542.833 412.778 551.25 438.185C551.934 440.251 552.74 442.28 553.665 444.261H554.354C553.401 442.228 552.572 440.145 551.872 438.023V438.023Z" fill="white" fill-opacity="0.1"/>
<path d="M1512.1 192.544V191.14C1510.18 195.107 1507.95 199.263 1505.35 203.664C1477.76 250.313 1403.85 354.91 1335.58 444.277H1336.35C1404.56 354.969 1478.32 250.558 1505.9 203.952C1508.26 199.961 1510.3 196.176 1512.1 192.544Z" fill="white" fill-opacity="0.1"/>
<path d="M1512.1 126.655V120.224C1509.52 147.551 1505.65 178.119 1485.88 210.155C1430.34 300.157 1373.38 375.269 1319.43 444.277H1320.21C1374.09 375.332 1430.96 300.346 1486.43 210.439C1504.74 180.777 1509.45 152.389 1512.1 126.655Z" fill="white" fill-opacity="0.1"/>
<path d="M564.418 423.377C555.009 358.596 576.599 316.789 595.685 279.908C603.245 265.254 610.411 251.417 615.191 237.099C620.555 221.03 622.168 206.601 620.269 191.7C611.079 119.569 569.74 115.527 529.761 111.615C519.576 110.617 509.037 109.588 499.397 107.372C485.633 105.597 473.498 95.6366 461.759 86.007C451.543 77.6196 441.891 69.6975 431.454 67.0515C398.947 56.7713 370.906 51.6726 346.095 51.6726C328.101 51.6726 311.8 54.3619 296.742 59.7091C251.694 75.711 224.14 97.8685 199.778 119.19C184.703 132.384 153.092 152.408 125.202 170.059C111.446 178.773 98.4547 187.015 89.8231 192.954C77.4995 201.455 69.2417 208.703 62.6389 214.531C46.7282 228.577 38.2898 235.971 0 239.619V240.214C38.5502 236.571 47.0432 229.106 63.0715 215.001C69.6786 209.188 77.9027 201.948 90.197 193.47C98.816 187.524 111.803 179.298 125.555 170.599C153.466 152.921 185.098 132.885 200.207 119.659C225.53 97.4939 251.988 76.2828 296.965 60.2966C332.663 47.5992 375.312 49.9454 431.269 67.6312C441.585 70.2495 451.182 78.1243 461.347 86.4684C473.154 96.1571 485.36 106.185 499.28 107.967C508.94 110.187 519.487 111.221 529.698 112.218C569.429 116.106 610.512 120.125 619.643 191.786C623.776 224.228 610.495 249.919 595.118 279.667C576.011 316.624 554.375 358.533 563.796 423.491C565.372 430.65 567.794 437.622 571.016 444.277H571.647C568.415 437.585 565.99 430.575 564.418 423.377V423.377Z" fill="white" fill-opacity="0.1"/>
<path d="M2.36896 16.2456C1.56251 14.9955 0.764452 13.7534 0 12.4836V13.6666C0.596441 14.6288 1.21388 15.5831 1.82713 16.5374C8.23256 26.4824 14.848 36.7705 5.18736 57.0352C2.98743 61.5725 1.25054 66.2954 0 71.1404L0 73.9007C1.2367 68.1712 3.16738 62.5933 5.75439 57.2757C15.5621 36.7389 8.85421 26.3207 2.36896 16.2456Z" fill="white" fill-opacity="0.1"/>
<path d="M632.509 247.308C649.789 220.545 651.599 205.903 653.052 194.14C654.22 184.7 655.06 177.878 663.553 168.623C672.512 162.002 685.004 162.196 699.461 162.42C722.202 162.775 747.975 163.178 768.892 137.065C782.585 119.975 787.193 105.061 782.976 91.4685C777.095 72.5406 754.061 56.5465 710.458 41.1597C683.681 31.6958 670.647 30.1934 660.655 35.3512C650.255 40.7181 643.518 53.5457 632.353 74.7843L628.938 81.2711C611.427 106.508 602.439 104.19 578.413 97.9552C561.658 93.6176 538.771 87.6671 501.325 87.6671H499.964C478.388 87.6671 470.273 79.5045 462.431 71.61C456.601 65.7423 451.09 60.202 440.493 58.4511C429.425 56.5229 418.147 54.0583 407.235 51.6726C377.228 45.1109 348.884 38.916 323.279 42.603C304.268 45.3331 285.803 50.7328 268.503 58.6207C251.421 66.3496 234.985 76.4839 218.26 89.5993C212.862 93.8345 208.141 97.6043 203.979 100.932C185.522 115.684 176.257 123.09 156.49 131.805C130.448 143.288 113.971 157.14 99.4418 169.361C82.7163 183.43 69.5106 194.539 48.1731 196.877C36.5425 198.159 31.1577 193.245 26.424 188.912C25.7982 188.356 25.2017 187.804 24.6137 187.283C18.9433 179.578 9.69426 177.76 0 177.05V177.642C9.53885 178.348 18.6115 180.142 24.1139 187.646C24.1269 187.665 24.1425 187.682 24.1601 187.697C24.7607 188.218 25.3529 188.762 25.983 189.338C30.8175 193.762 36.2989 198.774 48.2445 197.469C69.7794 195.103 83.0565 183.943 99.8618 169.806C114.357 157.614 130.789 143.78 156.759 132.345C176.605 123.595 185.888 116.177 204.386 101.386C208.548 98.0617 213.265 94.2879 218.667 90.0568C252.437 63.5538 285.725 48.6717 323.363 43.2418C348.846 39.5508 377.127 45.7339 407.079 52.2798C418 54.6458 429.286 57.1341 440.371 59.0623C450.762 60.7816 456.197 66.2549 461.956 72.0477C469.895 80.0329 478.098 88.2941 499.948 88.2902H500.221C538.221 88.1719 561.352 94.1736 578.233 98.5428C590.031 101.603 598.558 103.815 606.164 101.997C613.952 100.14 620.697 94.2327 629.472 81.5787C630.665 79.3231 631.809 77.1503 632.904 75.0604C655.165 32.7289 659.785 23.9196 710.222 41.7197C753.628 57.0315 776.549 72.8955 782.358 91.638C786.512 105.045 781.938 119.781 768.38 136.71C747.651 162.586 722.05 162.184 699.461 161.833C684.869 161.608 672.264 161.411 663.129 168.182L663.083 168.221C654.459 177.622 653.561 184.882 652.426 194.073C650.977 205.781 649.18 220.352 631.967 247.005C610.373 280.448 589.065 316.261 579.463 351.585C574.57 369.571 572.961 386.164 574.553 402.312C575.987 416.846 580.072 431.041 586.629 444.277H587.326C554.715 377.816 589.993 313.146 632.509 247.308Z" fill="white" fill-opacity="0.1"/>
<path d="M1512.1 59.1262C1506.4 71.3505 1502.19 83.2356 1502.36 98.3227C1503.14 169.149 1470.5 218.148 1427.76 274.845C1413.48 293.773 1399.2 313.84 1384.05 335.087C1372.08 351.882 1359.69 369.252 1346.52 387.21C1331.45 407.739 1317.28 426.734 1303.81 444.277H1304.61C1318 426.824 1332.09 407.944 1347.06 387.545C1360.25 369.583 1372.62 352.213 1384.6 335.418C1399.72 314.176 1414.03 294.108 1428.28 275.188C1451.92 243.831 1469.13 219 1481.9 192.142C1496.65 161.116 1503.36 131.301 1503 98.3149C1502.84 83.8587 1506.74 72.3442 1512.11 60.6129L1512.1 59.1262Z" fill="white" fill-opacity="0.1"/>
<path d="M58.0985 94.056C62.4836 108.828 71.4806 117.913 83.4262 119.636C98.5472 121.813 116.109 111.974 128.172 94.5647C132.372 90.7239 136.904 91.8675 142.146 93.1885C146.027 94.1704 150.429 95.2785 155.188 94.3084C178.538 88.4171 196.166 77.4429 214.832 65.8259C233.498 54.2089 252.727 42.2331 279.697 33.8101C282.331 32.986 284.83 32.1934 287.22 31.4442C308.776 24.5986 321.788 20.466 349.645 22.0433C373.981 23.4195 380.807 24.8943 390.257 26.937C392.635 27.4535 395.096 27.9859 398.061 28.5655C406.882 30.2888 414.442 30.1665 424.981 29.997C434.15 29.8511 445.562 29.6697 461.524 30.758C469.798 31.3219 476.909 33.7431 483.785 36.0854C488.67 37.7495 493.286 39.3189 497.86 40.0287C505.555 41.2117 511.65 40.0563 517.547 38.9286C522.444 37.994 527.073 37.1068 532.13 37.7456C536.751 38.3252 541.371 39.3466 546.269 40.4231C558.147 43.0493 570.433 45.7623 583.37 41.8939C605.383 35.2968 613.662 24.78 621.643 14.6062C625.553 9.62976 629.287 4.87807 634.491 0.654785H633.538C628.569 4.79921 624.932 9.42471 621.139 14.2553C613.213 24.3501 605.014 34.792 583.189 41.3143C570.416 45.1314 558.218 42.4342 546.424 39.8276C541.522 38.7472 536.893 37.7219 532.227 37.1422C527.065 36.4955 522.386 37.3907 517.434 38.3252C511.595 39.4412 505.555 40.5966 497.974 39.4215C493.458 38.7235 488.872 37.162 484.016 35.5058C477.098 33.1398 469.945 30.7146 461.582 30.1429C445.596 29.0545 434.171 29.2359 424.985 29.3818C414.51 29.5514 406.924 29.6736 398.208 27.9622C395.268 27.3825 392.79 26.8502 390.413 26.3376C380.937 24.291 374.09 22.8083 349.699 21.4281C321.721 19.8508 308.662 23.9913 287.035 30.8605C284.645 31.6216 282.15 32.4142 279.517 33.2265C252.437 41.6968 233.15 53.712 214.484 65.3251C195.818 76.9381 178.273 87.8611 155.041 93.7169C150.442 94.6554 146.309 93.6105 142.31 92.601C137.097 91.2878 132.175 90.0457 127.706 94.1467C127.689 94.1621 127.675 94.1793 127.664 94.198C115.735 111.43 98.4086 121.178 83.5228 119.041C71.825 117.377 63.0044 108.433 58.7075 93.8983C53.6462 76.8474 55.6035 68.531 57.4936 60.4866C60.27 48.6567 62.8952 37.5011 42.9942 0.654785H42.2886C62.2441 37.5326 59.6358 48.6212 56.8762 60.3605C54.9692 68.4797 52.9951 76.8632 58.0985 94.056Z" fill="white" fill-opacity="0.1"/>
<path d="M1486.1 56.8627C1484.36 64.2525 1482.74 71.2322 1481.39 78.0068C1479.31 88.5906 1478.08 99.7817 1476.89 110.606C1475.49 123.292 1474.05 136.411 1471.23 149.156C1463.86 182.43 1440.2 214.26 1419.32 242.344C1413.71 249.892 1408.4 257.025 1403.78 263.749L1399.74 269.589C1354.86 334.551 1316.37 390.293 1271.03 444.277H1271.87C1283.04 430.969 1294.13 417.143 1305.34 402.604C1336.77 361.815 1366.2 319.219 1400.27 269.896L1404.29 264.068C1408.91 257.364 1414.23 250.227 1419.84 242.683C1440.75 214.552 1464.45 182.666 1471.84 149.278C1474.67 136.502 1476.12 123.367 1477.51 110.665C1478.7 99.8527 1479.93 88.6734 1482 78.1132C1483.33 71.3505 1484.97 64.3747 1486.71 56.9889C1491.09 38.3607 1495.61 19.1331 1495.75 0.654785H1495.12C1494.99 19.0898 1490.47 38.2621 1486.1 56.8627Z" fill="white" fill-opacity="0.1"/>
<path d="M605.799 392.462C604.421 350.608 622.709 310.205 670.996 248.413C688.528 225.968 717.044 212.379 753.141 195.178C765.112 189.472 777.502 183.573 790.796 176.747C809.278 167.283 822.635 156.136 830.527 143.647C837.76 132.212 840.318 119.786 838.129 106.769C834.769 86.7333 820.068 66.1059 796.794 48.6883C773.827 31.5033 744.896 19.1568 715.309 13.9161C702.515 11.6409 693.887 6.04529 686.449 0.654785H685.42C693.047 6.22668 701.868 12.1298 715.216 14.4958C744.677 19.7168 773.512 32.0199 796.4 49.1457C819.56 66.4726 834.156 86.966 837.504 106.86C840.704 125.863 835.143 153.324 790.494 176.223C777.196 183.045 764.822 188.944 752.855 194.646C716.682 211.886 688.112 225.506 670.488 248.066C646.336 278.978 630.291 303.781 619.988 326.144C609.163 349.61 604.446 370.703 605.173 392.494C605.795 411.603 610.86 428.212 621.021 444.293H621.731C611.49 428.055 606.412 411.094 605.799 392.462Z" fill="white" fill-opacity="0.1"/>
<path d="M591.4 394.371C590.14 348.21 615.556 293.158 676.423 210.317C686.209 198.144 702.851 194.433 718.946 190.849C730.287 188.321 742.002 185.722 751.415 180.178C792.477 160.379 814.751 132.251 812.529 102.999C811.525 89.7578 805.359 76.9736 794.703 66.0861C783.782 54.9069 768.241 45.8333 749.73 39.8474C746.273 38.7314 742.128 37.5208 737.743 36.2392C724.382 32.3432 707.748 27.493 698.063 21.5543C658.706 -2.58267 644.824 16.0337 630.119 35.7503C622.138 46.4524 613.893 57.5173 601.095 62.9591C586.562 69.1304 568.114 66.9024 544.702 56.1017C527.014 47.9548 518.576 52.9076 511.129 57.2847C502.447 62.3794 495.588 66.4056 476.145 48.3294C463.161 36.2589 453.715 37.856 444.579 39.3978C442.53 39.7448 440.409 40.0997 438.279 40.2851C413.497 42.4539 395.629 38.8221 378.358 35.3125C360.548 31.6926 343.726 28.2698 321.162 31.6334C295.961 35.3875 267.037 47.1267 230.197 68.5704C212.703 78.7323 196.951 89.123 181.713 99.1587C155.276 116.572 130.306 133.02 98.5471 147.22C81.6326 154.787 60.4295 152.807 43.2126 142.058C24.4331 130.323 14.281 111.221 15.3815 89.6553C15.3836 89.6185 15.3836 89.5817 15.3815 89.5449C14.5414 80.9879 20.6108 73.9649 26.4912 67.1706C31.1661 61.7722 35.9965 56.1924 37.3406 49.82C38.8443 41.4405 34.0853 33.9679 29.0492 26.0576C24.3995 18.7704 19.2415 10.6629 18.2881 0.654785H16.6079C17.5278 11.0612 22.8034 19.354 27.5959 26.8739C32.6866 34.863 37.0801 41.7599 35.7024 49.5518C34.4424 55.5102 29.9523 60.6956 25.2017 66.1847C19.1029 73.2117 12.8109 80.4635 13.7013 89.6395C13.1301 101.075 15.5957 111.746 21.0392 121.391C26.072 130.262 33.3793 137.816 42.3011 143.371C60.0053 154.412 81.8426 156.447 99.2864 148.643C131.154 134.388 156.183 117.885 182.679 100.448C197.897 90.4282 213.631 80.0612 231.1 69.8914C311.241 23.2578 342.176 29.5514 378.026 36.8386C395.423 40.3876 413.409 44.0312 438.46 41.8387C440.644 41.6494 442.799 41.2867 444.886 40.9318C453.996 39.3939 462.607 37.9427 474.969 49.4335C484.209 58.0418 491.45 62.3637 497.696 63.038C503.417 63.6571 507.601 61.2043 512.028 58.6057C519.101 54.4534 527.119 49.749 543.95 57.5094C560.037 64.9189 572.932 67.9237 583.496 67.9237C608.164 67.9237 620.349 51.5905 631.484 36.6533C646.323 16.7474 659.138 -0.437512 697.13 22.8517C707.026 28.9244 723.773 33.8101 737.226 37.7337C741.603 39.0114 745.736 40.218 749.163 41.3261C785.744 53.156 808.807 76.2559 810.836 103.102C813.008 131.695 791.053 159.278 750.6 178.778L750.537 178.814C741.351 184.216 729.758 186.803 718.543 189.299C702.162 192.95 685.214 196.728 675.045 209.378C646.424 248.338 626.708 279.506 612.961 307.484C596.621 340.734 589.019 369.169 589.72 394.414C590.088 411.257 594.441 427.813 602.464 442.881C602.708 443.347 602.96 443.812 603.212 444.277H605.014C596.264 428.394 591.888 412.053 591.4 394.371Z" fill="white" fill-opacity="0.1"/>
<path d="M1352.03 358.487C1366.03 339.251 1378.51 321.814 1389.51 306.399C1398.43 293.927 1406.85 282.144 1414.49 271.651C1444.63 230.246 1465.64 199.346 1477.22 173.226C1488.26 148.3 1491.22 127.353 1492.82 97.4118C1493.55 79.5605 1500.16 59.0158 1506.56 39.1455C1508.48 33.1556 1510.38 27.2643 1512.1 21.5149V15.5369C1510 23.0094 1507.48 30.7659 1504.96 38.688C1498.54 58.653 1491.89 79.3041 1491.16 97.3409C1488.01 156.207 1480.94 177.619 1413.12 270.76C1405.47 281.257 1397.05 293.043 1388.13 305.52C1377.13 320.899 1364.65 338.368 1350.65 357.595C1347.35 362.126 1343.44 367.619 1338.89 373.98C1325.51 392.75 1307.72 417.707 1287.09 444.277H1289.16C1309.51 418.031 1327.06 393.409 1340.29 374.875C1344.82 368.503 1348.73 363.01 1352.03 358.487Z" fill="white" fill-opacity="0.1"/>
<path d="M1466.81 87.5571C1465.97 94.9193 1465.33 101.398 1464.75 107.112C1459.86 155.705 1459.86 155.705 1396.2 253.318L1383.73 272.443C1340.46 338.856 1300.73 387.56 1253.3 444.277H1254.1C1301.41 387.702 1341.09 339.05 1384.26 272.743C1388.67 265.976 1392.83 259.6 1396.73 253.614C1460.47 155.887 1460.47 155.887 1465.38 107.155C1465.95 101.441 1466.61 94.9666 1467.44 87.6084C1473.15 37.0117 1472.06 14.9923 1469.29 0.642578H1468.65C1471.44 14.9607 1472.53 36.9092 1466.81 87.5571Z" fill="white" fill-opacity="0.1"/>
<path d="M620.647 392.856C616.808 344.041 647.558 288.997 707.223 237.884C727.46 220.533 744.278 214.642 774.81 203.924C776.737 203.246 778.722 202.548 780.766 201.83C797.144 196.015 812.229 187.393 825.251 176.403C838.394 165.283 848.084 152.692 853.271 139.987C859.433 124.904 858.95 110.183 851.877 97.3992C843.279 81.8744 838.491 70.6714 834.656 61.6728C828.108 46.3964 824.516 37.9774 810.235 26.53C794.757 12.4957 776.385 11.1511 756.938 9.73148C742.073 8.64313 726.855 7.52717 712.142 0.661865H710.743C725.894 8.05557 741.577 9.20702 756.888 10.3269C776.209 11.7426 794.48 13.0872 809.811 26.9756C823.991 38.3402 827.57 46.6921 834.064 61.8975C837.919 70.908 842.716 82.1267 851.327 97.6752C858.316 110.294 858.786 124.849 852.692 139.766C842.233 165.378 813.915 189.515 780.556 201.282L774.588 203.34C743.984 214.082 727.124 219.997 706.799 237.414C646.987 288.677 616.165 343.884 620.017 392.883C621.358 410.252 627.256 427.039 637.184 441.749C637.751 442.597 638.334 443.437 638.931 444.277H639.8C628.594 428.574 622.092 411.275 620.647 392.856Z" fill="white" fill-opacity="0.1"/>
<path d="M110.501 64.7612C135.283 74.304 160.405 73.2117 185.153 61.5158C311.308 1.88116 355.344 9.77961 390.744 16.1283C399.384 17.6781 407.545 19.141 416.269 19.5038C436.2 19.2199 456.109 20.9195 475.363 22.5678C510.646 25.5883 544.017 28.4394 577.077 19.9494C589.485 16.7632 599.889 8.987 609.739 0.654785H608.798C599.137 8.77012 588.968 16.2821 576.914 19.3776C543.962 27.84 510.667 24.9929 475.418 21.9802C456.151 20.3319 436.229 18.6245 416.278 18.9123C407.617 18.5535 399.477 17.0945 390.862 15.5487C355.378 9.18417 311.216 1.266 184.867 60.9874C160.291 72.6044 135.35 73.6889 110.74 64.2131C70.9848 48.9091 62.874 24.709 65.7092 0.654785H65.1044C64.0417 9.62582 64.5919 17.5795 66.7299 24.847C71.8794 42.3474 86.194 55.4037 110.501 64.7612Z" fill="white" fill-opacity="0.1"/>
<path d="M644.962 417.628C630.623 386.39 634.592 352.095 657.097 312.776C695.702 245.345 743.421 230.282 778.259 219.296C788.847 215.96 798 213.077 805.762 209.213C824.663 199.804 839.184 190.478 850.121 180.706C860.698 171.242 867.683 161.605 871.476 151.199C875.054 141.376 875.722 131.021 873.508 119.546C871.505 109.139 867.09 97.7273 860.017 84.6631C852.23 70.2858 848.513 56.5867 845.236 44.4965C839.978 25.1033 835.828 9.8151 818.136 0.99391C817.905 0.875611 817.67 0.769141 817.439 0.654785H816.036C816.637 0.930817 817.237 1.21474 817.842 1.51443C835.286 10.2134 839.406 25.407 844.623 44.6464C847.912 56.7602 851.638 70.4948 859.454 84.9352C874.13 112.034 877.654 132.413 870.879 151.009C863.352 171.668 841.956 190.533 805.464 208.688C797.744 212.533 788.621 215.392 778.061 218.736C743.119 229.753 695.265 244.84 656.543 312.496C633.941 351.984 629.963 386.449 644.383 417.861C648.499 426.828 654.085 435.606 661.268 444.281H662.07C654.774 435.511 649.112 426.671 644.962 417.628Z" fill="white" fill-opacity="0.1"/>
<path d="M140.411 41.8426C157.775 46.4681 173.069 47.2528 188.543 44.315C202.714 41.6257 215.895 36.1445 231.138 29.7682C254.659 19.9651 283.893 7.76842 328.727 1.77065C343.214 -0.16552 361.733 2.38975 381.332 5.0988C395.89 7.11383 410.944 9.19196 424.112 9.22745C439.002 9.27083 454.547 10.2724 469.58 11.2425C506.887 13.644 545.462 16.1282 575.082 3.70681C577.198 2.8053 579.254 1.78611 581.24 0.654689H580.005C578.325 1.57499 576.595 2.41212 574.822 3.16264C545.349 15.5249 506.853 13.0446 469.626 10.6549C454.58 9.68487 439.027 8.68327 424.112 8.6399C410.994 8.60441 395.97 6.52628 381.424 4.51913C369.079 2.80379 357.163 1.15943 346.394 0.654689H334.267C332.335 0.765102 330.459 0.941237 328.639 1.18309C283.717 7.1927 254.42 19.4091 230.881 29.2279C200.219 42.0161 178.063 51.2592 140.575 41.2747C129.398 38.2975 123.774 24.8075 116.634 7.73688C115.663 5.41427 114.676 3.05617 113.647 0.638916H112.967C114.029 3.11532 115.046 5.54834 116.046 7.93404C123.245 25.1781 128.949 38.7865 140.411 41.8426Z" fill="white" fill-opacity="0.1"/>
<path d="M1392.92 232.869C1390.23 236.767 1387.46 240.809 1384.58 244.994C1377.64 255.129 1370.68 265.413 1363.3 276.3C1326.05 331.313 1285.59 391.051 1238.82 444.285H1239.55C1249.77 432.639 1260.09 420.239 1270.52 407.084C1304.76 363.834 1336.14 317.508 1363.83 276.62C1371.2 265.732 1378.17 255.448 1385.12 245.314C1387.98 241.126 1390.76 237.085 1393.45 233.192C1420.96 193.234 1439.14 166.834 1447.18 133.32C1454.57 102.562 1453.77 64.706 1444.12 0.654785H1443.48C1463.17 130.855 1447.33 153.86 1392.92 232.869Z" fill="white" fill-opacity="0.1"/>
<path d="M1420.81 18.8847C1450.29 122.42 1436.5 142.961 1399.66 197.856C1395.88 203.475 1391.99 209.291 1387.83 215.636C1330.52 303.107 1286.9 363.479 1226.85 438.362C1225.29 440.318 1223.69 442.29 1222.07 444.277H1222.88C1224.41 442.392 1225.9 440.543 1227.36 438.729C1287.42 363.806 1331.05 303.438 1388.36 215.932C1392.53 209.579 1396.42 203.771 1400.19 198.156C1437.15 143.099 1450.97 122.499 1421.42 18.7349C1419.67 12.5816 1417.48 6.54221 1414.89 0.654785L1414.21 0.654785C1416.84 6.58875 1419.04 12.6786 1420.81 18.8847V18.8847Z" fill="white" fill-opacity="0.1"/>
<path d="M678.552 436.458C656.329 409.671 648.567 383.183 656.098 359.851C689.637 255.976 740.523 240.534 789.709 225.601C809.698 219.532 828.578 213.802 846.467 202.521C866.75 189.732 882.061 172.07 894.661 146.951C908.821 118.713 895.312 101.422 883.396 86.1614C878.15 79.4578 873.189 73.0933 870.695 66.2082C866.641 55.0368 865.276 45.1983 864.071 36.5151C862.445 24.7956 861.038 14.6692 853.826 4.75174C852.768 3.30454 851.667 1.95199 850.529 0.67041H849.689C850.965 2.08373 852.165 3.55645 853.284 5.08297C860.425 14.886 861.807 24.9454 863.428 36.594C864.633 45.3008 866.007 55.1709 870.077 66.3975C872.597 73.3732 877.591 79.7535 882.867 86.5084C894.678 101.635 908.069 118.777 894.069 146.695C866.519 201.657 829.137 213.014 789.516 225.029C740.162 240.014 689.129 255.503 655.497 359.669C651.818 371.058 651.784 383.329 655.392 396.188C659.143 409.54 666.766 423.208 678.074 436.805C680.14 439.297 682.33 441.782 684.643 444.261H685.483C683.035 441.675 680.725 439.073 678.552 436.458Z" fill="white" fill-opacity="0.1"/>
<path d="M177.004 23.2697C177.802 23.2697 178.621 23.2368 179.462 23.1711C210.271 20.8051 235.598 13.3641 262.409 5.509C267.899 3.89619 273.439 2.27154 279.151 0.654785H276.975C271.973 2.08226 267.071 3.52157 262.22 4.94117C235.443 12.7923 210.136 20.2057 179.411 22.5835C163.244 23.8296 155.091 12.3546 147.531 0.654785H146.796C154.121 12.0115 161.942 23.2697 177.004 23.2697Z" fill="white" fill-opacity="0.1"/>
<path d="M534.932 0.654785H531.819C499.973 6.51455 466.009 3.28103 439.35 0.654785H433.289L438.262 1.14376C465.946 3.87253 501.733 7.39785 534.932 0.654785Z" fill="white" fill-opacity="0.1"/>
<path d="M864.751 204.201C839.318 219.509 823.89 225.913 790.435 237.38C786.73 238.649 783.03 239.872 779.451 241.051C754.216 249.375 730.379 257.218 711.667 280.677C703.707 290.654 688.986 311.041 679.678 335.615C670.437 360.064 669.391 381.22 676.565 398.515C682.261 412.246 694.206 428.405 710.088 444.258H712.394C696.122 428.193 683.882 411.788 678.132 397.924C671.109 380.991 672.163 360.198 681.261 336.124C690.472 311.758 705.106 291.506 713.011 281.604C731.417 258.547 753.951 251.138 779.993 242.541C783.576 241.358 787.281 240.136 790.998 238.862C824.6 227.348 840.074 220.916 865.641 205.526C880.96 196.306 894.333 184.93 904.317 172.627C914.129 160.532 920.699 147.516 923.357 134.98C926.747 118.887 923.702 103.879 914.537 91.5678C889.373 57.7539 889.268 56.4448 887.478 34.5949C887.058 29.4331 886.529 23.0094 885.563 14.7758C885.046 9.91275 883.746 5.15152 881.707 0.654785L879.863 0.654785C882.022 5.18463 883.389 10.0113 883.912 14.9493C884.878 23.1553 885.403 29.5671 885.823 34.7171C887.646 56.9692 887.756 58.3021 913.18 92.4709C922.072 104.419 925.025 119.013 921.723 134.664C916.397 159.937 895.081 185.931 864.751 204.201Z" fill="white" fill-opacity="0.1"/>
<path d="M1294.06 330.6C1319.34 299.053 1345.47 266.422 1367.65 229.256C1372.08 221.843 1376.57 214.666 1380.92 207.754C1400.14 177.114 1416.75 150.65 1420.13 116.304C1423.39 83.07 1413.37 45.9279 1388.71 0.654785H1386.83C1443.69 104.604 1415.12 150.134 1379.47 206.957C1375.12 213.893 1370.62 221.062 1366.19 228.491C1344.06 265.559 1317.96 298.142 1292.71 329.669C1286.07 338.411 1279.19 347.698 1271.91 357.528C1251 385.739 1228.16 416.556 1204.02 444.281H1206.19C1230.04 416.777 1252.61 386.315 1273.28 358.435C1280.57 348.605 1287.45 339.318 1294.06 330.6Z" fill="white" fill-opacity="0.1"/>
<path d="M1350.72 1.20685C1377.6 27.8242 1403.11 78.3065 1399.8 123.292C1396.23 172.007 1358.4 220.4 1314.6 276.43C1307.16 285.949 1299.48 295.788 1291.87 305.741C1278.63 323.091 1266.16 340.284 1254.07 356.913C1231.09 388.582 1209.08 418.918 1185.97 444.277H1186.81C1209.81 418.973 1231.73 388.771 1254.6 357.248C1266.66 340.619 1279.13 323.427 1292.37 306.088C1299.97 296.135 1307.66 286.296 1315.1 276.781C1336.65 249.206 1357.01 223.152 1372.52 197.797C1389.91 169.334 1398.78 145.674 1400.42 123.331C1402.01 101.643 1397.18 77.4941 1386.44 53.4439C1377.44 33.266 1364.58 14.0778 1351.16 0.800688C1351.11 0.753368 1351.06 0.702105 1351.02 0.654785H1350.18C1350.35 0.840121 1350.53 1.02546 1350.72 1.20685Z" fill="white" fill-opacity="0.1"/>
<path d="M715.691 411.335C698.667 391.989 697.512 367.927 699.541 351.148C703.435 318.939 722.643 285.358 747.302 267.581C763.831 255.677 787.146 248.074 811.836 240.022C856.438 225.475 907.022 208.984 933.795 161.936C955.049 124.581 949.882 90.791 918.443 61.5159C917.603 60.7272 916.704 59.974 915.742 59.1499C909.778 54.1261 903.02 48.4319 909.896 37.091C918.258 23.2894 919.733 11.215 914.281 1.18319C914.184 1.00574 914.079 0.832234 913.978 0.654785H913.26C913.415 0.918987 913.575 1.18319 913.722 1.44345C919.069 11.3017 917.599 23.179 909.345 36.7913C902.205 48.5463 909.484 54.6663 915.322 59.5797C916.276 60.3881 917.183 61.157 918.002 61.9102C949.219 90.9842 954.343 124.534 933.241 161.637C906.582 208.495 856.136 224.942 811.63 239.458C786.89 247.522 763.528 255.14 746.92 267.104C722.139 284.971 702.817 318.714 698.915 351.073C696.874 367.966 698.041 392.198 715.204 411.702C726.284 424.297 737.104 435.101 747.853 444.269H748.911C738.259 435.298 727.225 424.446 715.691 411.335Z" fill="white" fill-opacity="0.1"/>
<path d="M747.269 398.676C732.265 382.15 725.679 360.308 728.716 337.161C732.005 312.156 746.605 288.761 767.779 274.58C797.601 254.611 815.633 249.343 834.731 243.803C853.633 238.282 873.193 232.604 905.972 212.438C926.726 199.669 941.969 182.689 951.289 161.963C959.967 142.665 963.369 120.511 961.404 96.11C960.538 85.3684 955.691 76.6695 951 68.2545C945.669 58.6959 940.159 48.81 940.553 35.9193C940.953 22.8512 937.638 10.7925 931.187 0.630615H930.448C936.971 10.761 940.322 22.8196 939.923 35.8996C939.524 48.9796 945.073 58.897 950.424 68.5266C955.086 76.8864 959.904 85.5341 960.761 96.1534C963.626 131.73 956.38 180.698 905.611 211.937C872.904 232.048 853.393 237.738 834.526 243.227C815.381 248.803 797.294 254.067 767.392 274.091C756.427 281.469 747.291 290.986 740.611 301.99C733.994 312.792 729.732 324.722 728.073 337.086C725.016 360.383 731.652 382.387 746.769 399.039C766.964 421.816 790.658 435.318 817.178 444.257H819.073C791.981 435.361 767.812 421.832 747.269 398.676Z" fill="white" fill-opacity="0.1"/>
<path d="M1307.27 2.81178C1310.01 6.94831 1312.85 11.2268 1315.98 15.4304L1316 15.4619C1320.83 20.3004 1326.45 24.4566 1332.39 28.8692C1346.25 39.1218 1361.95 50.7743 1371.78 74.8797C1383.89 104.589 1388.36 126.423 1377.33 156.668C1366.21 187.193 1338.52 226.52 1284.76 288.166C1272.84 301.833 1260.2 320.501 1245.57 342.075C1223.18 375.116 1197.33 413.259 1166.27 444.305H1167.14C1198.05 413.295 1223.79 375.297 1246.1 342.394C1260.72 320.816 1273.35 302.172 1285.25 288.54C1339.05 226.808 1366.77 187.426 1377.93 156.834C1383.32 142.054 1385.17 128.726 1383.76 114.889C1382.58 103.37 1379.17 91.3312 1372.37 74.6431C1362.48 50.3839 1346.7 38.692 1332.78 28.3763C1326.86 23.9952 1321.27 19.8508 1316.48 15.0518C1313.36 10.8877 1310.54 6.62496 1307.8 2.49631L1306.58 0.654785H1305.84L1307.27 2.81178Z" fill="white" fill-opacity="0.1"/>
<path d="M1281.26 2.59489C1288.31 15.6078 1296.29 30.3243 1325.11 53.4952C1383.65 100.574 1364.76 155.319 1348.29 183.759C1327.17 220.214 1302.69 245.475 1281.08 267.751C1263.79 285.591 1248.85 300.997 1238.3 318.967C1196.49 390.144 1180.01 418.196 1145.92 444.269H1146.91C1157.1 436.423 1166.42 427.62 1174.72 417.999C1193 396.843 1209.28 369.591 1238.85 319.251C1249.35 301.34 1264.28 285.961 1281.55 268.149C1303.18 245.838 1327.7 220.55 1348.85 184.035C1357.18 169.653 1366.77 147.251 1365.17 122.215C1363.49 96.1342 1350.17 72.8608 1325.52 53.0417C1296.81 29.9457 1288.85 15.2687 1281.84 2.31492L1280.92 0.654785H1280.21C1280.56 1.29754 1280.91 1.9403 1281.26 2.59489Z" fill="white" fill-opacity="0.1"/>
<path d="M928.163 443.067C832.56 428.666 785.87 413.847 761.915 364.11C753.645 346.941 752.465 331.861 758.311 318.02C771.752 286.143 820.421 267.278 867.477 249.012C883.136 242.94 897.929 237.206 911.534 230.999C933.728 220.869 949.828 207.237 960.761 189.323C970.556 173.269 976.302 153.438 978.327 128.737C984.127 89.0047 980.767 76.9973 975.647 58.8186C973.937 52.7459 972.001 45.8648 970.216 37.0673C968.238 21.7712 965.369 9.92551 960.975 0.654785H960.265C964.722 9.90974 967.612 21.7752 969.599 37.158C971.396 45.995 973.333 52.8879 975.059 58.9685C980.15 77.0801 983.518 89.0441 977.722 128.694C973.522 180.044 953.024 211.437 911.278 230.487C897.69 236.686 882.909 242.419 867.259 248.484C820.081 266.777 771.299 285.689 757.744 317.803C751.835 331.802 753.019 347.031 761.361 364.354C785.433 414.34 832.249 429.214 928.112 443.65C929.557 443.824 931.002 444.045 932.451 444.277H935.811C933.211 443.78 930.679 443.37 928.163 443.067Z" fill="white" fill-opacity="0.1"/>
<path d="M959.841 434.49C940.066 426.848 920.732 423.449 902.033 420.188C881.779 416.639 862.651 413.295 844.14 404.927C800.394 385.151 779.384 366.022 793.594 321.652C806.535 281.249 846.282 269.455 885.883 260.834C909.404 255.708 931.099 248.019 948.597 238.578C967.242 228.523 980.591 216.693 987.206 204.37C998.358 183.585 997.455 162.382 996.585 141.877C996.266 134.404 995.934 126.675 996.228 119.206C997.22 84.876 995.334 55.9439 990.638 33.2186C988.05 20.7223 984.547 9.83481 980.187 0.654785H979.532C991.881 26.2863 997.173 65.3251 995.598 119.187C995.304 126.679 995.636 134.416 995.955 141.9C996.825 162.331 997.724 183.455 986.643 204.102C980.087 216.326 966.822 228.069 948.282 238.066C930.838 247.475 909.219 255.148 885.74 260.259C845.959 268.914 806.027 280.764 792.989 321.479C786.172 342.773 787.134 358.83 796.013 372.016C804.023 383.917 818.334 393.917 843.867 405.459C862.449 413.863 881.623 417.218 901.919 420.771C920.585 424.04 939.89 427.42 959.602 435.038C963.522 436.558 967.364 438.052 971.127 439.522C975.294 441.146 979.377 442.731 983.375 444.277H985.056C980.6 442.566 976.044 440.798 971.388 438.974C967.608 437.515 963.759 436.02 959.841 434.49Z" fill="white" fill-opacity="0.1"/>
<path d="M1262.22 19.6142C1275.75 46.3657 1295.4 64.2052 1312.75 79.9469C1335.01 100.137 1352.56 116.087 1347.33 141.904C1334.15 206.945 1290.82 243.346 1256 272.59C1251.41 276.446 1247.08 280.082 1242.87 283.729C1222.24 301.616 1215.24 319.487 1207.84 338.411C1202.56 351.89 1197.11 365.825 1186.29 380.061C1163.82 409.635 1143.42 430.645 1123.64 444.281H1124.71C1144.33 430.594 1164.55 409.667 1186.8 380.4C1197.67 366.101 1203.14 352.126 1208.43 338.601C1215.81 319.748 1222.78 301.928 1243.29 284.155C1247.49 280.512 1251.83 276.872 1256.42 273.019C1273.9 258.334 1293.71 241.694 1310.51 220.818C1329.83 196.831 1342.05 171.049 1347.94 142.003C1353.24 115.87 1335.56 99.8094 1313.17 79.5092C1295.87 63.8069 1276.27 45.991 1262.77 19.354C1259.54 12.9092 1255.89 6.66354 1251.82 0.654785L1251.05 0.654785C1255.21 6.73776 1258.94 13.0713 1262.22 19.6142V19.6142Z" fill="white" fill-opacity="0.1"/>
<path d="M1241.05 35.1974C1241.05 35.2406 1241.05 35.2842 1241.05 35.3275C1245.22 60.0244 1264.8 73.9207 1283.75 87.3792C1312.44 107.731 1339.53 126.954 1318.31 180.879C1307.42 208.557 1293.08 220.671 1271.39 239.007L1269.98 240.19C1264.22 245.06 1257.45 249.824 1250.29 254.867C1230.55 268.76 1208.19 284.509 1201.31 307.467C1181.49 373.616 1143.73 421.429 1097.73 438.626C1090.93 441.176 1083.87 443.069 1076.66 444.277H1084.61C1089.29 443.164 1093.88 441.765 1098.36 440.089C1122.89 430.913 1144.9 413.42 1163.77 388.092C1180.33 365.872 1193.87 338.138 1202.94 307.889C1209.66 285.448 1231.79 269.868 1251.31 256.125C1258.51 251.058 1265.3 246.267 1271.11 241.358L1272.53 240.175C1293.62 222.343 1308.86 209.46 1319.9 181.419C1325.09 168.233 1327.58 156.722 1327.53 146.229C1327.48 136.828 1325.36 128.484 1321.07 120.669C1313.12 106.224 1298.71 95.9993 1284.77 86.1095C1266.11 72.8718 1246.81 59.1845 1242.73 35.154C1242.81 22.7286 1240.7 12.7639 1236.3 4.69189C1235.53 3.30753 1234.69 1.96346 1233.78 0.665771H1231.76C1237.72 8.59183 1241.16 19.641 1241.05 35.1974Z" fill="white" fill-opacity="0.1"/>
<path d="M979.927 422.983C958.569 411.008 937.832 407.072 915.881 402.908C901.377 400.148 886.378 397.312 869.77 392.013C848.025 385.072 821.173 364.197 815.708 342.567C812.768 330.927 816.128 320.41 825.642 311.305C836.953 300.512 851.839 300.122 866.229 299.747C880.09 299.388 894.401 299.014 904.645 288.95C917.834 275.993 935.593 267.964 952.772 260.2C965.629 254.387 978.927 248.37 989.911 240.396C1002.26 231.429 1010.4 220.81 1014.81 207.931C1026.39 174.07 1024.71 162.394 1019.14 123.706C1017.07 109.293 1014.48 91.3707 1011.83 67.1035C1010.84 37.8402 1010.04 16.428 1008.56 0.654785H1006.88C1008.36 16.3728 1009.16 37.8087 1010.15 67.1863C1010.15 67.2047 1010.15 67.2232 1010.15 67.2415C1012.81 91.5323 1015.4 109.49 1017.48 123.919C1023.01 162.338 1024.68 173.932 1013.21 207.454C1003.62 235.451 978.566 246.788 952.041 258.78C934.732 266.607 916.83 274.699 903.431 287.866C893.666 297.46 880.33 297.807 866.183 298.178C851.457 298.572 836.231 298.966 824.445 310.205C814.478 319.72 811.004 330.734 814.07 342.934C817.43 356.196 827.599 367.182 835.546 374.063C845.656 382.813 857.934 389.903 869.233 393.507C885.937 398.842 900.991 401.697 915.549 404.458C937.353 408.594 957.972 412.502 979.066 424.34C996.377 434.048 1013.22 440.694 1029.59 444.277H1038.16C1019.44 441.336 1000.03 434.238 979.927 422.983Z" fill="white" fill-opacity="0.1"/>
<path d="M1195.99 9.59821C1210.49 21.6293 1211.83 32.2131 1213.01 41.539C1213.67 46.7915 1214.3 51.7483 1217.38 56.0268C1236.38 85.5148 1256.81 96.7809 1273.25 105.831C1285.9 112.806 1295.89 118.319 1300.09 129.865C1310.22 157.673 1308 179.894 1293.31 197.797C1280.29 213.653 1259.37 224.343 1239.13 234.682C1212.45 248.295 1187.29 261.134 1181.96 284.309C1180.18 292.034 1178.74 299.014 1177.34 305.765C1169.63 343.293 1164.98 365.943 1121.25 401.39C1100.37 419.103 1077.06 427.957 1051.33 427.952C1016.89 427.952 978.197 412.025 935.648 380.238C913.054 363.345 921.556 353.199 931.401 341.451C937.239 334.484 943.275 327.283 943.826 317.902C946.867 296.719 959.123 280.275 979.242 270.354C1018.54 254.253 1040.39 230.23 1046.03 196.913C1050.96 167.792 1043.2 136.415 1035.71 106.071C1027.84 74.2094 1020.41 44.114 1031.13 24.0938C1036.07 14.8717 1042.02 7.06398 1048.97 0.670558H1048.06C1041.28 7.01403 1035.45 14.7271 1030.57 23.8099C1019.74 44.0233 1027.21 74.2173 1035.1 106.19C1042.58 136.478 1050.32 167.8 1045.41 196.807C1039.81 229.907 1018.08 253.784 978.969 269.805C958.64 279.829 946.274 296.427 943.2 317.831C942.658 327.051 936.685 334.176 930.91 341.069C925.962 346.984 921.291 352.544 920.732 358.814C920.107 365.849 924.723 372.793 935.257 380.668C967.599 404.844 997.95 420.05 1025.48 425.862C1033.92 427.681 1042.55 428.615 1051.21 428.646C1058.93 428.663 1066.61 427.835 1074.12 426.177C1091.06 422.408 1107.06 414.21 1121.67 401.816C1165.56 366.239 1170.23 343.514 1177.95 305.859C1179.34 299.116 1180.77 292.136 1182.57 284.419C1187.86 261.505 1212.9 248.725 1239.4 235.195C1259.72 224.824 1280.72 214.102 1293.81 198.128C1308.63 180.06 1310.88 157.658 1300.68 129.644C1296.4 117.893 1286.32 112.333 1273.56 105.294C1257.2 96.2761 1236.85 85.0535 1217.92 55.6837C1214.92 51.5077 1214.33 46.8428 1213.65 41.4444C1212.45 31.9804 1211.1 21.302 1196.43 9.10924C1192.58 5.99601 1188.48 3.16929 1184.16 0.654785L1182.98 0.654785C1187.57 3.29954 1191.92 6.29057 1195.99 9.59821V9.59821Z" fill="white" fill-opacity="0.1"/>
<path d="M1141.68 13.3128C1161.35 26.3652 1180.52 47.8483 1198.64 77.159C1210.91 97.0096 1227.62 108.875 1242.32 119.352C1262.33 133.548 1278.13 144.799 1275.16 169.496C1272.68 189.409 1263.69 203.014 1247.68 211.113C1233.65 218.211 1215.91 220.183 1200.25 221.949C1180.51 224.166 1163.5 226.078 1156.05 236.571C1156.03 236.586 1156.02 236.602 1156.02 236.619C1149.3 251.185 1149.83 262.68 1150.42 274.845C1151.34 293.982 1152.39 315.67 1126.8 356.219C1118.16 369.91 1096.26 385.191 1071.02 395.152C1042.82 406.28 1015.89 408.835 997.157 402.155C984.434 397.62 975.466 389.012 970.502 376.567C964.865 362.438 964.449 343.407 969.267 320.004C973.37 300.043 986.122 293.292 1002.26 284.743C1021.25 274.691 1044.88 262.183 1066.82 223.85C1075.51 208.672 1078.63 191.823 1076.33 172.343C1074.29 154.972 1068.23 137.089 1062.36 119.794C1054.15 95.5664 1045.65 70.5027 1047.71 45.9516C1052.65 22.5086 1068.02 5.509 1088.29 0.654785H1085.97C1077.21 3.1785 1069.29 8.04061 1062.78 14.9296C1055.06 23.1317 1049.65 33.8062 1047.1 45.8609C1045.03 70.5658 1053.55 95.6768 1061.78 119.96C1073.98 155.962 1085.52 189.965 1066.28 223.558C1044.44 261.741 1020.89 274.202 1001.97 284.218C985.686 292.838 972.824 299.652 968.662 319.878C963.827 343.396 964.251 362.532 969.922 376.764C974.962 389.382 984.043 398.097 996.947 402.695C1003.88 405.168 1011.92 406.39 1020.72 406.39C1035.9 406.39 1053.34 402.766 1071.28 395.684C1096.64 385.68 1118.65 370.301 1127.35 356.507C1153.04 315.808 1151.99 294.025 1151.06 274.81C1150.48 262.715 1149.93 251.296 1156.6 236.867C1163.9 226.614 1180.79 224.722 1200.34 222.525C1216.05 220.763 1233.86 218.763 1247.99 211.622C1264.2 203.432 1273.29 189.67 1275.8 169.551C1277.18 158.064 1274.64 148.699 1267.81 140.078C1261.64 132.302 1252.46 125.776 1242.74 118.867C1228.04 108.433 1211.41 96.6113 1199.2 76.8632C1181.04 47.4737 1161.82 25.9314 1142.08 12.8317C1133.2 6.96408 1124.3 2.88276 1115.6 0.654785H1113.04C1122.43 2.69742 1132.08 6.96408 1141.68 13.3128Z" fill="white" fill-opacity="0.1"/>
<path d="M1070.23 66.7565C1070.87 81.3705 1075.12 97.4197 1081.88 110.795C1089.98 126.79 1090.79 135.768 1091.5 143.687C1092.44 154.184 1093.26 163.245 1110.4 184.697C1116.08 191.795 1128.17 197.063 1144.45 199.488C1151.13 200.459 1157.88 200.938 1164.64 200.92C1174.24 200.935 1183.81 200.02 1193.2 198.187C1218.13 193.222 1234.37 182.441 1237.73 168.612C1239.69 160.584 1237.46 151.581 1231.1 141.857C1224.06 131.064 1211.88 119.341 1194.89 106.99C1179.14 98.0664 1168.09 82.238 1157.41 66.9301C1146.49 51.2948 1136.19 36.5271 1121.7 29.9891C1112.33 25.9314 1104 24.0741 1096.92 24.4409C1090.41 24.7839 1084.94 27.0159 1080.67 31.0735C1073.25 38.1163 1069.55 50.798 1070.23 66.7565ZM1098.68 24.9574C1105.23 24.9574 1112.83 26.8187 1121.43 30.5372C1135.75 37.0082 1146.01 51.7049 1156.87 67.2692C1167.6 82.6481 1178.68 98.5199 1194.52 107.491C1211.43 119.778 1223.55 131.447 1230.56 142.192C1236.82 151.782 1239.03 160.639 1237.11 168.51C1233.8 182.106 1217.75 192.726 1193.07 197.643C1177.53 200.742 1159.83 201.216 1144.55 198.936C1128.43 196.535 1116.49 191.361 1110.9 184.374C1093.87 163.044 1093.07 154.058 1092.13 143.655C1091.41 135.682 1090.6 126.651 1082.46 110.559C1075.74 97.2541 1071.51 81.2837 1070.87 66.7447C1070.18 50.9715 1073.81 38.4475 1081.12 31.5191C1085.72 27.1342 1091.6 24.9535 1098.69 24.9535L1098.68 24.9574Z" fill="white" fill-opacity="0.1"/>
<path d="M1129.46 151.802C1129.47 151.818 1129.48 151.833 1129.5 151.845C1133.94 156.375 1139.34 159.995 1145.34 162.477C1151.35 164.96 1157.84 166.253 1164.4 166.274C1167.4 166.286 1170.39 165.98 1173.31 165.359C1181.57 163.557 1187.34 159.251 1189.12 153.529C1190.69 148.509 1189.96 140.035 1177.7 128.185C1147.95 98.6105 1133.03 103.902 1128 107.542C1123.06 111.119 1120.44 117.665 1120.66 125.981C1120.88 134.412 1124 143.576 1129.46 151.802ZM1128.41 108.031C1133.3 104.482 1147.86 99.4031 1177.26 128.611C1189.34 140.26 1190.06 148.513 1188.54 153.383C1186.82 158.88 1181.23 163.036 1173.19 164.791C1160.8 167.492 1142.64 164.42 1129.98 151.475C1124.6 143.343 1121.52 134.294 1121.31 125.985C1121.09 117.972 1123.68 111.43 1128.39 108.023L1128.41 108.031Z" fill="white" fill-opacity="0.1"/>
<path d="M669.715 129.833C681.669 136.813 692.371 140.247 702.254 140.247C704.108 140.249 705.96 140.125 707.795 139.877C719.816 138.248 731.073 131.241 742.237 118.441C749.205 109.229 751.179 98.8069 747.949 88.3019C745.081 78.976 738.23 70.0641 728.657 63.2107C718.48 55.9195 706.564 51.8184 695.11 51.6607C682.202 51.4832 671.08 56.3453 662.915 65.7068V65.7304C650.986 82.3554 646.592 95.1909 649.083 106.122C651.112 115.16 657.87 122.916 669.715 129.833ZM663.414 66.0735C680.636 46.3372 709.08 49.9296 728.279 63.6799C745.921 76.2985 756.904 98.0301 741.741 118.098C729.09 132.613 716.468 139.754 702.359 139.754C692.493 139.754 681.896 136.257 670.063 129.348C658.374 122.518 651.708 114.888 649.684 106.015C647.218 95.2382 651.578 82.5486 663.398 66.0735H663.414Z" fill="white" fill-opacity="0.1"/>
<path d="M685.214 96.0469C689.028 103.859 694.635 108.074 700.969 108.074C702.299 108.068 703.622 107.892 704.901 107.549C713.024 105.412 719.366 97.2377 718.468 90.0609C717.569 82.8841 709.807 78.5149 697.155 78.0417C695.345 77.9757 693.544 78.3179 691.903 79.0397C690.263 79.7614 688.83 80.8417 687.726 82.1901C684.785 85.739 683.798 91.027 685.205 95.9916C685.206 96.0103 685.209 96.0288 685.214 96.0469ZM688.221 82.5568C689.263 81.2799 690.617 80.2569 692.168 79.574C693.719 78.8911 695.422 78.5685 697.134 78.6332C713.982 79.2602 717.342 86.1058 717.842 90.1279C718.707 97.0406 712.579 104.915 704.728 106.982C697.143 108.977 690.246 104.911 685.798 95.8221C684.462 91.0349 685.39 85.952 688.221 82.5568Z" fill="white" fill-opacity="0.1"/>
<path d="M203.928 402.529C215.865 421.978 228.181 442.049 249.56 442.049C250.868 442.048 252.176 441.975 253.475 441.828H253.584C271.019 437.747 285.162 427.104 298.838 416.812C316.269 403.693 332.734 391.299 355.046 392.044C379.361 393.306 401.61 389.678 421.184 381.212C438.48 373.743 453.639 362.572 466.236 348.009C485.049 326.254 493.739 302.267 497.738 285.969C502.707 265.614 503.173 245.605 498.998 231.07C493.193 210.762 472.259 188.419 444.361 172.768C412.468 154.866 375.926 147.531 341.424 152.078C307.936 156.51 290.265 184.184 273.174 210.951C267.714 219.512 262.056 228.365 256.062 236.066C215.353 278.544 199.094 299.952 180.36 335.635C170.036 356.318 178.962 367.793 189.298 381.082C191.991 384.544 194.78 388.128 197.355 392.04C199.56 395.412 201.782 399.032 203.928 402.529ZM181.872 336.321C200.505 300.788 216.735 279.462 257.335 237.107C257.354 237.087 257.372 237.066 257.389 237.044C263.438 229.276 269.117 220.38 274.61 211.775C291.5 185.328 308.965 157.993 341.66 153.655C375.783 149.14 411.951 156.415 443.5 174.105C471.037 189.555 491.681 211.535 497.377 231.46C505.614 260.29 495.73 311.387 464.934 347C446.369 368.459 412.258 393.408 355.126 390.451C332.167 389.69 315.467 402.257 297.788 415.566C284.267 425.74 270.284 436.26 253.227 440.271C230.545 442.719 217.751 421.887 205.386 401.745C203.231 398.235 201.005 394.603 198.783 391.216C196.174 387.249 193.369 383.641 190.655 380.151C180.633 367.268 171.981 356.144 181.872 336.321Z" fill="white" fill-opacity="0.1"/>
<path d="M231.705 373.431C238.118 378.834 247.489 381.535 259.725 381.535C270.872 381.535 284.376 379.291 300.236 374.804C320.062 369.181 339.967 368.171 359.2 367.225C379.479 366.211 400.451 365.162 420.785 358.549C438.178 353.612 458.974 332.476 473.767 304.703C488.724 276.615 493.593 249.391 486.788 231.878C476.191 204.622 452.846 188.537 435.125 179.827C413.48 169.207 387.527 163.363 363.925 163.777C350.249 164.018 338.594 168.013 327.253 176.341C315.706 184.815 303.639 198.376 289.274 219.007C284.872 224.993 278.353 232.111 271.486 239.651C253.004 259.9 229.97 285.101 225.597 311.048C225.287 312.898 224.854 315.078 224.392 317.389C221.221 333.395 215.895 360.127 231.705 373.431ZM225.018 317.531C225.476 315.216 225.912 313.032 226.223 311.174C230.571 285.393 253.525 260.258 271.969 240.065C278.865 232.521 285.376 225.388 289.82 219.37C317.743 179.263 337.144 164.878 363.963 164.4C364.749 164.4 365.534 164.377 366.324 164.377C412.107 164.377 468.983 187.788 486.213 232.095C492.962 249.446 488.107 276.509 473.225 304.455C458.524 332.09 437.859 353.108 420.613 358.001C400.35 364.575 379.425 365.624 359.188 366.633C339.917 367.595 319.99 368.605 300.073 374.236C267.084 383.585 244.209 383.167 232.146 372.994C216.588 359.91 221.863 333.379 225.018 317.531Z" fill="white" fill-opacity="0.1"/>
<path d="M371.427 328.998C378.001 328.813 384.801 328.604 391.517 329.03C393.435 329.223 395.363 329.321 397.293 329.322C409.969 329.322 422.57 325.102 434.053 316.963C446.15 308.387 456.088 296.036 462.04 282.175C467.274 269.987 469.025 257.624 467.105 246.418C465.005 234.11 458.403 223.625 448.032 216.09C389.358 176.104 354.786 187.303 336.153 203.767C317.122 220.557 310.25 245.779 307.856 259.336C304.361 279.092 306.037 298.323 312.027 307.192C327.622 330.237 348.893 329.637 371.427 328.998ZM308.477 259.419C310.859 245.948 317.68 220.869 336.586 204.212C355.067 187.915 389.341 176.834 447.654 216.571C471.176 233.677 470.214 261.568 461.456 281.966C450.838 306.695 424.439 331.782 391.572 328.45C388.632 328.273 385.641 328.206 382.684 328.206C378.904 328.206 375.123 328.312 371.41 328.419C349.061 329.05 327.946 329.645 312.56 306.872C306.646 298.106 305.004 279.052 308.477 259.419Z" fill="white" fill-opacity="0.1"/>
<path d="M389.446 289.955C391.234 290.364 393.067 290.569 394.907 290.566C402.614 290.566 413.04 287.076 425.204 274.15L425.254 274.095C437.279 257.714 430.815 247.596 425.888 243.018C414.434 232.371 390.186 230.541 376.938 239.311L376.879 239.354C368.97 246.026 365.933 257.186 368.966 268.487C371.935 279.521 379.777 287.751 389.446 289.955ZM377.686 240.269C383.734 236.282 392.58 234.402 401.963 235.107C411.347 235.813 419.764 239.011 424.994 243.869C433.008 251.314 432.735 261.804 424.229 273.405C409.305 289.249 397.225 290.535 389.724 288.819C380.508 286.717 373.019 278.819 370.176 268.211C367.286 257.34 370.163 246.638 377.707 240.257L377.686 240.269Z" fill="white" fill-opacity="0.1"/>
<path d="M350.149 301.49C360.28 307.712 373.67 310.843 390.081 310.843C395.341 310.828 400.597 310.539 405.823 309.98C415.089 308.438 424.725 302.251 432.945 292.562C440.64 283.492 446.57 271.899 449.221 260.759C453.287 243.637 449.38 229.69 438.51 222.489C412.745 205.431 400.989 197.646 367.907 203.203C357.344 204.977 346.486 214.07 338.867 227.529C331.092 241.252 327.849 257.005 329.97 270.748C332.016 284.013 338.993 294.644 350.149 301.49ZM339.421 227.789C346.952 214.492 357.642 205.513 368.021 203.767C375.077 202.584 381.159 202.008 386.611 202.008C406.512 202.008 418.038 209.642 438.145 222.959C448.801 230.013 452.615 243.74 448.603 260.613C445.978 271.655 440.089 283.173 432.449 292.179C424.326 301.754 414.829 307.866 405.735 309.38C382.159 311.833 363.573 309.01 350.493 300.981C339.492 294.23 332.612 283.737 330.592 270.645C328.492 257.045 331.709 241.421 339.421 227.789Z" fill="white" fill-opacity="0.1"/>
<path d="M306.579 343.683C318.566 348.494 335.981 351.077 356.054 351.077C358.116 351.077 360.212 351.049 362.325 350.994C383.856 350.434 405.13 347.051 420.709 341.719C431.117 339.807 455.223 319.14 469.365 291.044C477.976 273.938 485.427 248.685 472.032 225.53C457.428 200.293 424.367 184.046 373.771 177.295C337.724 172.488 323.787 195.131 306.146 223.799C301.748 230.948 297.2 238.346 291.991 245.85C276.669 267.932 271.435 293.232 277.992 313.501C282.553 327.575 292.436 338.013 306.579 343.683ZM292.529 246.173C297.746 238.653 302.299 231.252 306.701 224.09C322.632 198.191 335.515 177.24 364.526 177.24C367.588 177.25 370.645 177.464 373.674 177.879C424.078 184.602 456.966 200.726 471.474 225.81C484.738 248.748 477.354 273.808 468.785 290.788C454.719 318.742 430.823 339.29 420.558 341.14H420.507C390.324 351.491 335.292 354.547 306.827 343.111C292.861 337.512 283.099 327.204 278.605 313.3C272.099 293.225 277.303 268.121 292.529 246.173Z" fill="white" fill-opacity="0.1"/>
</svg>
