<svg width="195" height="53" viewBox="0 0 195 53" fill="none" xmlns="http://www.w3.org/2000/svg">
<path d="M62.1642 5.33558H64.8874V17.8931H72.2049V20.5292H62.1642V5.33558Z" fill="black"/>
<path d="M81.2009 5.33558H91.4495V7.97162H83.9241V11.5832H90.5972V14.2193H83.9241V17.8931H91.7405V20.5292H81.2009V5.33558Z" fill="black"/>
<path d="M99.8502 12.9324C99.8502 11.8946 100.044 10.9052 100.432 9.96422C100.834 9.02327 101.389 8.19302 102.095 7.47347C102.816 6.75392 103.641 6.1935 104.569 5.79222C105.512 5.37709 106.516 5.16953 107.583 5.16953C108.651 5.16953 109.655 5.37709 110.598 5.79222C111.54 6.1935 112.372 6.75392 113.092 7.47347C113.813 8.19302 114.374 9.02327 114.776 9.96422C115.192 10.9052 115.4 11.9015 115.4 12.9531C115.4 14.0186 115.192 15.0218 114.776 15.9628C114.374 16.8899 113.813 17.7132 113.092 18.4328C112.372 19.1385 111.54 19.692 110.598 20.0933C109.655 20.4946 108.651 20.6952 107.583 20.6952C106.53 20.6952 105.532 20.4946 104.59 20.0933C103.648 19.692 102.816 19.1385 102.095 18.4328C101.389 17.7271 100.834 16.9106 100.432 15.9835C100.044 15.0426 99.8502 14.0255 99.8502 12.9324ZM102.677 12.9531C102.677 13.8941 102.899 14.752 103.343 15.5269C103.786 16.3018 104.382 16.9176 105.13 17.3742C105.893 17.8308 106.745 18.0592 107.687 18.0592C108.602 18.0592 109.427 17.8308 110.161 17.3742C110.91 16.9176 111.499 16.3018 111.928 15.5269C112.358 14.752 112.573 13.8941 112.573 12.9531C112.573 11.9845 112.351 11.1127 111.907 10.3378C111.464 9.56293 110.868 8.94717 110.12 8.49053C109.385 8.03389 108.554 7.80557 107.625 7.80557C106.683 7.80557 105.837 8.03389 105.089 8.49053C104.354 8.94717 103.765 9.56293 103.322 10.3378C102.892 11.1127 102.677 11.9845 102.677 12.9531Z" fill="black"/>
<path d="M128.778 5.33558C130.607 5.33558 132.014 5.7853 132.998 6.68473C133.982 7.58417 134.474 8.80187 134.474 10.3378C134.474 10.9467 134.384 11.5625 134.204 12.1851C134.023 12.794 133.725 13.3475 133.31 13.8456C132.908 14.3438 132.367 14.7451 131.688 15.0495C131.023 15.3539 130.205 15.5061 129.235 15.5061H127.052V20.5292H124.329V5.33558H128.778ZM129.214 12.8493C129.713 12.8493 130.122 12.7663 130.441 12.6003C130.774 12.4342 131.03 12.2197 131.21 11.9568C131.404 11.6939 131.543 11.4241 131.626 11.1473C131.709 10.8706 131.751 10.6215 131.751 10.4001C131.751 10.2064 131.716 9.97806 131.647 9.71515C131.591 9.4384 131.473 9.16857 131.293 8.90565C131.127 8.6289 130.877 8.4075 130.545 8.24145C130.226 8.06157 129.797 7.97162 129.256 7.97162H127.052V12.8493H129.214Z" fill="black"/>
<path d="M139.936 20.5292L146.755 4.71289H146.9L153.719 20.5292H150.559L146.006 8.98868L147.981 7.66028L142.639 20.5292H139.936ZM144.426 14.9665H149.291L150.247 17.2704H143.595L144.426 14.9665Z" fill="black"/>
<path d="M166.384 5.33558C167.59 5.33558 168.623 5.53622 169.482 5.93751C170.355 6.3388 171.02 6.91305 171.477 7.66028C171.949 8.4075 172.184 9.30002 172.184 10.3378C172.184 10.9467 172.087 11.5555 171.893 12.1644C171.713 12.7732 171.415 13.3267 170.999 13.8249C170.597 14.323 170.05 14.7243 169.357 15.0287C168.678 15.3332 167.84 15.4854 166.842 15.4854H164.659V20.5292H161.936V5.33558H166.384ZM166.821 12.8493C167.486 12.8493 167.999 12.7179 168.359 12.455C168.733 12.1782 168.99 11.853 169.128 11.4794C169.281 11.1058 169.357 10.7599 169.357 10.4416C169.357 10.2341 169.322 9.9919 169.253 9.71515C169.198 9.4384 169.08 9.16857 168.9 8.90565C168.733 8.6289 168.484 8.4075 168.151 8.24145C167.819 8.06157 167.389 7.97162 166.862 7.97162H164.659V12.8493H166.821ZM169.544 14.5306L173.369 20.5292H170.189L166.28 14.5929L169.544 14.5306Z" fill="black"/>
<path d="M181.866 20.5292V5.33558H186.293C187.818 5.33558 189.114 5.5639 190.181 6.02053C191.248 6.46333 192.107 7.06526 192.759 7.82633C193.424 8.58739 193.909 9.4384 194.214 10.3793C194.519 11.3065 194.671 12.2405 194.671 13.1814C194.671 14.3023 194.463 15.3193 194.047 16.2326C193.646 17.132 193.091 17.9069 192.384 18.5573C191.691 19.1938 190.881 19.6851 189.952 20.031C189.038 20.3631 188.067 20.5292 187.042 20.5292H181.866ZM184.589 17.8931H186.564C187.603 17.8931 188.518 17.7063 189.308 17.3327C190.098 16.9591 190.714 16.4125 191.158 15.6929C191.615 14.9596 191.844 14.0601 191.844 12.9946C191.844 12.0122 191.678 11.1958 191.345 10.5454C191.026 9.89503 190.624 9.38305 190.139 9.00943C189.654 8.62198 189.135 8.35215 188.58 8.19994C188.04 8.03389 187.541 7.95087 187.083 7.95087H184.589V17.8931Z" fill="black"/>
<path d="M73.2926 37.4633C73.1119 37.6206 72.859 37.7778 72.5338 37.9351C72.2086 38.0924 71.8413 38.2376 71.4318 38.3706C71.0344 38.4916 70.6249 38.5884 70.2034 38.661C69.7818 38.7336 69.3844 38.7699 69.011 38.7699C67.614 38.7699 66.4036 38.4916 65.3799 37.9351C64.3561 37.3665 63.5613 36.5983 62.9952 35.6305C62.4412 34.6627 62.1642 33.5618 62.1642 32.3278C62.1642 31.2028 62.3388 30.2047 62.6881 29.3337C63.0494 28.4626 63.5432 27.7307 64.1695 27.1379C64.7957 26.5452 65.5063 26.0975 66.3012 25.7951C67.1081 25.4806 67.9632 25.3233 68.8665 25.3233C69.6493 25.3233 70.372 25.414 71.0344 25.5955C71.6968 25.777 72.2749 26.0068 72.7687 26.2851L72.1364 28.0453C71.8955 27.9001 71.5944 27.767 71.2331 27.646C70.8838 27.513 70.5165 27.4101 70.1311 27.3376C69.7577 27.265 69.4145 27.2287 69.1014 27.2287C68.0897 27.2287 67.2105 27.4283 66.4638 27.8275C65.7171 28.2267 65.139 28.7953 64.7295 29.5333C64.32 30.2712 64.1153 31.1483 64.1153 32.1645C64.1153 33.096 64.32 33.9187 64.7295 34.6325C65.151 35.3341 65.7291 35.8846 66.4638 36.2838C67.2105 36.683 68.0716 36.8826 69.0472 36.8826C69.4807 36.8826 69.9023 36.8403 70.3117 36.7556C70.7333 36.6709 71.0886 36.5439 71.3776 36.3745V33.9429H68.8304V32.1101H73.2926V37.4633Z" fill="#828282"/>
<path d="M81.6376 25.4685H83.5164V36.7919H90.0922V38.6247H81.6376V25.4685Z" fill="#828282"/>
<path d="M96.632 38.6247L102.395 24.9241H102.503L108.266 38.6247H106.08L101.889 27.9001L103.244 27.0109L98.5108 38.6247H96.632ZM100.119 33.6888H104.816L105.466 35.322H99.5586L100.119 33.6888Z" fill="#828282"/>
<path d="M115.695 38.6247V25.033H115.713L122.65 34.9228L121.837 34.7595L128.756 25.033H128.792V38.6247H126.913V29.3337L127.022 30.2954L122.18 37.2093H122.144L117.194 30.2954L117.519 29.4063V38.6247H115.695Z" fill="#828282"/>
<path d="M141.125 25.4685C142.571 25.4685 143.703 25.8314 144.522 26.5573C145.341 27.2831 145.75 28.2993 145.75 29.6059C145.75 30.1261 145.672 30.6402 145.515 31.1483C145.359 31.6564 145.106 32.1222 144.756 32.5456C144.419 32.9569 143.968 33.2896 143.402 33.5437C142.848 33.7856 142.167 33.9066 141.36 33.9066H139.427V38.6247H137.548V25.4685H141.125ZM141.342 32.0556C141.836 32.0556 142.245 31.977 142.571 31.8197C142.908 31.6504 143.167 31.4387 143.347 31.1846C143.54 30.9306 143.673 30.6644 143.745 30.3862C143.829 30.1079 143.871 29.8599 143.871 29.6422C143.871 29.4002 143.829 29.1462 143.745 28.88C143.673 28.6018 143.54 28.3477 143.347 28.1179C143.167 27.8759 142.92 27.6823 142.607 27.5372C142.294 27.3799 141.902 27.3013 141.432 27.3013H139.427V32.0556H141.342Z" fill="#828282"/>
<path d="M153.474 25.4685H155.353V38.6247H153.474V25.4685Z" fill="#828282"/>
<path d="M175.524 39.0783L165.426 28.9526L165.986 29.1341L166.022 38.6247H164.125V25.0511H164.197L174.17 35.1768L173.736 35.068L173.7 25.4685H175.579V39.0783H175.524Z" fill="#828282"/>
<path d="M194.671 37.4633C194.49 37.6206 194.238 37.7778 193.912 37.9351C193.587 38.0924 193.22 38.2376 192.81 38.3706C192.413 38.4916 192.003 38.5884 191.582 38.661C191.16 38.7336 190.763 38.7699 190.39 38.7699C188.993 38.7699 187.782 38.4916 186.758 37.9351C185.735 37.3665 184.94 36.5983 184.374 35.6305C183.82 34.6627 183.543 33.5618 183.543 32.3278C183.543 31.2028 183.717 30.2047 184.067 29.3337C184.428 28.4626 184.922 27.7307 185.548 27.1379C186.174 26.5452 186.885 26.0975 187.68 25.7951C188.487 25.4806 189.342 25.3233 190.245 25.3233C191.028 25.3233 191.751 25.414 192.413 25.5955C193.075 25.777 193.653 26.0068 194.147 26.2851L193.515 28.0453C193.274 27.9001 192.973 27.767 192.612 27.646C192.262 27.513 191.895 27.4101 191.51 27.3376C191.136 27.265 190.793 27.2287 190.48 27.2287C189.468 27.2287 188.589 27.4283 187.842 27.8275C187.096 28.2267 186.518 28.7953 186.108 29.5333C185.699 30.2712 185.494 31.1483 185.494 32.1645C185.494 33.096 185.699 33.9187 186.108 34.6325C186.53 35.3341 187.108 35.8846 187.842 36.2838C188.589 36.683 189.45 36.8826 190.426 36.8826C190.859 36.8826 191.281 36.8403 191.69 36.7556C192.112 36.6709 192.467 36.5439 192.756 36.3745V33.9429H190.209V32.1101H194.671V37.4633Z" fill="#828282"/>
<path d="M65.7995 52.9982H62.3837C62.2374 52.9982 62.1643 52.9251 62.1643 52.7789V46.5009C62.1643 46.3546 62.2374 46.2815 62.3837 46.2815H65.7995C65.9388 46.2815 66.0084 46.3546 66.0084 46.5009V47.2112C66.0084 47.3574 65.9388 47.4305 65.7995 47.4305H63.6163C63.5327 47.4305 63.4909 47.4689 63.4909 47.5455V48.9034C63.4909 48.98 63.5327 49.0183 63.6163 49.0183H65.4026C65.5488 49.0183 65.6219 49.0915 65.6219 49.2377V49.948C65.6219 50.0943 65.5488 50.1674 65.4026 50.1674H63.6163C63.5327 50.1674 63.4909 50.2057 63.4909 50.2823V51.7343C63.4909 51.8109 63.5327 51.8492 63.6163 51.8492H65.7995C65.9388 51.8492 66.0084 51.9223 66.0084 52.0686V52.7789C66.0084 52.9251 65.9388 52.9982 65.7995 52.9982Z" fill="black"/>
<path d="M70.1295 51.2851V51.0762C70.1295 50.9299 70.2026 50.8568 70.3489 50.8568H71.2368C71.383 50.8568 71.4561 50.9299 71.4561 51.0762V51.1598C71.4561 51.4244 71.5084 51.6054 71.6128 51.7029C71.7173 51.8004 71.9088 51.8492 72.1874 51.8492H72.6783C72.9499 51.8492 73.1379 51.797 73.2424 51.6925C73.3538 51.588 73.4095 51.393 73.4095 51.1075V50.9822C73.4095 50.7802 73.326 50.627 73.1588 50.5226C72.9987 50.4111 72.7967 50.345 72.553 50.3241C72.3092 50.3032 72.0446 50.2649 71.7591 50.2092C71.4805 50.1465 71.2194 50.0699 70.9756 49.9794C70.7319 49.8819 70.5265 49.6973 70.3593 49.4257C70.1992 49.1472 70.1191 48.792 70.1191 48.3602V47.9946C70.1191 47.4514 70.2723 47.0301 70.5787 46.7307C70.8851 46.4312 71.3099 46.2815 71.8531 46.2815H72.8977C73.4478 46.2815 73.8761 46.4312 74.1825 46.7307C74.489 47.0301 74.6422 47.4514 74.6422 47.9946V48.1931C74.6422 48.3393 74.569 48.4125 74.4228 48.4125H73.5349C73.3886 48.4125 73.3155 48.3393 73.3155 48.1931V48.1304C73.3155 47.8588 73.2633 47.6743 73.1588 47.5768C73.0544 47.4793 72.8629 47.4305 72.5843 47.4305H72.1769C71.8914 47.4305 71.6964 47.4863 71.5919 47.5977C71.4944 47.7021 71.4457 47.9111 71.4457 48.2244V48.4229C71.4457 48.7502 71.7312 48.9382 72.3023 48.987C72.8942 49.0357 73.42 49.1541 73.8796 49.3422C74.1233 49.4466 74.3253 49.6346 74.4855 49.9062C74.6526 50.1709 74.7362 50.5121 74.7362 50.9299V51.2851C74.7362 51.8283 74.583 52.2496 74.2766 52.5491C73.9701 52.8485 73.5453 52.9982 73.0021 52.9982H71.8635C71.3203 52.9982 70.8955 52.8485 70.5891 52.5491C70.2827 52.2496 70.1295 51.8283 70.1295 51.2851Z" fill="black"/>
<path d="M81.1402 52.9982H80.2627C80.1095 52.9982 80.0329 52.9251 80.0329 52.7789V47.5455C80.0329 47.4689 79.9946 47.4305 79.918 47.4305H78.7272C78.5809 47.4305 78.5078 47.3574 78.5078 47.2112V46.5009C78.5078 46.3546 78.5809 46.2815 78.7272 46.2815H82.6758C82.822 46.2815 82.8951 46.3546 82.8951 46.5009V47.2112C82.8951 47.3574 82.822 47.4305 82.6758 47.4305H81.4849C81.4013 47.4305 81.3596 47.4689 81.3596 47.5455V52.7789C81.3596 52.9251 81.2864 52.9982 81.1402 52.9982Z" fill="black"/>
<path d="M87.8816 51.494V52.7789C87.8816 52.9251 87.8154 52.9982 87.6831 52.9982H86.7534C86.6142 52.9982 86.5445 52.9251 86.5445 52.7789V51.5045C86.5445 51.3652 86.6142 51.2956 86.7534 51.2956H87.6831C87.8154 51.2956 87.8816 51.3617 87.8816 51.494Z" fill="black"/>
<path d="M92.3866 52.7789V51.7865C92.3866 51.3896 92.5572 51.0518 92.8985 50.7733L94.8205 49.1437C95.1339 48.886 95.2906 48.6075 95.2906 48.308V47.9946C95.2906 47.7787 95.2384 47.6255 95.1339 47.535C95.0364 47.4375 94.8728 47.3888 94.643 47.3888H94.2774C94.0545 47.3888 93.8978 47.4375 93.8073 47.535C93.7168 47.6255 93.6715 47.7787 93.6715 47.9946V48.3289C93.6715 48.4821 93.5984 48.5587 93.4521 48.5587H92.5642C92.418 48.5587 92.3448 48.4821 92.3448 48.3289V47.9737C92.3448 47.4305 92.4946 47.0127 92.794 46.7202C93.0935 46.4277 93.5183 46.2815 94.0684 46.2815H94.8623C95.4125 46.2815 95.8373 46.4277 96.1367 46.7202C96.4362 47.0127 96.5859 47.4305 96.5859 47.9737V48.3916C96.5859 48.9348 96.377 49.3839 95.9592 49.7391L93.9953 51.4105C93.9117 51.4871 93.87 51.5706 93.87 51.6612V51.8283H96.3665C96.5128 51.8283 96.5859 51.9014 96.5859 52.0477V52.7789C96.5859 52.9251 96.5128 52.9982 96.3665 52.9982H92.606C92.4598 52.9982 92.3866 52.9251 92.3866 52.7789Z" fill="black"/>
<path d="M102.678 51.8492H103.294C103.517 51.8492 103.673 51.8039 103.764 51.7134C103.855 51.6159 103.9 51.4557 103.9 51.2329V48.0469C103.9 47.824 103.855 47.6673 103.764 47.5768C103.673 47.4793 103.517 47.4305 103.294 47.4305H102.678C102.455 47.4305 102.298 47.4793 102.208 47.5768C102.117 47.6673 102.072 47.824 102.072 48.0469V51.2329C102.072 51.4557 102.117 51.6159 102.208 51.7134C102.298 51.8039 102.455 51.8492 102.678 51.8492ZM103.503 52.9982H102.458C101.908 52.9982 101.483 52.852 101.184 52.5595C100.884 52.267 100.735 51.8457 100.735 51.2956V47.9842C100.735 47.434 100.884 47.0127 101.184 46.7202C101.483 46.4277 101.908 46.2815 102.458 46.2815H103.503C104.046 46.2815 104.467 46.4312 104.767 46.7307C105.066 47.0232 105.216 47.441 105.216 47.9842V51.2956C105.216 51.8387 105.066 52.2601 104.767 52.5595C104.467 52.852 104.046 52.9982 103.503 52.9982Z" fill="black"/>
<path d="M109.406 52.7789V51.7865C109.406 51.3896 109.577 51.0518 109.918 50.7733L111.84 49.1437C112.153 48.886 112.31 48.6075 112.31 48.308V47.9946C112.31 47.7787 112.258 47.6255 112.153 47.535C112.056 47.4375 111.892 47.3888 111.663 47.3888H111.297C111.074 47.3888 110.917 47.4375 110.827 47.535C110.736 47.6255 110.691 47.7787 110.691 47.9946V48.3289C110.691 48.4821 110.618 48.5587 110.472 48.5587H109.584C109.438 48.5587 109.364 48.4821 109.364 48.3289V47.9737C109.364 47.4305 109.514 47.0127 109.814 46.7202C110.113 46.4277 110.538 46.2815 111.088 46.2815H111.882C112.432 46.2815 112.857 46.4277 113.156 46.7202C113.456 47.0127 113.605 47.4305 113.605 47.9737V48.3916C113.605 48.9348 113.397 49.3839 112.979 49.7391L111.015 51.4105C110.931 51.4871 110.89 51.5706 110.89 51.6612V51.8283H113.386C113.532 51.8283 113.605 51.9014 113.605 52.0477V52.7789C113.605 52.9251 113.532 52.9982 113.386 52.9982H109.626C109.479 52.9982 109.406 52.9251 109.406 52.7789Z" fill="black"/>
<path d="M117.441 48.1513V47.2948C117.441 47.1764 117.493 47.0858 117.598 47.0232L118.548 46.4277C118.708 46.3302 118.844 46.2815 118.956 46.2815H119.791C119.937 46.2815 120.011 46.3546 120.011 46.5009V52.7789C120.011 52.8624 119.993 52.9216 119.958 52.9565C119.93 52.9843 119.878 52.9982 119.802 52.9982H118.903C118.757 52.9982 118.684 52.9251 118.684 52.7789V47.6917L117.66 48.2767C117.514 48.3393 117.441 48.2976 117.441 48.1513Z" fill="black"/>
<path d="M0.181763 25.698C0.181763 23.5592 1.12917 21.5304 2.76902 20.1574L21.5599 4.42488C24.3438 2.09405 28.3981 2.09405 31.182 4.42488L49.9729 20.1574C51.6127 21.5304 52.5601 23.5592 52.5601 25.698V49.8848C52.5601 51.4811 51.266 52.7752 49.6697 52.7752H3.07217C1.47584 52.7752 0.181763 51.4811 0.181763 49.8848V25.698Z" fill="#305315"/>
<mask id="mask0_1_1601" style="mask-type:alpha" maskUnits="userSpaceOnUse" x="0" y="0" width="53" height="53">
<path d="M0 2.89041C0 1.29408 1.29408 0 2.89041 0H49.8802C51.4766 0 52.7706 1.29408 52.7706 2.89041V49.8802C52.7706 51.4766 51.4766 52.7706 49.8802 52.7706H2.89041C1.29408 52.7706 0 51.4766 0 49.8802V2.89041Z" fill="#C4C4C4"/>
</mask>
<g mask="url(#mask0_1_1601)">
<path d="M46.0998 64.7573C46.0998 64.7573 44.5016 68.8479 45.2685 75.9417C41.5621 68.5918 41.2422 64.2457 40.7307 57.2156C40.2192 50.1854 34.1461 49.1623 32.2304 50.5688C33.8923 39.4472 30.7602 38.2324 30.1214 33.5674C25.6473 37.7861 21.3649 33.631 21.3649 33.631C21.3649 33.631 18.6808 35.3597 16.8908 37.9134C16.1129 39.0253 15.1653 39.2908 14.345 39.2343C14.389 39.6091 14.3678 40.0593 14.8266 40.2455C16.2779 40.8349 19.7698 39.7466 22.1735 36.6177C24.1669 36.4841 27.5795 38.4336 29.3412 34.9126C29.3011 37.7248 30.1851 39.1557 29.6413 41.3299C29.5054 40.4003 28.8477 39.2665 27.9983 38.8555C29.338 41.8721 28.612 43.6487 28.612 43.6487C28.612 43.6487 27.31 38.3503 26.6264 42.8079C25.9428 47.2655 30.9127 59.7803 30.9127 59.7803L33.8318 66.8144C33.8318 66.8144 35.3742 57.8984 37.9468 58.0705C33.6251 72.9653 40.4353 81.7783 44.6579 88.3324C47.83 94.3316 48.3573 98.8521 47.2101 106.288C47.2017 106.469 47.1894 106.65 47.1732 106.83C50.1362 96.2512 51.9663 92.4867 52.4142 87.4468C52.1947 87.9025 51.966 88.3719 51.7282 88.8549C53.1936 79.2655 46.0998 64.7573 46.0998 64.7573Z" fill="#FFED90"/>
<path d="M52.2298 67.344C50.9797 62.4408 48.356 58.2865 45.4723 55.0123C45.013 54.7727 44.5786 54.4879 44.1758 54.1621C43.8489 53.9059 43.8458 53.6482 44.0242 53.4549C42.4208 51.8257 40.6738 50.3443 38.8044 49.0287C38.4791 49.6353 37.522 49.9481 37.1134 48.9337C36.8722 48.3349 36.6805 47.9051 36.5744 47.6136C36.0696 47.3223 35.5468 47.0636 35.0092 46.8388C35.0092 46.8388 36.2947 43.4011 36.407 40.4899C36.4646 39.2733 36.3623 38.0544 36.1029 36.8644C35.4743 36.6287 34.9887 35.7353 35.7941 35.7832C35.5499 35.0594 35.199 34.3761 34.753 33.756C34.5071 34.0577 33.2255 33.2059 33.0243 32.9498C32.9802 32.9009 32.9466 32.8434 32.9257 32.7809C32.9047 32.7185 32.8969 32.6524 32.9027 32.5868C32.9084 32.5211 32.9276 32.4574 32.9591 32.3995C32.9906 32.3417 33.0336 32.2909 33.0856 32.2504C32.4832 31.9136 31.8107 31.7212 31.1212 31.6886C31.0332 32.2387 30.6828 32.1326 30.3622 31.7083C29.9451 31.7523 29.5341 31.8416 29.1364 31.9746C24.9452 33.3568 24.3653 29.032 22.0025 29.6111C19.6397 30.1902 16.6523 33.4456 16.6523 33.4456C17.4035 32.2771 18.2698 31.1868 19.2382 30.191C17.0986 31.7515 14.2447 34.0255 13.7544 36.0315C13.4755 37.1724 12.5915 37.4192 11.8804 37.4199C12.6402 37.8969 12.7062 38.7314 13.6578 38.6583C14.2196 38.6151 14.3146 38.894 14.3547 39.2343C15.1766 39.2893 16.1242 39.0237 16.9022 37.9118C18.6921 35.3558 21.3763 33.6295 21.3763 33.6295C21.3763 33.6295 25.6586 37.7845 30.1327 33.5658C30.7716 38.2316 33.9044 39.4456 32.2417 50.5673C34.159 49.1607 40.2305 50.183 40.742 57.214C41.2536 64.2449 41.5734 68.5902 45.2798 75.9402C44.5129 68.8463 46.1111 64.7557 46.1111 64.7557C46.1111 64.7557 53.205 79.2639 51.7356 88.8509C51.9734 88.368 52.2021 87.8986 52.4216 87.4429C55.2173 81.6228 56.4289 77.9423 56.5539 74.4928C54.6177 72.8097 52.9912 70.3259 52.2298 67.344Z" fill="#FFD961"/>
<path d="M47.5088 46.7948C40.1384 46.3344 38.7649 46.2809 38.7649 46.2809C38.7649 46.2809 41.6069 44.0172 46.7379 43.5803C45.8375 40.6227 41.3366 30.851 36.7077 27.1202C36.0642 29.4351 33.879 30.6561 33.879 30.6561C33.879 30.6561 36.2544 24.9343 34.4542 22.3625C32.654 19.7907 28.7292 24.2271 28.7292 24.2271C28.7292 24.2271 28.7936 21.88 29.115 21.1084C25.9004 21.5555 14.9721 23.5843 15.6149 27.5705C14.0716 29.5639 11.1785 33.7434 11.1785 33.7434C11.1785 33.7434 13.0431 33.3576 13.1075 34.1284C13.1719 34.8992 11.1785 37.1504 11.1785 37.1504C11.4262 37.1951 11.6632 37.2863 11.877 37.4192C12.5842 37.4192 13.4721 37.1716 13.751 36.0307C14.2414 34.0247 17.0952 31.7507 19.2348 30.1902C18.2664 31.186 17.4001 32.2763 16.6489 33.4448C16.6489 33.4448 19.6348 30.1902 21.9991 29.6103C24.3635 29.0304 24.9418 33.356 29.133 31.9739C29.5308 31.8408 29.9418 31.7515 30.3588 31.7075C30.1923 31.4796 30.06 31.2287 29.9659 30.9626C29.5055 29.7054 28.6302 29.824 28.5366 29.2669C28.3842 28.3916 30.501 27.6435 31.0079 30.2601C31.1406 30.9429 31.165 31.4026 31.1186 31.6878C31.8081 31.7204 32.4806 31.9128 33.083 32.2497C33.4028 31.9911 34.0747 32.0477 34.5964 33.0464C34.8031 33.4393 34.8321 33.6585 34.7536 33.7536C35.1996 34.3738 35.5505 35.0571 35.7947 35.7809C35.8981 35.7882 36.0007 35.8048 36.1011 35.8304C37.4825 36.1698 38.2573 36.9454 36.3919 36.921C36.293 36.9183 36.1954 36.8984 36.1035 36.8621C36.3609 38.0539 36.4608 39.2744 36.4005 40.4923C36.2881 43.4066 35.0026 46.8459 35.0026 46.8459C35.5403 47.0706 36.0631 47.3294 36.5679 47.6207C36.2929 46.8648 36.5891 47.0447 38.0758 47.6568C38.9401 48.0112 39.0312 48.5997 38.7979 49.0358C40.6671 50.3499 42.4141 51.8297 44.0177 53.4573C44.4105 53.0392 45.6764 52.941 46.338 53.8863C47.0963 54.9691 46.789 55.6676 45.4689 55.0131C48.3495 58.2873 50.9732 62.4416 52.2265 67.3448C52.9879 70.3306 54.6144 72.8105 56.5481 74.4952C61.1841 78.5222 67.5951 77.9588 68.1773 68.6365C68.4311 64.5773 67.8505 61.4076 66.7913 58.8617C59.3832 50.0141 50.97 47.0141 47.5088 46.7948ZM33.0414 23.4484C34.0503 23.9638 32.5472 29.0226 32.5472 29.0226C32.5472 29.0226 32.4819 25.5 30.4484 26.0202C30.4484 26.0202 32.0293 22.9321 33.0414 23.4484ZM18.9174 28.313L15.4498 31.6839C15.4498 31.6839 16.5641 29.7124 17.7647 27.9979C19.6505 25.2548 22.9083 26.369 22.9083 26.369C22.9083 26.369 22.3936 27.4833 21.7084 27.9979C20.9376 28.7695 18.9174 28.313 18.9174 28.313ZM43.0716 39.9524C43.191 38.9372 43.9438 38.6442 44.5488 40.0978C45.1539 41.5515 44.6463 42.3765 44.0648 41.9388C43.4833 41.5012 43.0229 40.3626 43.0716 39.9509V39.9524ZM42.0745 42.8959C42.1468 43.6707 38.9252 45.5117 38.9495 44.6395C38.9739 43.7673 39.2882 44.0109 39.4092 43.5496C39.8382 41.9184 42.0014 42.1188 42.0745 42.8943V42.8959ZM38.977 37.5064C38.5661 36.4488 40.818 36.0771 41.3759 38.6693C41.9338 41.2615 39.4862 38.8123 38.977 37.5064ZM39.9199 33.7512C40.598 33.7512 41.3736 34.3571 40.9375 34.7201C40.5014 35.0831 39.8712 35.0108 39.5561 34.7444C38.5661 33.9021 39.2434 33.7489 39.9223 33.7489L39.9199 33.7512ZM38.1025 30.6986C39.1931 33.2185 36.7219 31.3531 36.4799 31.159C35.7617 30.5799 37.015 28.1771 38.1048 30.6962L38.1025 30.6986ZM37.1368 34.8875C35.2596 33.7324 36.0226 32.1255 37.1368 33.3851C38.251 34.6447 37.4511 35.0815 37.1368 34.8875ZM36.5404 41.4941C35.6886 40.394 38.284 40.2589 38.6721 40.8883C39.0603 41.5177 37.9689 43.3351 36.5396 41.4941H36.5404ZM57.4879 51.8575C59.5874 53.5437 56.3517 52.8208 55.3876 52.5804C54.3504 52.3203 55.3899 50.1704 57.4879 51.8575ZM55.995 57.1747C55.1408 56.3646 56.6636 54.6972 58.0065 56.9146C59.3494 59.132 57.1288 58.259 55.995 57.1747ZM52.1165 52.3989C51.9515 54.0442 50.2652 55.3604 49.6893 51.9871C49.3577 50.0604 52.2783 50.7527 52.1141 52.3989H52.1165ZM47.5724 47.6937C48.6356 47.7252 49.7427 47.5994 49.9792 48.2603C50.2157 48.9211 48.3511 49.6047 47.5724 49.2032C46.7937 48.8017 46.7678 47.6702 47.5701 47.6937H47.5724ZM41.9543 49.1356C41.4828 47.9735 42.5444 47.271 43.323 48.2147C44.1017 49.1584 45.3754 49.6542 45.0219 50.0086C44.6683 50.363 42.3078 50.0062 41.9543 49.1356ZM49.3325 57.9518C49.0701 56.3402 50.2621 55.835 52.3789 57.8999C54.4957 59.9649 49.694 60.1692 49.3325 57.9495V57.9518ZM52.1204 64.0956C51.9947 62.0802 55.683 61.0493 54.8572 63.5794C54.0313 66.1095 52.2233 65.7457 52.1204 64.0933V64.0956ZM56.1993 70.8076C54.4494 68.103 58.1637 66.6258 58.8842 68.9485C59.6047 71.2712 57.3347 72.5606 56.1993 70.8052V70.8076ZM61.8269 64.3007C59.5034 65.1784 58.1094 63.9393 59.1419 61.9772C59.8452 60.6422 64.1503 63.4223 61.8269 64.3007ZM62.6527 74.2131C61.5966 71.6554 64.4599 69.7735 64.6666 72.3548C64.8732 74.936 63.6341 76.5876 62.6527 74.2123V74.2131ZM63.3237 59.2412C61.8771 57.1912 63.7889 54.9557 65.1828 59.0346C66.5768 63.1134 63.9437 60.1181 63.3237 59.2404V59.2412ZM67.5063 66.9857C66.7834 70.7023 65.5419 68.4825 65.4406 67.7596C65.1483 65.7151 68.2284 63.2675 67.5063 66.9849V66.9857Z" fill="#FFC52E"/>
<path d="M22.9101 26.3673C22.9101 26.3673 19.6524 25.2531 17.7666 27.997C16.5659 29.7107 15.4509 31.6822 15.4509 31.6822L18.9185 28.3113C18.9185 28.3113 20.9387 28.7694 21.7103 27.997C22.3955 27.4816 22.9101 26.3673 22.9101 26.3673Z" fill="#262626"/>
<g filter="url(#filter0_i_1_1601)">
<path d="M44.6585 88.3304C40.4366 81.7763 33.6273 72.9633 37.9474 58.0685C35.3748 57.8964 33.8363 66.8147 33.8363 66.8147L30.9211 59.7853C30.9211 59.7853 25.9488 47.269 26.6348 42.813C27.3208 38.3569 28.6204 43.6537 28.6204 43.6537C28.6204 43.6537 29.3465 41.8748 28.0067 38.8606C28.8561 39.2716 29.5138 40.4054 29.6498 41.335C30.1935 39.1584 29.3095 37.7299 29.3496 34.9177C27.5879 38.441 24.1762 36.4892 22.1803 36.6267C19.7767 39.7556 16.2872 40.8439 14.8335 40.2545C14.3746 40.0683 14.3958 39.6181 14.3518 39.2433C14.3118 38.9022 14.2167 38.6241 13.6549 38.6673C12.7065 38.7404 12.6334 37.9043 11.8806 37.4258C11.6668 37.2929 11.4298 37.2017 11.1821 37.1571C11.1821 37.1571 13.1708 34.8996 13.1072 34.1272C13.0436 33.3548 11.1782 33.7422 11.1782 33.7422C11.1782 33.7422 14.0713 29.5627 15.6146 27.5693C14.9718 23.5839 25.9001 21.5551 29.117 21.108C28.7956 21.8796 28.7289 24.2266 28.7289 24.2266C28.7289 24.2266 32.6506 19.7903 34.4515 22.362C36.2525 24.9338 33.8724 30.6565 33.8724 30.6565C33.8724 30.6565 36.0584 29.4346 36.7012 27.1206C41.3301 30.8498 45.8309 40.6231 46.7314 43.5806C41.6004 44.0175 38.7583 46.2813 38.7583 46.2813C38.7583 46.2813 40.1318 46.3347 47.5022 46.7952C50.9666 47.0121 59.3797 50.0168 66.7878 58.8621C68.2675 60.6342 69.6138 62.5137 70.8156 64.485C59.7569 42.3667 51.8317 45.5953 49.4312 39.8514C47.0307 34.1076 40.2614 25.5766 37.4327 23.8621C37.6865 17.6899 32.3638 17.6365 29.535 18.922C29.2773 18.922 23.799 18.8898 18.1416 20.862C12.4841 22.8343 12.9115 27.9771 12.9115 27.9771L8.4563 34.7503C8.4563 34.7503 9.5705 37.0864 10.3421 37.4077C10.3421 38.6288 11.0493 39.6581 11.4351 39.6581C11.564 40.4934 12.1423 43.3874 16.2573 42.6157C20.3723 41.8441 22.5591 38.3074 22.7516 42.8727C22.9441 47.4379 27.6594 62.0114 30.7459 69.0384C33.8324 76.0655 29.374 77.611 41.2043 94.5858C41.4173 94.9001 41.6216 95.2458 41.818 95.6072C43.4791 97.9559 45.7861 102.592 46.4108 110.722C46.7306 109.125 46.9993 107.658 47.2107 106.283C48.3579 98.8501 47.8306 94.3296 44.6585 88.3304Z" fill="#262626"/>
</g>
<path d="M32.5441 29.0233C32.5441 29.0233 34.0472 23.9646 33.0383 23.4492C32.0294 22.9337 30.4453 26.0209 30.4453 26.0209C32.4789 25.5031 32.5441 29.0233 32.5441 29.0233Z" fill="#262626"/>
<path d="M31.1211 31.6868C31.1667 31.4016 31.1431 30.9419 31.0103 30.2591C30.5011 27.6425 28.3867 28.3906 28.5391 29.2659C28.6357 29.823 29.5079 29.702 29.9684 30.9616C30.0624 31.2277 30.1948 31.4786 30.3613 31.7065C30.6826 32.1269 31.0331 32.2369 31.1211 31.6868Z" fill="#262626"/>
<path d="M33.0136 32.9415C33.2148 33.1984 34.4964 34.0494 34.7423 33.7476C34.8209 33.651 34.7949 33.4333 34.5851 33.0405C34.0634 32.0418 33.3916 31.9852 33.0718 32.2437C33.0203 32.2844 32.9777 32.3353 32.9466 32.3931C32.9156 32.4509 32.8968 32.5145 32.8913 32.58C32.8859 32.6454 32.8939 32.7112 32.9149 32.7734C32.936 32.8356 32.9696 32.8928 33.0136 32.9415Z" fill="#262626"/>
<path d="M36.4811 31.1569C36.7231 31.351 39.1943 33.2164 38.1037 30.6964C37.013 28.1765 35.7605 30.5801 36.4811 31.1569Z" fill="#262626"/>
<path d="M37.1351 33.3845C36.0209 32.1273 35.2579 33.7318 37.1351 34.8869C37.4494 35.081 38.2485 34.6449 37.1351 33.3845Z" fill="#262626"/>
<path d="M39.5563 34.7473C39.8706 35.0137 40.4992 35.0868 40.9377 34.723C41.3761 34.3592 40.5982 33.7542 39.9201 33.7542C39.242 33.7542 38.5639 33.9074 39.5563 34.7473Z" fill="#262626"/>
<path d="M36.1004 36.8626C36.1923 36.8989 36.2899 36.9189 36.3887 36.9215C38.2541 36.9459 37.4794 36.1704 36.098 35.8309C35.9975 35.8054 35.895 35.7888 35.7916 35.7814C34.9862 35.7335 35.471 36.623 36.1004 36.8626Z" fill="#262626"/>
<path d="M38.9694 37.5032C39.4786 38.8114 41.9255 41.2583 41.3684 38.6661C40.8113 36.0739 38.5585 36.4432 38.9694 37.5032Z" fill="#262626"/>
<path d="M44.0678 41.9329C44.6492 42.369 45.1576 41.5455 44.5518 40.0919C43.946 38.6382 43.194 38.9313 43.0746 39.9465C43.0259 40.3582 43.4863 41.4968 44.0678 41.9329Z" fill="#262626"/>
<path d="M39.4097 43.5511C39.2887 44.0116 38.9737 43.7695 38.9501 44.641C38.9265 45.5124 42.1473 43.6721 42.075 42.8974C42.0027 42.1226 39.8388 41.9214 39.4097 43.5511Z" fill="#262626"/>
<path d="M36.5398 41.4875C37.9691 43.3286 39.0589 41.5119 38.6716 40.8817C38.2842 40.2515 35.688 40.3906 36.5398 41.4875Z" fill="#262626"/>
<path d="M38.7923 49.0407C39.0281 48.6038 38.9314 48.0192 38.0702 47.6617C36.5836 47.0496 36.2873 46.8696 36.5624 47.6255C36.6684 47.9171 36.8602 48.3469 37.1014 48.9456C37.51 49.96 38.467 49.6473 38.7923 49.0407Z" fill="#262626"/>
<path d="M47.5679 49.2081C48.3465 49.6088 50.2104 48.9244 49.9746 48.2652C49.7389 47.6059 48.631 47.7301 47.5679 47.6986C46.7656 47.6743 46.7892 48.8065 47.5679 49.2081Z" fill="#262626"/>
<path d="M45.0329 50.0125C45.3865 49.6581 44.112 49.1631 43.3341 48.2186C42.5562 47.2741 41.4938 47.9774 41.9653 49.1395C42.3189 50.0125 44.6785 50.3661 45.0329 50.0125Z" fill="#262626"/>
<path d="M49.6876 51.9892C50.2636 55.3624 51.9498 54.0463 52.1149 52.4009C52.2799 50.7555 49.3584 50.0625 49.6876 51.9892Z" fill="#262626"/>
<path d="M26.933 21.1973C26.933 21.1973 20.9699 23.4453 19.5013 24.7332C24.9144 22.7609 29.3186 22.4396 29.3186 22.4396L29.5936 21.0173L26.933 21.1973Z" fill="#262626"/>
</g>
<defs>
<filter id="filter0_i_1_1601" x="8.4563" y="18.2549" width="62.3594" height="117.467" filterUnits="userSpaceOnUse" color-interpolation-filters="sRGB">
<feFlood flood-opacity="0" result="BackgroundImageFix"/>
<feBlend mode="normal" in="SourceGraphic" in2="BackgroundImageFix" result="shape"/>
<feColorMatrix in="SourceAlpha" type="matrix" values="0 0 0 0 0 0 0 0 0 0 0 0 0 0 0 0 0 0 127 0" result="hardAlpha"/>
<feOffset dy="25"/>
<feGaussianBlur stdDeviation="25"/>
<feComposite in2="hardAlpha" operator="arithmetic" k2="-1" k3="1"/>
<feColorMatrix type="matrix" values="0 0 0 0 0 0 0 0 0 0 0 0 0 0 0 0 0 0 0.25 0"/>
<feBlend mode="normal" in2="shape" result="effect1_innerShadow_1_1601"/>
</filter>
</defs>
</svg>
