<svg width="86" height="124" viewBox="0 0 86 124" fill="none" xmlns="http://www.w3.org/2000/svg">
<path d="M0.96875 93.4784H2.71205V101.517H7.39633V103.205H0.96875V93.4784Z" fill="white"/>
<path d="M13.1551 93.4784H19.7158V95.1659H14.8984V97.4779H19.1701V99.1653H14.8984V101.517H19.9021V103.205H13.1551V93.4784Z" fill="white"/>
<path d="M25.0935 98.3415C25.0935 97.6772 25.2177 97.0438 25.4661 96.4415C25.7234 95.8391 26.0783 95.3076 26.5307 94.847C26.992 94.3864 27.5199 94.0276 28.1143 93.7708C28.7176 93.505 29.3608 93.3722 30.0439 93.3722C30.727 93.3722 31.3703 93.505 31.9735 93.7708C32.5768 94.0276 33.1091 94.3864 33.5704 94.847C34.0318 95.3076 34.3911 95.8391 34.6484 96.4415C34.9145 97.0438 35.0476 97.6816 35.0476 98.3548C35.0476 99.0369 34.9145 99.6791 34.6484 100.281C34.3911 100.875 34.0318 101.402 33.5704 101.863C33.1091 102.314 32.5768 102.669 31.9735 102.926C31.3703 103.182 30.727 103.311 30.0439 103.311C29.3697 103.311 28.7309 103.182 28.1276 102.926C27.5244 102.669 26.992 102.314 26.5307 101.863C26.0783 101.411 25.7234 100.888 25.4661 100.295C25.2177 99.6924 25.0935 99.0413 25.0935 98.3415ZM26.9033 98.3548C26.9033 98.9572 27.0453 99.5064 27.3292 100.002C27.6131 100.498 27.9946 100.893 28.4736 101.185C28.9616 101.477 29.5072 101.623 30.1105 101.623C30.696 101.623 31.2239 101.477 31.6941 101.185C32.1731 100.893 32.5502 100.498 32.8252 100.002C33.1002 99.5064 33.2378 98.9572 33.2378 98.3548C33.2378 97.7348 33.0958 97.1767 32.8119 96.6806C32.528 96.1846 32.1465 95.7904 31.6675 95.4981C31.1973 95.2058 30.6649 95.0596 30.0705 95.0596C29.4673 95.0596 28.9261 95.2058 28.447 95.4981C27.9768 95.7904 27.5998 96.1846 27.3159 96.6806C27.0408 97.1767 26.9033 97.7348 26.9033 98.3548Z" fill="white"/>
<path d="M43.6116 93.4784C44.7826 93.4784 45.6831 93.7663 46.313 94.3421C46.9429 94.9179 47.2579 95.6974 47.2579 96.6806C47.2579 97.0704 47.2002 97.4646 47.0849 97.8632C46.9695 98.253 46.7788 98.6073 46.5126 98.9262C46.2553 99.2451 45.9094 99.5019 45.4746 99.6968C45.0488 99.8917 44.5254 99.9891 43.9043 99.9891H42.507V103.205H40.7637V93.4784H43.6116ZM43.891 98.2884C44.2104 98.2884 44.4721 98.2352 44.6762 98.1289C44.8891 98.0226 45.0532 97.8853 45.1686 97.717C45.2928 97.5487 45.3815 97.376 45.4347 97.1988C45.4879 97.0217 45.5146 96.8622 45.5146 96.7205C45.5146 96.5965 45.4924 96.4503 45.448 96.282C45.4125 96.1049 45.3371 95.9321 45.2218 95.7638C45.1153 95.5867 44.9556 95.4449 44.7427 95.3386C44.5387 95.2235 44.2636 95.1659 43.9176 95.1659H42.507V98.2884H43.891Z" fill="white"/>
<path d="M50.7545 103.205L55.1194 93.0798H55.2126L59.5775 103.205H57.5547L54.6404 95.817L55.9046 94.9666L52.4845 103.205H50.7545ZM53.629 99.6437H56.743L57.3551 101.119H53.0967L53.629 99.6437Z" fill="white"/>
<path d="M67.6854 93.4784C68.4572 93.4784 69.1181 93.6069 69.6682 93.8638C70.2271 94.1207 70.653 94.4883 70.9457 94.9666C71.2474 95.4449 71.3982 96.0163 71.3982 96.6806C71.3982 97.0704 71.3361 97.4602 71.2119 97.8499C71.0965 98.2397 70.9058 98.594 70.6397 98.9129C70.3824 99.2318 70.0319 99.4887 69.5884 99.6835C69.1536 99.8784 68.6169 99.9759 67.9781 99.9759H66.5808V103.205H64.8375V93.4784H67.6854ZM67.9648 98.2884C68.3907 98.2884 68.7189 98.2042 68.9496 98.0359C69.1891 97.8588 69.3532 97.6506 69.442 97.4114C69.5396 97.1723 69.5884 96.9508 69.5884 96.7471C69.5884 96.6142 69.5662 96.4592 69.5218 96.282C69.4863 96.1049 69.4109 95.9321 69.2956 95.7638C69.1891 95.5867 69.0294 95.4449 68.8165 95.3386C68.6036 95.2235 68.3286 95.1659 67.9914 95.1659H66.5808V98.2884H67.9648ZM69.7081 99.3646L72.1567 103.205H70.1207L67.6188 99.4045L69.7081 99.3646Z" fill="white"/>
<path d="M77.5957 103.205V93.4784H80.4302C81.4061 93.4784 82.2356 93.6246 82.9187 93.9169C83.6019 94.2004 84.1519 94.5857 84.5689 95.0729C84.9947 95.5601 85.3053 96.1049 85.5004 96.7072C85.6956 97.3007 85.7932 97.8986 85.7932 98.501C85.7932 99.2185 85.6601 99.8696 85.394 100.454C85.1367 101.03 84.7818 101.526 84.3294 101.942C83.8858 102.35 83.3668 102.664 82.7724 102.886C82.1868 103.098 81.5658 103.205 80.9093 103.205H77.5957ZM79.339 101.517H80.6032C81.2686 101.517 81.8541 101.398 82.3598 101.158C82.8655 100.919 83.2603 100.569 83.5442 100.109C83.837 99.6393 83.9834 99.0635 83.9834 98.3814C83.9834 97.7525 83.8769 97.2298 83.664 96.8135C83.4599 96.3972 83.2026 96.0694 82.8921 95.8303C82.5816 95.5822 82.2489 95.4095 81.8941 95.3121C81.5481 95.2058 81.2287 95.1526 80.9359 95.1526H79.339V101.517Z" fill="white"/>
<path d="M8.09259 114.044C7.97694 114.145 7.81504 114.245 7.60687 114.346C7.39871 114.447 7.16356 114.54 6.90143 114.625C6.64701 114.702 6.38487 114.764 6.11503 114.811C5.84519 114.857 5.59076 114.88 5.35176 114.88C4.45743 114.88 3.68259 114.702 3.02726 114.346C2.37193 113.982 1.86308 113.49 1.50072 112.871C1.14607 112.251 0.96875 111.547 0.96875 110.757C0.96875 110.036 1.08054 109.397 1.30413 108.84C1.53542 108.282 1.85152 107.814 2.25243 107.434C2.65334 107.055 3.10821 106.768 3.61706 106.575C4.13362 106.373 4.68101 106.273 5.25924 106.273C5.76038 106.273 6.22297 106.331 6.64701 106.447C7.07104 106.563 7.44111 106.71 7.75721 106.888L7.35245 108.015C7.19825 107.922 7.00551 107.837 6.77422 107.76C6.55063 107.674 6.31548 107.609 6.06877 107.562C5.82977 107.516 5.61004 107.492 5.40959 107.492C4.76196 107.492 4.19915 107.62 3.72114 107.876C3.24314 108.131 2.87307 108.495 2.61093 108.968C2.3488 109.44 2.21773 110.002 2.21773 110.652C2.21773 111.248 2.3488 111.775 2.61093 112.232C2.88078 112.681 3.25085 113.033 3.72114 113.289C4.19915 113.545 4.7504 113.672 5.37489 113.672C5.65244 113.672 5.92229 113.645 6.18442 113.591C6.45426 113.537 6.6817 113.456 6.86673 113.347V111.79H5.23611V110.617H8.09259V114.044Z" fill="#828282"/>
<path d="M13.4347 106.366H14.6374V113.614H18.8469V114.788H13.4347V106.366Z" fill="#828282"/>
<path d="M23.0333 114.788L26.7225 106.017H26.7919L30.481 114.788H29.0817L26.3987 107.922L27.266 107.353L24.2361 114.788H23.0333ZM25.2653 111.628H28.2721L28.6885 112.673H24.9068L25.2653 111.628Z" fill="#828282"/>
<path d="M35.2363 114.788V106.087H35.2479L39.6887 112.418L39.1683 112.313L43.5976 106.087H43.6207V114.788H42.418V108.84L42.4874 109.456L39.388 113.881H39.3649L36.1962 109.456L36.4044 108.886V114.788H35.2363Z" fill="#828282"/>
<path d="M51.5158 106.366C52.4409 106.366 53.1657 106.598 53.6899 107.063C54.2142 107.527 54.4763 108.178 54.4763 109.014C54.4763 109.347 54.4262 109.676 54.326 110.002C54.2258 110.327 54.0639 110.625 53.8403 110.896C53.6244 111.159 53.3353 111.372 52.9729 111.535C52.6183 111.69 52.1827 111.767 51.6661 111.767H50.4287V114.788H49.226V106.366H51.5158ZM51.6545 110.582C51.9706 110.582 52.2328 110.532 52.4409 110.431C52.6568 110.323 52.8226 110.187 52.9382 110.025C53.0616 109.862 53.1464 109.692 53.1926 109.514C53.2466 109.336 53.2736 109.177 53.2736 109.037C53.2736 108.882 53.2466 108.72 53.1926 108.549C53.1464 108.371 53.0616 108.209 52.9382 108.062C52.8226 107.907 52.6645 107.783 52.4641 107.69C52.2636 107.589 52.0131 107.539 51.7124 107.539H50.4287V110.582H51.6545Z" fill="#828282"/>
<path d="M59.4209 106.366H60.6237V114.788H59.4209V106.366Z" fill="#828282"/>
<path d="M73.5364 115.078L67.0718 108.596L67.4303 108.712L67.4534 114.788H66.2391V106.098H66.2854L72.6691 112.58L72.3915 112.511L72.3684 106.366H73.5711V115.078H73.5364Z" fill="#828282"/>
<path d="M85.7932 114.044C85.6775 114.145 85.5156 114.245 85.3075 114.346C85.0993 114.447 84.8642 114.54 84.602 114.625C84.3476 114.702 84.0855 114.764 83.8156 114.811C83.5458 114.857 83.2914 114.88 83.0524 114.88C82.158 114.88 81.3832 114.702 80.7279 114.346C80.0725 113.982 79.5637 113.49 79.2013 112.871C78.8467 112.251 78.6693 111.547 78.6693 110.757C78.6693 110.036 78.7811 109.397 79.0047 108.84C79.236 108.282 79.5521 107.814 79.953 107.434C80.3539 107.055 80.8088 106.768 81.3177 106.575C81.8342 106.373 82.3816 106.273 82.9598 106.273C83.461 106.273 83.9236 106.331 84.3476 106.447C84.7716 106.563 85.1417 106.71 85.4578 106.888L85.053 108.015C84.8989 107.922 84.7061 107.837 84.4748 107.76C84.2512 107.674 84.0161 107.609 83.7694 107.562C83.5304 107.516 83.3106 107.492 83.1102 107.492C82.4626 107.492 81.8997 107.62 81.4217 107.876C80.9437 108.131 80.5737 108.495 80.3115 108.968C80.0494 109.44 79.9183 110.002 79.9183 110.652C79.9183 111.248 80.0494 111.775 80.3115 112.232C80.5814 112.681 80.9514 113.033 81.4217 113.289C81.8997 113.545 82.451 113.672 83.0755 113.672C83.353 113.672 83.6229 113.645 83.885 113.591C84.1549 113.537 84.3823 113.456 84.5673 113.347V111.79H82.9367V110.617H85.7932V114.044Z" fill="#828282"/>
<path d="M50.6347 123.996H48.448C48.3544 123.996 48.3076 123.949 48.3076 123.855V119.836C48.3076 119.743 48.3544 119.696 48.448 119.696H50.6347C50.7238 119.696 50.7684 119.743 50.7684 119.836V120.291C50.7684 120.385 50.7238 120.432 50.6347 120.432H49.2371C49.1836 120.432 49.1569 120.456 49.1569 120.505V121.374C49.1569 121.424 49.1836 121.448 49.2371 121.448H50.3806C50.4742 121.448 50.521 121.495 50.521 121.588V122.043C50.521 122.137 50.4742 122.184 50.3806 122.184H49.2371C49.1836 122.184 49.1569 122.208 49.1569 122.257V123.187C49.1569 123.236 49.1836 123.26 49.2371 123.26H50.6347C50.7238 123.26 50.7684 123.307 50.7684 123.401V123.855C50.7684 123.949 50.7238 123.996 50.6347 123.996Z" fill="white"/>
<path d="M53.4065 122.899V122.765C53.4065 122.672 53.4534 122.625 53.547 122.625H54.1154C54.209 122.625 54.2558 122.672 54.2558 122.765V122.819C54.2558 122.988 54.2892 123.104 54.3561 123.167C54.423 123.229 54.5456 123.26 54.7239 123.26H55.0382C55.212 123.26 55.3324 123.227 55.3993 123.16C55.4706 123.093 55.5063 122.968 55.5063 122.785V122.705C55.5063 122.576 55.4528 122.478 55.3458 122.411C55.2432 122.34 55.114 122.297 54.9579 122.284C54.8019 122.271 54.6325 122.246 54.4497 122.21C54.2714 122.17 54.1042 122.121 53.9482 122.063C53.7922 122.001 53.6607 121.883 53.5537 121.709C53.4511 121.531 53.3999 121.303 53.3999 121.027V120.793C53.3999 120.445 53.4979 120.175 53.6941 119.984C53.8902 119.792 54.1622 119.696 54.5099 119.696H55.1786C55.5308 119.696 55.8049 119.792 56.0011 119.984C56.1973 120.175 56.2953 120.445 56.2953 120.793V120.92C56.2953 121.013 56.2485 121.06 56.1549 121.06H55.5865C55.4929 121.06 55.4461 121.013 55.4461 120.92V120.88C55.4461 120.706 55.4126 120.588 55.3458 120.525C55.2789 120.463 55.1563 120.432 54.978 120.432H54.7172C54.5344 120.432 54.4096 120.467 54.3427 120.539C54.2803 120.605 54.2491 120.739 54.2491 120.94V121.067C54.2491 121.276 54.4319 121.397 54.7974 121.428C55.1764 121.459 55.513 121.535 55.8072 121.655C55.9632 121.722 56.0925 121.843 56.195 122.016C56.302 122.186 56.3555 122.404 56.3555 122.672V122.899C56.3555 123.247 56.2574 123.517 56.0613 123.708C55.8651 123.9 55.5932 123.996 55.2455 123.996H54.5166C54.1689 123.996 53.8969 123.9 53.7008 123.708C53.5046 123.517 53.4065 123.247 53.4065 122.899Z" fill="white"/>
<path d="M60.4551 123.996H59.8933C59.7953 123.996 59.7462 123.949 59.7462 123.855V120.505C59.7462 120.456 59.7217 120.432 59.6727 120.432H58.9104C58.8167 120.432 58.7699 120.385 58.7699 120.291V119.836C58.7699 119.743 58.8167 119.696 58.9104 119.696H61.438C61.5317 119.696 61.5785 119.743 61.5785 119.836V120.291C61.5785 120.385 61.5317 120.432 61.438 120.432H60.6757C60.6222 120.432 60.5955 120.456 60.5955 120.505V123.855C60.5955 123.949 60.5487 123.996 60.4551 123.996Z" fill="white"/>
<path d="M64.7706 123.033V123.855C64.7706 123.949 64.7282 123.996 64.6435 123.996H64.0484C63.9592 123.996 63.9146 123.949 63.9146 123.855V123.04C63.9146 122.95 63.9592 122.906 64.0484 122.906H64.6435C64.7282 122.906 64.7706 122.948 64.7706 123.033Z" fill="white"/>
<path d="M67.6508 123.855V123.22C67.6508 122.966 67.76 122.75 67.9784 122.571L69.2088 121.528C69.4094 121.363 69.5098 121.185 69.5098 120.993V120.793C69.5098 120.655 69.4763 120.556 69.4094 120.498C69.347 120.436 69.2423 120.405 69.0952 120.405H68.8611C68.7185 120.405 68.6182 120.436 68.5602 120.498C68.5022 120.556 68.4733 120.655 68.4733 120.793V121.007C68.4733 121.105 68.4265 121.154 68.3328 121.154H67.7645C67.6708 121.154 67.624 121.105 67.624 121.007V120.779C67.624 120.432 67.7199 120.164 67.9116 119.977C68.1033 119.79 68.3752 119.696 68.7274 119.696H69.2356C69.5878 119.696 69.8597 119.79 70.0514 119.977C70.2431 120.164 70.3389 120.432 70.3389 120.779V121.047C70.3389 121.395 70.2052 121.682 69.9377 121.909L68.6806 122.979C68.6271 123.028 68.6003 123.082 68.6003 123.14V123.247H70.1985C70.2921 123.247 70.3389 123.294 70.3389 123.387V123.855C70.3389 123.949 70.2921 123.996 70.1985 123.996H67.7912C67.6976 123.996 67.6508 123.949 67.6508 123.855Z" fill="white"/>
<path d="M74.2386 123.26H74.6331C74.7757 123.26 74.876 123.231 74.934 123.173C74.992 123.111 75.0209 123.008 75.0209 122.866V120.826C75.0209 120.683 74.992 120.583 74.934 120.525C74.876 120.463 74.7757 120.432 74.6331 120.432H74.2386C74.0959 120.432 73.9956 120.463 73.9376 120.525C73.8797 120.583 73.8507 120.683 73.8507 120.826V122.866C73.8507 123.008 73.8797 123.111 73.9376 123.173C73.9956 123.231 74.0959 123.26 74.2386 123.26ZM74.7668 123.996H74.0981C73.7459 123.996 73.474 123.902 73.2823 123.715C73.0906 123.528 72.9948 123.258 72.9948 122.906V120.786C72.9948 120.434 73.0906 120.164 73.2823 119.977C73.474 119.79 73.7459 119.696 74.0981 119.696H74.7668C75.1145 119.696 75.3843 119.792 75.5759 119.984C75.7676 120.171 75.8635 120.438 75.8635 120.786V122.906C75.8635 123.254 75.7676 123.523 75.5759 123.715C75.3843 123.902 75.1145 123.996 74.7668 123.996Z" fill="white"/>
<path d="M78.5459 123.855V123.22C78.5459 122.966 78.6551 122.75 78.8735 122.571L80.1039 121.528C80.3045 121.363 80.4048 121.185 80.4048 120.993V120.793C80.4048 120.655 80.3714 120.556 80.3045 120.498C80.2421 120.436 80.1374 120.405 79.9903 120.405H79.7562C79.6136 120.405 79.5132 120.436 79.4553 120.498C79.3973 120.556 79.3684 120.655 79.3684 120.793V121.007C79.3684 121.105 79.3216 121.154 79.2279 121.154H78.6595C78.5659 121.154 78.5191 121.105 78.5191 121.007V120.779C78.5191 120.432 78.615 120.164 78.8067 119.977C78.9983 119.79 79.2703 119.696 79.6225 119.696H80.1307C80.4829 119.696 80.7548 119.79 80.9465 119.977C81.1382 120.164 81.234 120.432 81.234 120.779V121.047C81.234 121.395 81.1003 121.682 80.8328 121.909L79.5757 122.979C79.5222 123.028 79.4954 123.082 79.4954 123.14V123.247H81.0936C81.1872 123.247 81.234 123.294 81.234 123.387V123.855C81.234 123.949 81.1872 123.996 81.0936 123.996H78.6863C78.5927 123.996 78.5459 123.949 78.5459 123.855Z" fill="white"/>
<path d="M83.6893 120.893V120.345C83.6893 120.269 83.7227 120.211 83.7896 120.171L84.3981 119.79C84.5006 119.727 84.5875 119.696 84.6589 119.696H85.1938C85.2874 119.696 85.3343 119.743 85.3343 119.836V123.855C85.3343 123.909 85.3231 123.947 85.3008 123.969C85.283 123.987 85.2495 123.996 85.2005 123.996H84.6254C84.5318 123.996 84.485 123.949 84.485 123.855V120.599L83.8297 120.973C83.7361 121.013 83.6893 120.987 83.6893 120.893Z" fill="white"/>
<path d="M0.298096 41.6191C0.298096 38.1555 1.83239 34.8699 4.48804 32.6465L34.919 7.16828C39.4274 3.39361 45.9932 3.39361 50.5016 7.16828L80.9326 32.6465C83.5882 34.8699 85.1225 38.1555 85.1225 41.6191V80.7886C85.1225 83.3738 83.0268 85.4695 80.4416 85.4695H4.97899C2.3938 85.4695 0.298096 83.3738 0.298096 80.7886V41.6191Z" fill="#305315"/>
<mask id="mask0_1_504" style="mask-type:alpha" maskUnits="userSpaceOnUse" x="0" y="0" width="86" height="86">
<path d="M0 4.68089C0 2.09571 2.09571 0 4.68089 0H80.7788C83.364 0 85.4597 2.09571 85.4597 4.68089V80.7788C85.4597 83.364 83.364 85.4597 80.7788 85.4597H4.68089C2.09571 85.4597 0 83.364 0 80.7788V4.68089Z" fill="#C4C4C4"/>
</mask>
<g mask="url(#mask0_1_504)">
<path d="M74.6663 96.5794C74.6663 96.5794 72.078 102.929 73.32 113.94C67.3176 102.531 66.7997 95.7854 65.9713 84.8734C65.1429 73.9613 55.3077 72.3734 52.2054 74.5565C54.8967 57.2939 49.8245 55.4083 48.79 48.1674C41.5444 54.7156 34.6092 48.2661 34.6092 48.2661C34.6092 48.2661 30.2624 50.9493 27.3636 54.9131C26.1038 56.6389 24.5692 57.0511 23.2407 56.9633C23.312 57.5451 23.2776 58.2439 24.0208 58.533C26.3711 59.4477 32.0261 57.7585 35.9186 52.902C39.147 52.6946 44.6734 55.7205 47.5264 50.2554C47.4615 54.6204 48.8931 56.8414 48.0125 60.2161C47.7923 58.7733 46.7273 57.0133 45.3517 56.3755C47.5213 61.0576 46.3455 63.8152 46.3455 63.8152C46.3455 63.8152 44.237 55.5913 43.1299 62.5102C42.0228 69.4292 50.0714 88.8542 50.0714 88.8542L54.7987 99.7724C54.7987 99.7724 57.2966 85.9332 61.4628 86.2003C54.4641 109.32 65.4928 122.999 72.3312 133.172C77.4683 142.484 78.3222 149.5 76.4643 161.042C76.4507 161.324 76.4308 161.604 76.4045 161.883C81.2031 145.463 84.1668 139.62 84.8921 131.797C84.5366 132.505 84.1663 133.233 83.7812 133.983C86.1544 119.099 74.6663 96.5794 74.6663 96.5794Z" fill="#FFED90"/>
<path d="M84.5903 100.59C82.5657 92.9796 78.3168 86.5314 73.6468 81.4492C72.9029 81.0773 72.1995 80.6353 71.5471 80.1296C71.0178 79.732 71.0127 79.3319 71.3015 79.0319C68.7049 76.503 65.8757 74.2037 62.8483 72.1617C62.3215 73.1033 60.7716 73.5887 60.1099 72.0142C59.7192 71.0848 59.4088 70.4177 59.237 69.9652C58.4195 69.5131 57.5729 69.1115 56.7021 68.7626C56.7021 68.7626 58.784 63.4267 58.9659 58.908C59.0591 57.0196 58.8935 55.1277 58.4735 53.2806C57.4555 52.9147 56.6691 51.528 57.9734 51.6024C57.5779 50.479 57.0096 49.4184 56.2873 48.4558C55.889 48.9241 53.8136 47.602 53.4878 47.2044C53.4163 47.1285 53.3619 47.0393 53.328 46.9424C53.2941 46.8454 53.2814 46.7428 53.2907 46.641C53.3001 46.5391 53.3312 46.4402 53.3822 46.3504C53.4331 46.2606 53.5029 46.1818 53.5871 46.119C52.6114 45.596 51.5224 45.2975 50.4058 45.2469C50.2633 46.1007 49.6958 45.936 49.1766 45.2774C48.5012 45.3457 47.8356 45.4844 47.1915 45.6909C40.404 47.8362 39.4649 41.1233 35.6384 42.0222C31.812 42.9211 26.974 47.974 26.974 47.974C28.1905 46.1604 29.5934 44.468 31.1618 42.9223C27.6968 45.3445 23.075 48.8741 22.281 51.9878C21.8293 53.7587 20.3977 54.1417 19.2461 54.1429C20.4766 54.8832 20.5835 56.1785 22.1245 56.065C23.0343 55.998 23.1883 56.4309 23.2532 56.959C24.5842 57.0444 26.1189 56.6322 27.3786 54.9064C30.2774 50.9389 34.6243 48.2594 34.6243 48.2594C34.6243 48.2594 41.5594 54.7088 48.805 48.1606C49.8395 55.4028 54.913 57.2871 52.2204 74.5498C55.3253 72.3666 65.1579 73.9534 65.9863 84.8666C66.8147 95.7799 67.3326 102.524 73.335 113.933C72.093 102.922 74.6813 96.5726 74.6813 96.5726C74.6813 96.5726 86.1694 119.092 83.7899 133.973C84.175 133.223 84.5453 132.494 84.9008 131.787C89.4283 122.753 91.3905 117.04 91.5928 111.686C88.4574 109.074 85.8233 105.219 84.5903 100.59Z" fill="#FFD961"/>
<path d="M76.9488 68.6945C65.0128 67.9798 62.7885 67.8969 62.7885 67.8969C62.7885 67.8969 67.3911 64.3832 75.7005 63.705C74.2422 59.1143 66.9534 43.947 59.4571 38.1562C58.4149 41.7493 54.8761 43.6446 54.8761 43.6446C54.8761 43.6446 58.7228 34.7632 55.8075 30.7714C52.8922 26.7795 46.5361 33.6655 46.5361 33.6655C46.5361 33.6655 46.6404 30.0225 47.1609 28.8248C41.9551 29.5188 24.2572 32.6679 25.2981 38.8551C22.7989 41.9493 18.1135 48.4365 18.1135 48.4365C18.1135 48.4365 21.1332 47.8376 21.2375 49.0341C21.3419 50.2306 18.1135 53.7248 18.1135 53.7248C18.5147 53.7941 18.8986 53.9356 19.2448 54.1419C20.39 54.1419 21.828 53.7577 22.2797 51.9868C23.0737 48.8731 27.6955 45.3435 31.1605 42.9213C29.5921 44.467 28.1892 46.1594 26.9727 47.973C26.9727 47.973 31.8082 42.9213 35.6371 42.0212C39.4661 41.1211 40.4026 47.8352 47.1902 45.6899C47.8342 45.4834 48.4999 45.3448 49.1753 45.2764C48.9056 44.9227 48.6913 44.5332 48.539 44.1202C47.7933 42.1688 46.3758 42.353 46.2243 41.4883C45.9775 40.1296 49.4056 38.9685 50.2263 43.0299C50.4414 44.0897 50.4808 44.8032 50.4058 45.2459C51.5223 45.2965 52.6114 45.5951 53.587 46.118C54.1049 45.7167 55.1929 45.8045 56.0379 47.3547C56.3725 47.9645 56.4196 48.3048 56.2924 48.4523C57.0146 49.415 57.5829 50.4755 57.9784 51.599C58.1459 51.6105 58.312 51.6362 58.4747 51.6758C60.7117 52.2027 61.9664 53.4065 58.9455 53.3687C58.7855 53.3645 58.6274 53.3336 58.4785 53.2772C58.8954 55.1272 59.0571 57.0216 58.9595 58.9119C58.7775 63.4355 56.6957 68.7738 56.6957 68.7738C57.5665 69.1227 58.4131 69.5243 59.2306 69.9764C58.7852 68.8031 59.2649 69.0824 61.6725 70.0325C63.0722 70.5825 63.2198 71.496 62.8419 72.1729C65.869 74.2126 68.6982 76.5095 71.2951 79.0358C71.9314 78.387 73.9814 78.2345 75.0528 79.7017C76.2808 81.3824 75.7832 82.4666 73.6454 81.4507C78.3104 86.5329 82.5593 92.981 84.5889 100.592C85.822 105.226 88.4561 109.075 91.5877 111.69C99.0954 117.941 109.478 117.066 110.421 102.597C110.832 96.296 109.891 91.376 108.176 87.4244C96.1789 73.6914 82.5542 69.0348 76.9488 68.6945ZM53.5196 32.4569C55.1535 33.257 52.7192 41.1089 52.7192 41.1089C52.7192 41.1089 52.6136 35.6413 49.3203 36.4487C49.3203 36.4487 51.8806 31.6556 53.5196 32.4569ZM30.6464 40.0076L25.0308 45.2398C25.0308 45.2398 26.8352 42.1798 28.7796 39.5185C31.8336 35.2608 37.1094 36.9903 37.1094 36.9903C37.1094 36.9903 36.2759 38.7197 35.1663 39.5185C33.918 40.7162 30.6464 40.0076 30.6464 40.0076ZM69.763 58.074C69.9565 56.4982 71.1755 56.0433 72.1553 58.2996C73.1352 60.556 72.3131 61.8366 71.3715 61.1572C70.4298 60.4779 69.6841 58.7107 69.763 58.0716V58.074ZM68.1482 62.6427C68.2653 63.8453 63.0481 66.7029 63.0875 65.3491C63.1269 63.9953 63.636 64.3734 63.8319 63.6575C64.5267 61.1255 68.0299 61.4365 68.1482 62.6403V62.6427ZM63.132 54.2773C62.4665 52.6357 66.1135 52.0588 67.017 56.0823C67.9205 60.1059 63.9566 56.3043 63.132 54.2773ZM64.659 48.4487C65.7572 48.4487 67.0132 49.389 66.3069 49.9525C65.6007 50.516 64.5802 50.4038 64.0699 49.9903C62.4665 48.6829 63.5634 48.445 64.6629 48.445L64.659 48.4487ZM61.7158 43.7104C63.482 47.6218 59.48 44.7264 59.088 44.4251C57.925 43.5263 59.9546 39.7966 61.7196 43.7068L61.7158 43.7104ZM60.1518 50.2123C57.1118 48.4194 58.3474 45.9253 60.1518 47.8803C61.9562 49.8354 60.6608 50.5135 60.1518 50.2123ZM59.186 60.4669C57.8066 58.7594 62.0097 58.5497 62.6383 59.5266C63.2669 60.5035 61.4994 63.3245 59.1847 60.4669H59.186ZM93.1096 76.5526C96.5097 79.17 91.2696 78.0479 89.7082 77.6747C88.0285 77.271 89.712 73.9341 93.1096 76.5526ZM90.6918 84.8059C89.3086 83.5484 91.7747 80.9604 93.9494 84.4022C96.1241 87.844 92.5281 86.489 90.6918 84.8059ZM84.4108 77.393C84.1436 79.9469 81.4128 81.9897 80.48 76.7539C79.943 73.7633 84.6729 74.8378 84.407 77.393H84.4108ZM77.0519 70.0898C78.7736 70.1386 80.5666 69.9435 80.9496 70.9692C81.3326 71.9949 78.313 73.0559 77.0519 72.4327C75.7909 71.8095 75.7489 70.0532 77.0481 70.0898H77.0519ZM67.9535 72.3278C67.19 70.524 68.9092 69.4336 70.1702 70.8984C71.4313 72.3632 73.494 73.1328 72.9214 73.6828C72.3488 74.2329 68.5262 73.6792 67.9535 72.3278ZM79.9023 86.0121C79.4773 83.5106 81.4077 82.7264 84.8358 85.9316C88.2639 89.1368 80.4877 89.4539 79.9023 86.0084V86.0121ZM84.4172 95.5484C84.2136 92.42 90.1867 90.8199 88.8493 94.7471C87.5119 98.6743 84.5838 98.1096 84.4172 95.5447V95.5484ZM91.0227 105.966C88.1888 101.768 94.204 99.4756 95.3708 103.081C96.5377 106.686 92.8615 108.687 91.0227 105.963V105.966ZM100.136 95.8667C96.3736 97.229 94.1161 95.3057 95.7882 92.2603C96.9271 90.1881 103.899 94.5032 100.136 95.8667ZM101.474 111.252C99.7635 107.282 104.4 104.361 104.735 108.368C105.07 112.374 103.063 114.938 101.474 111.251V111.252ZM102.56 88.0135C100.218 84.8315 103.314 81.3616 105.571 87.6927C107.829 94.0238 103.564 89.3746 102.56 88.0123V88.0135ZM109.334 100.034C108.163 105.803 106.153 102.358 105.989 101.236C105.515 98.062 110.503 94.2629 109.334 100.033V100.034Z" fill="#FFC52E"/>
<path d="M37.1091 36.9863C37.1091 36.9863 31.8334 35.2568 28.7794 39.5158C26.835 42.1758 25.0293 45.2359 25.0293 45.2359L30.6448 40.0036C30.6448 40.0036 33.9164 40.7147 35.166 39.5158C36.2757 38.7157 37.1091 36.9863 37.1091 36.9863Z" fill="#262626"/>
<g filter="url(#filter0_i_1_504)">
<path d="M72.3296 133.165C65.4924 122.993 54.4649 109.313 61.4611 86.1938C57.295 85.9267 54.8034 99.7695 54.8034 99.7695L50.0824 88.8587C50.0824 88.8587 42.0301 69.4312 43.141 62.5147C44.2518 55.5982 46.3566 63.8197 46.3566 63.8197C46.3566 63.8197 47.5324 61.0585 45.3627 56.38C46.7383 57.0178 47.8034 58.7778 48.0235 60.2206C48.9041 56.8422 47.4725 54.6249 47.5374 50.2599C44.6845 55.7287 39.1593 52.6991 35.9272 52.9125C32.0346 57.7691 26.3834 59.4583 24.0293 58.5436C23.2861 58.2545 23.3205 57.5557 23.2492 56.9739C23.1843 56.4446 23.0304 56.0128 22.1205 56.0799C20.5846 56.1934 20.4663 54.8957 19.2472 54.1529C18.901 53.9466 18.5172 53.8051 18.116 53.7358C18.116 53.7358 21.3367 50.2318 21.2336 49.0329C21.1305 47.834 18.1096 48.4353 18.1096 48.4353C18.1096 48.4353 22.7949 41.9481 25.2941 38.8539C24.2532 32.6679 41.9512 29.5188 47.1608 28.8248C46.6403 30.0225 46.5322 33.6656 46.5322 33.6656C46.5322 33.6656 52.8832 26.7795 55.7998 30.7714C58.7164 34.7632 54.862 43.6458 54.862 43.6458C54.862 43.6458 58.4021 41.7493 59.443 38.1575C66.9393 43.9458 74.2281 59.1156 75.6864 63.7063C67.377 64.3844 62.7744 67.8981 62.7744 67.8981C62.7744 67.8981 64.9987 67.9811 76.9347 68.6958C82.5452 69.0324 96.1699 73.6963 108.167 87.4257C110.563 90.1764 112.744 93.0936 114.69 96.1533C96.7807 61.822 83.9462 66.8334 80.0587 57.9179C76.1712 49.0024 65.2087 35.7609 60.6277 33.0997C61.0387 23.5195 52.4188 23.4365 47.8378 25.4318C47.4204 25.4318 38.5485 25.3818 29.3865 28.4431C20.2245 31.5044 20.9167 39.4869 20.9167 39.4869L13.7017 50.0001C13.7017 50.0001 15.5061 53.626 16.7557 54.1249C16.7557 56.0202 17.9009 57.6179 18.5257 57.6179C18.7344 58.9144 19.671 63.4062 26.335 62.2086C32.9991 61.0109 36.5405 55.5213 36.8523 62.6074C37.164 69.6934 44.8003 92.3139 49.7987 103.221C54.7971 114.128 47.5769 116.527 66.7357 142.875C67.0805 143.363 67.4114 143.899 67.7295 144.46C70.4195 148.106 74.1556 155.302 75.1672 167.921C75.6852 165.442 76.1203 163.165 76.4626 161.03C78.3205 149.494 77.4667 142.477 72.3296 133.165Z" fill="#262626"/>
</g>
<path d="M52.7079 41.1098C52.7079 41.1098 55.1422 33.2578 53.5083 32.4578C51.8744 31.6577 49.3091 36.4496 49.3091 36.4496C52.6023 35.6459 52.7079 41.1098 52.7079 41.1098Z" fill="#262626"/>
<path d="M50.4029 45.2465C50.4767 44.8038 50.4385 44.0903 50.2235 43.0305C49.3989 38.9691 45.9746 40.1302 46.2214 41.4888C46.378 42.3536 47.7904 42.1657 48.5361 44.1208C48.6884 44.5338 48.9027 44.9233 49.1724 45.277C49.6928 45.9295 50.2604 46.1003 50.4029 45.2465Z" fill="#262626"/>
<path d="M53.4745 47.1964C53.8002 47.5952 55.8757 48.9161 56.274 48.4477C56.4012 48.2977 56.3592 47.9599 56.0195 47.3501C55.1745 45.7999 54.0865 45.7121 53.5686 46.1134C53.4852 46.1765 53.4162 46.2555 53.366 46.3452C53.3157 46.435 53.2852 46.5337 53.2764 46.6353C53.2675 46.7368 53.2806 46.839 53.3146 46.9355C53.3487 47.0321 53.4031 47.1208 53.4745 47.1964Z" fill="#262626"/>
<path d="M59.0882 44.4199C59.4802 44.7212 63.4822 47.6166 61.7159 43.7052C59.9497 39.7939 57.9213 43.5247 59.0882 44.4199Z" fill="#262626"/>
<path d="M60.1417 47.879C58.3373 45.9276 57.1017 48.4181 60.1417 50.2109C60.6507 50.5122 61.9448 49.8353 60.1417 47.879Z" fill="#262626"/>
<path d="M64.0699 49.9946C64.5789 50.4081 65.5969 50.5215 66.307 49.9568C67.017 49.3921 65.7573 48.453 64.6591 48.453C63.5609 48.453 62.4628 48.6908 64.0699 49.9946Z" fill="#262626"/>
<path d="M58.4668 53.2769C58.6157 53.3333 58.7737 53.3643 58.9338 53.3684C61.9547 53.4062 60.7 52.2024 58.4629 51.6756C58.3002 51.6359 58.1341 51.6102 57.9667 51.5987C56.6624 51.5243 57.4475 52.9049 58.4668 53.2769Z" fill="#262626"/>
<path d="M63.1167 54.2734C63.9413 56.3041 67.9039 60.102 67.0017 56.0784C66.0995 52.0549 62.4512 52.6281 63.1167 54.2734Z" fill="#262626"/>
<path d="M71.3725 61.1472C72.3141 61.8241 73.1374 60.546 72.1563 58.2897C71.1752 56.0333 69.9575 56.4883 69.764 58.064C69.6851 58.7031 70.4308 60.4704 71.3725 61.1472Z" fill="#262626"/>
<path d="M63.8254 63.658C63.6295 64.3727 63.1192 63.9971 63.081 65.3497C63.0428 66.7022 68.2588 63.8458 68.1418 62.6433C68.0247 61.4407 64.5202 61.1285 63.8254 63.658Z" fill="#262626"/>
<path d="M59.1836 60.461C61.4983 63.3186 63.2633 60.4989 62.6359 59.5207C62.0086 58.5426 57.8042 58.7584 59.1836 60.461Z" fill="#262626"/>
<path d="M62.8319 72.1794C63.2137 71.5013 63.0571 70.5939 61.6625 70.039C59.2549 69.0889 58.7752 68.8096 59.2205 69.9828C59.3923 70.4353 59.7028 71.1025 60.0935 72.0318C60.7552 73.6064 62.3051 73.121 62.8319 72.1794Z" fill="#262626"/>
<path d="M77.038 72.439C78.2991 73.061 81.3175 71.9987 80.9357 70.9754C80.554 69.9521 78.7597 70.1448 77.038 70.0961C75.7388 70.0583 75.777 71.8157 77.038 72.439Z" fill="#262626"/>
<path d="M72.9322 73.6907C73.5048 73.1406 71.4409 72.3723 70.1811 70.9063C68.9213 69.4403 67.2009 70.5318 67.9644 72.3357C68.537 73.6907 72.3583 74.2395 72.9322 73.6907Z" fill="#262626"/>
<path d="M71.5375 80.1332C72.1899 80.6389 72.8933 81.081 73.6372 81.4528C75.775 82.4688 76.2725 81.3845 75.0445 79.7039C73.9731 78.2403 71.9218 78.3891 71.2869 79.038C71.0031 79.3343 71.0082 79.7344 71.5375 80.1332Z" fill="#262626"/>
<path d="M80.4719 76.7607C81.4046 81.9966 84.1354 79.9537 84.4026 77.3998C84.6699 74.8459 79.9387 73.7702 80.4719 76.7607Z" fill="#262626"/>
<path d="M84.8254 85.9356C81.3973 82.7305 79.4669 83.5147 79.8919 86.0161C80.4747 89.4616 88.251 89.142 84.8254 85.9356Z" fill="#262626"/>
<path d="M43.6227 28.9613C43.6227 28.9613 33.9657 32.4507 31.5874 34.4496C40.3537 31.3884 47.486 30.8895 47.486 30.8895L47.9314 28.682L43.6227 28.9613Z" fill="#262626"/>
</g>
<defs>
<filter id="filter0_i_1_504" x="13.7017" y="24.3964" width="100.988" height="168.525" filterUnits="userSpaceOnUse" color-interpolation-filters="sRGB">
<feFlood flood-opacity="0" result="BackgroundImageFix"/>
<feBlend mode="normal" in="SourceGraphic" in2="BackgroundImageFix" result="shape"/>
<feColorMatrix in="SourceAlpha" type="matrix" values="0 0 0 0 0 0 0 0 0 0 0 0 0 0 0 0 0 0 127 0" result="hardAlpha"/>
<feOffset dy="25"/>
<feGaussianBlur stdDeviation="25"/>
<feComposite in2="hardAlpha" operator="arithmetic" k2="-1" k3="1"/>
<feColorMatrix type="matrix" values="0 0 0 0 0 0 0 0 0 0 0 0 0 0 0 0 0 0 0.25 0"/>
<feBlend mode="normal" in2="shape" result="effect1_innerShadow_1_504"/>
</filter>
</defs>
</svg>
