<svg width="92" height="84" viewBox="0 0 92 84" fill="none" xmlns="http://www.w3.org/2000/svg">
                        <circle cx="33.1471" cy="50.7352" r="33.1471" fill="#F29200"/>
                        <path d="M89.2942 6.08824H75.0883V0.676471C75.0883 0.304412 74.7839 0 74.4118 0H69.6766C69.3045 0 69.0001 0.304412 69.0001 0.676471V6.08824H47.353V0.676471C47.353 0.304412 47.0486 0 46.6766 0H41.9413C41.5692 0 41.2648 0.304412 41.2648 0.676471V6.08824H27.0589C25.5622 6.08824 24.353 7.29743 24.353 8.79412V64.9412C24.353 66.4379 25.5622 67.6471 27.0589 67.6471H89.2942C90.7909 67.6471 92.0001 66.4379 92.0001 64.9412V8.79412C92.0001 7.29743 90.7909 6.08824 89.2942 6.08824ZM85.9119 61.5588H30.4413V29.4265H85.9119V61.5588ZM30.4413 23.6765V12.1765H41.2648V16.2353C41.2648 16.6074 41.5692 16.9118 41.9413 16.9118H46.6766C47.0486 16.9118 47.353 16.6074 47.353 16.2353V12.1765H69.0001V16.2353C69.0001 16.6074 69.3045 16.9118 69.6766 16.9118H74.4118C74.7839 16.9118 75.0883 16.6074 75.0883 16.2353V12.1765H85.9119V23.6765H30.4413Z" fill="white"/>
                    </svg>