<svg width="92" height="99" viewBox="0 0 92 99" fill="none" xmlns="http://www.w3.org/2000/svg">
                        <circle cx="34.0176" cy="64.3362" r="34.0176" fill="#F29200"/>
                        <path fill-rule="evenodd" clip-rule="evenodd" d="M53.8211 6.94163C36.5692 6.94163 22.5837 20.9271 22.5837 38.179C22.5837 55.4309 36.5692 69.4163 53.8211 69.4163C71.073 69.4163 85.0584 55.4309 85.0584 38.179C85.0584 20.9271 71.073 6.94163 53.8211 6.94163ZM15.6421 38.179C15.6421 17.0933 32.7354 0 53.8211 0C74.9067 0 92.0001 17.0933 92.0001 38.179C92.0001 59.2647 74.9067 76.358 53.8211 76.358C32.7354 76.358 15.6421 59.2647 15.6421 38.179Z" fill="white"/>
                        <path fill-rule="evenodd" clip-rule="evenodd" d="M39.9361 24.1301C41.853 24.1301 43.407 25.6841 43.407 27.6009V27.948C43.407 29.8649 41.853 31.4188 39.9361 31.4188C38.0193 31.4188 36.4653 29.8649 36.4653 27.948V27.6009C36.4653 25.6841 38.0193 24.1301 39.9361 24.1301ZM67.7027 24.1301C69.6196 24.1301 71.1735 25.6841 71.1735 27.6009V27.948C71.1735 29.8649 69.6196 31.4188 67.7027 31.4188C65.7858 31.4188 64.2319 29.8649 64.2319 27.948V27.6009C64.2319 25.6841 65.7858 24.1301 67.7027 24.1301Z" fill="white"/>
                        <path fill-rule="evenodd" clip-rule="evenodd" d="M38.8395 41.8351C40.658 41.2289 42.6236 42.2117 43.2298 44.0302C44.6457 48.2778 48.0762 52.0694 53.8204 52.0694C59.5646 52.0694 62.9951 48.2778 64.4109 44.0302C65.0171 42.2117 66.9827 41.2289 68.8012 41.8351C70.6197 42.4412 71.6025 44.4068 70.9963 46.2253C68.9414 52.3902 63.4172 59.011 53.8204 59.011C44.2236 59.011 38.6993 52.3902 36.6444 46.2253C36.0382 44.4068 37.021 42.4412 38.8395 41.8351Z" fill="white"/>
                    </svg>