<svg width="19" height="18" viewBox="0 0 19 18" fill="none" xmlns="http://www.w3.org/2000/svg">
<path fill-rule="evenodd" clip-rule="evenodd" d="M14.168 0.000244141H5.16797C2.69319 0.000244141 0.667969 1.94046 0.667969 4.31328V12.9393C0.667969 15.3113 2.69319 17.2524 5.16797 17.2524H14.168C16.6427 17.2524 18.668 15.3113 18.668 12.9393V4.31328C18.668 1.94046 16.6427 0.000244141 14.168 0.000244141ZM9.66797 12.2204C7.59662 12.2204 5.91789 10.6107 5.91789 8.62631C5.91789 6.64102 7.59662 5.03205 9.66797 5.03205C11.7384 5.03205 13.418 6.64102 13.418 8.62631C13.418 10.6107 11.7384 12.2204 9.66797 12.2204ZM13.418 3.95379C13.418 4.5492 13.9211 5.03204 14.543 5.03204C15.1649 5.03204 15.668 4.5492 15.668 3.95379C15.668 3.35837 15.1649 2.87553 14.543 2.87553C13.9211 2.87553 13.418 3.35837 13.418 3.95379Z" fill="white"/>
</svg>
