<svg width="25" height="18" viewBox="0 0 25 18" fill="none" xmlns="http://www.w3.org/2000/svg">
<path d="M21.875 0H3.125C2.2962 0 1.50134 0.32981 0.915289 0.916881C0.329238 1.50395 0 2.30019 0 3.13043V14.8696C0 15.6998 0.329238 16.496 0.915289 17.0831C1.50134 17.6702 2.2962 18 3.125 18H21.875C22.7038 18 23.4987 17.6702 24.0847 17.0831C24.6708 16.496 25 15.6998 25 14.8696V3.13043C25 2.30019 24.6708 1.50395 24.0847 0.916881C23.4987 0.32981 22.7038 0 21.875 0ZM7.57812 11.5122L4.45312 14.6426C4.30073 14.7478 4.116 14.7954 3.93184 14.7769C3.74769 14.7584 3.57606 14.675 3.44756 14.5416C3.31905 14.4082 3.24201 14.2334 3.23015 14.0483C3.2183 13.8633 3.2724 13.6801 3.38281 13.5313L6.50781 10.4009C6.65419 10.2551 6.8522 10.1733 7.0586 10.1733C7.26499 10.1733 7.463 10.2551 7.60938 10.4009C7.6806 10.4757 7.73631 10.5639 7.77332 10.6603C7.81032 10.7568 7.82787 10.8597 7.82497 10.963C7.82206 11.0664 7.79876 11.1681 7.75639 11.2623C7.71402 11.3566 7.65343 11.4415 7.57812 11.5122ZM12.5 12.5217C12.3175 12.5221 12.1406 12.4584 12 12.3417L3.40625 5.29825C3.31987 5.23552 3.24723 5.15572 3.19282 5.06379C3.1384 4.97186 3.10336 4.86974 3.08986 4.76372C3.07635 4.6577 3.08467 4.55004 3.1143 4.44736C3.14392 4.34469 3.19421 4.24919 3.26209 4.16673C3.32997 4.08428 3.41399 4.01663 3.50897 3.96795C3.60395 3.91927 3.70788 3.8906 3.81435 3.88369C3.92082 3.87679 4.02757 3.8918 4.12803 3.9278C4.22848 3.96381 4.32051 4.02005 4.39844 4.09305L12.5 10.7296L20.5703 4.09305C20.6497 4.0276 20.7413 3.97851 20.8397 3.94858C20.9381 3.91866 21.0415 3.90848 21.1438 3.91866C21.2462 3.92884 21.3455 3.95916 21.4361 4.00788C21.5267 4.05661 21.6068 4.12279 21.6719 4.2026C21.8014 4.36284 21.8626 4.56781 21.8421 4.77296C21.8216 4.97812 21.7211 5.16688 21.5625 5.29825L12.9688 12.3417C12.8365 12.4518 12.6718 12.515 12.5 12.5217ZM21.6406 14.6426C21.4942 14.7884 21.2962 14.8702 21.0898 14.8702C20.8834 14.8702 20.6854 14.7884 20.5391 14.6426L17.4141 11.5122C17.3408 11.4394 17.2827 11.3529 17.2431 11.2575C17.2034 11.1621 17.183 11.0598 17.183 10.9565C17.183 10.8532 17.2034 10.7509 17.2431 10.6555C17.2827 10.5602 17.3408 10.4736 17.4141 10.4009C17.5604 10.2551 17.7584 10.1733 17.9648 10.1733C18.1712 10.1733 18.3692 10.2551 18.5156 10.4009L21.6406 13.5313C21.7138 13.6041 21.772 13.6906 21.8116 13.786C21.8513 13.8813 21.8717 13.9836 21.8717 14.087C21.8717 14.1903 21.8513 14.2926 21.8116 14.3879C21.772 14.4833 21.7138 14.5698 21.6406 14.6426Z" fill="black"/>
</svg>
