<svg width="92" height="92" viewBox="0 0 92 92" fill="none" xmlns="http://www.w3.org/2000/svg">
                        <ellipse cx="35" cy="56.5" rx="35" ry="35.5" fill="#F29200"/>
                        <path d="M72.9444 51.4662V66.6553H32.4402V5.89896H57.7554V0.835938H32.4402C31.0974 0.835938 29.8096 1.36936 28.8601 2.31886C27.9106 3.26836 27.3772 4.55616 27.3772 5.89896V66.6553C27.3772 67.9981 27.9106 69.2859 28.8601 70.2354C29.8096 71.1849 31.0974 71.7183 32.4402 71.7183H72.9444C74.2872 71.7183 75.575 71.1849 76.5245 70.2354C77.474 69.2859 78.0075 67.9981 78.0075 66.6553V51.4662H72.9444Z" fill="white"/>
                        <path d="M90.3732 10.349L82.014 1.99393C81.2563 1.25169 80.2378 0.835938 79.1769 0.835938C78.116 0.835938 77.0974 1.25169 76.3398 1.99393L40.8762 37.4398V51.4662H54.8843L90.3479 16.0204C91.0905 15.2631 91.5065 14.245 91.5065 13.1847C91.5065 12.1243 91.0905 11.1063 90.3479 10.349H90.3732ZM52.7818 46.4025H45.9424V39.5665L69.855 15.6406L76.7198 22.5019L52.7818 46.4025ZM80.2914 18.932L73.4267 12.0707L79.1769 6.32339L86.0416 13.1847L80.2914 18.932Z" fill="white"/>
                    </svg>