<svg width="24" height="24" viewBox="0 0 24 24" fill="none" xmlns="http://www.w3.org/2000/svg">
<path d="M19.4733 14.8795C19.3051 14.6849 19.0969 14.5289 18.863 14.4219C18.6291 14.3149 18.3749 14.2595 18.1177 14.2595C17.8604 14.2595 17.6063 14.3149 17.3723 14.4219C17.1384 14.5289 16.9303 14.6849 16.762 14.8795C16.1286 15.5052 15.4953 16.1386 14.8696 16.7797C14.8107 16.8597 14.7233 16.914 14.6255 16.9313C14.5277 16.9486 14.427 16.9275 14.3443 16.8724C13.9349 16.6484 13.4946 16.4707 13.1007 16.2236C11.2929 15.0519 9.69058 13.5905 8.35796 11.8979C7.66218 11.0776 7.08731 10.162 6.65086 9.17894C6.6034 9.09742 6.58741 9.00136 6.60591 8.90886C6.62441 8.81637 6.67612 8.73385 6.75128 8.67686C7.38468 8.05891 8.00262 7.43324 8.62829 6.79985C8.83249 6.63023 8.99682 6.41771 9.1096 6.17741C9.22239 5.9371 9.28086 5.67493 9.28086 5.40947C9.28086 5.14402 9.22239 4.88182 9.1096 4.64152C8.99682 4.40121 8.83249 4.18869 8.62829 4.01908L7.1375 2.52828C6.62769 2.01847 6.11788 1.50094 5.59263 0.983411C5.42301 0.791081 5.21441 0.637052 4.98068 0.531543C4.74695 0.426034 4.49344 0.37146 4.237 0.37146C3.98056 0.37146 3.72705 0.426034 3.49332 0.531543C3.25959 0.637052 3.05099 0.791081 2.88137 0.983411C2.24025 1.60908 1.63003 2.25792 0.973456 2.87586C0.395411 3.42104 0.0496291 4.16797 0.00792419 4.96145C-0.0471013 6.26277 0.184973 7.56027 0.687671 8.76184C1.65111 11.2597 3.0387 13.5723 4.78929 15.5979C7.09341 18.3647 9.96115 20.6084 13.2011 22.179C14.6409 22.933 16.2164 23.3925 17.8357 23.5308C18.3782 23.5918 18.9273 23.5227 19.4377 23.3293C19.9482 23.1358 20.4052 22.8236 20.771 22.4185C21.3117 21.8083 21.9219 21.2521 22.5012 20.6728C22.7016 20.5024 22.8625 20.2905 22.9728 20.0517C23.0832 19.813 23.1403 19.5531 23.1403 19.2901C23.1403 19.0271 23.0832 18.7673 22.9728 18.5285C22.8625 18.2898 22.7016 18.0779 22.5012 17.9075C21.5022 16.8982 20.4929 15.8888 19.4733 14.8795Z" fill="black"/>
<path d="M23.4823 10.4689C21.471 5.77085 17.7165 2.03567 13.008 0.0487838C12.8184 -0.0220025 12.6086 -0.0155461 12.4237 0.0667934C12.2388 0.149133 12.0936 0.300758 12.0193 0.489054C11.9789 0.583278 11.9576 0.684617 11.9567 0.787156C11.9558 0.889695 11.9753 0.991388 12.0142 1.0863C12.053 1.1812 12.1103 1.26742 12.1828 1.33994C12.2553 1.41246 12.3416 1.46982 12.4364 1.50867C16.7766 3.3423 20.2374 6.78646 22.0919 11.1178C22.1748 11.3014 22.3262 11.4455 22.5138 11.5191C22.7014 11.5927 22.9104 11.59 23.096 11.5117C23.1911 11.4701 23.2768 11.4097 23.3481 11.3343C23.4193 11.2588 23.4746 11.1697 23.5107 11.0724C23.5467 10.975 23.5628 10.8714 23.5579 10.7678C23.553 10.6641 23.5273 10.5624 23.4823 10.4689Z" fill="black"/>
<path d="M12.0348 5.703C14.6656 6.81113 16.7643 8.89603 17.8899 11.5194C17.9496 11.6489 18.044 11.7592 18.1626 11.8383C18.2813 11.9174 18.4194 11.9621 18.5619 11.9675C18.6662 11.9667 18.769 11.9429 18.8631 11.8979C19.0407 11.8109 19.1782 11.6591 19.2472 11.4737C19.3162 11.2883 19.3114 11.0835 19.2339 10.9015C17.9581 7.92304 15.5768 5.55555 12.5909 4.29719C12.4071 4.23192 12.2053 4.23865 12.0262 4.31602C11.8471 4.3934 11.7039 4.53567 11.6254 4.71429C11.5528 4.90006 11.5548 5.10673 11.6312 5.29102C11.7075 5.47531 11.8521 5.62294 12.0348 5.703Z" fill="black"/>
</svg>
