<svg width="25" height="25" viewBox="0 0 25 25" fill="none" xmlns="http://www.w3.org/2000/svg">
<g clip-path="url(#clip0_674_1420)">
<path d="M0.580774 25C0.440394 25 0.303828 24.9445 0.202548 24.8421C0.0690335 24.707 0.0175352 24.511 0.0676984 24.3277L1.69295 18.3928C0.681101 16.563 0.147616 14.4932 0.148379 12.392C0.15124 5.55897 5.71192 0 12.5444 0C15.8584 0.00133515 18.9724 1.29223 21.3129 3.63445C23.653 5.97687 24.9412 9.09061 24.9402 12.402C24.9372 19.2352 19.3765 24.7946 12.5444 24.7946C12.5444 24.7946 12.5393 24.7946 12.5391 24.7946C10.5434 24.7938 8.56492 24.3074 6.8033 23.3862L0.715624 24.9826C0.670992 24.9943 0.625597 25 0.580774 25Z" fill="white"/>
<path d="M0.580811 24.468L2.26386 18.322C1.22569 16.5232 0.679611 14.4827 0.680374 12.3922C0.683045 5.85252 6.00494 0.531982 12.5445 0.531982C15.7179 0.533318 18.6966 1.76851 20.9366 4.01041C23.1764 6.2523 24.4095 9.23233 24.4084 12.4018C24.4055 18.9413 19.0829 24.2626 12.5445 24.2626C12.5441 24.2626 12.5447 24.2626 12.5445 24.2626H12.5393C10.5538 24.2618 8.60294 23.7638 6.87011 22.8187L0.580811 24.468ZM7.16136 20.6716L7.52166 20.8851C9.03534 21.7834 10.7708 22.2585 12.5407 22.2595H12.5445C17.9793 22.2595 22.4028 17.8367 22.4051 12.401C22.4061 9.76677 21.3814 7.2897 19.5197 5.42642C17.6577 3.56313 15.1822 2.53641 12.5481 2.53527C7.10891 2.53527 2.68557 6.95744 2.68347 12.393C2.68271 14.2557 3.2038 16.0696 4.19105 17.6393L4.42565 18.0124L3.42925 21.6501L7.16136 20.6716Z" fill="black"/>
<path fill-rule="evenodd" clip-rule="evenodd" d="M9.57925 7.43392C9.35724 6.9403 9.1234 6.93038 8.91207 6.92179C8.73926 6.91436 8.54147 6.91474 8.34406 6.91474C8.14646 6.91474 7.82526 6.98912 7.55366 7.28572C7.28186 7.58231 6.51587 8.29948 6.51587 9.75804C6.51587 11.2168 7.57826 12.6261 7.72646 12.8241C7.87466 13.0219 9.77724 16.1107 12.7903 17.299C15.2944 18.2866 15.8039 18.0901 16.3475 18.0407C16.8911 17.9913 18.1013 17.3236 18.3483 16.6314C18.5955 15.9392 18.5955 15.346 18.5213 15.2219C18.4471 15.0984 18.2495 15.0243 17.9531 14.876C17.6567 14.7278 16.1993 14.0105 15.9275 13.9117C15.6557 13.8127 15.4581 13.7635 15.2605 14.0603C15.0627 14.3567 14.4951 15.0243 14.3221 15.2219C14.1491 15.42 13.9761 15.4448 13.6797 15.2964C13.3833 15.1478 12.4284 14.835 11.2959 13.8251C10.4147 13.0395 9.81958 12.069 9.64658 11.7722C9.47378 11.4758 9.64372 11.3293 9.77686 11.1674C10.0166 10.8757 10.4189 10.3514 10.5177 10.1538C10.6165 9.95583 10.5671 9.78283 10.4931 9.63444C10.4189 9.48624 9.84266 8.02024 9.57925 7.43392Z" fill="black"/>
</g>
<defs>
<clipPath id="clip0_674_1420">
<rect width="25" height="25" fill="white"/>
</clipPath>
</defs>
</svg>
