<svg width="51" height="46" viewBox="0 0 51 46" fill="none" xmlns="http://www.w3.org/2000/svg">
<circle cx="18.043" cy="27.6153" r="18.043" fill="#F29200"/>
<path d="M48.6067 3.31402H40.874V0.368224C40.874 0.165701 40.7083 0 40.5058 0H37.9282C37.7257 0 37.56 0.165701 37.56 0.368224V3.31402H25.7768V0.368224C25.7768 0.165701 25.6111 0 25.4086 0H22.831C22.6285 0 22.4628 0.165701 22.4628 0.368224V3.31402H14.7301C13.9154 3.31402 13.2572 3.97222 13.2572 4.78691V35.3495C13.2572 36.1642 13.9154 36.8224 14.7301 36.8224H48.6067C49.4214 36.8224 50.0796 36.1642 50.0796 35.3495V4.78691C50.0796 3.97222 49.4214 3.31402 48.6067 3.31402ZM46.7656 33.5084H16.5712V16.0178H46.7656V33.5084ZM16.5712 12.8878V6.62804H22.4628V8.83738C22.4628 9.0399 22.6285 9.2056 22.831 9.2056H25.4086C25.6111 9.2056 25.7768 9.0399 25.7768 8.83738V6.62804H37.56V8.83738C37.56 9.0399 37.7257 9.2056 37.9282 9.2056H40.5058C40.7083 9.2056 40.874 9.0399 40.874 8.83738V6.62804H46.7656V12.8878H16.5712Z" fill="black"/>
</svg>
