<svg width="49" height="52" viewBox="0 0 49 52" fill="none" xmlns="http://www.w3.org/2000/svg">
<circle cx="17.985" cy="34.0131" r="17.985" fill="#F29200"/>
<path fill-rule="evenodd" clip-rule="evenodd" d="M28.4557 3.67002C19.3347 3.67002 11.9407 11.0641 11.9407 20.1851C11.9407 29.3062 19.3347 36.7002 28.4557 36.7002C37.5768 36.7002 44.9708 29.3062 44.9708 20.1851C44.9708 11.0641 37.5768 3.67002 28.4557 3.67002ZM8.27063 20.1851C8.27063 9.03719 17.3078 0 28.4557 0C39.6037 0 48.6409 9.03719 48.6409 20.1851C48.6409 31.3331 39.6037 40.3702 28.4557 40.3702C17.3078 40.3702 8.27063 31.3331 8.27063 20.1851Z" fill="black"/>
<path fill-rule="evenodd" clip-rule="evenodd" d="M21.1178 12.7579C22.1313 12.7579 22.9529 13.5795 22.9529 14.5929V14.7764C22.9529 15.7899 22.1313 16.6115 21.1178 16.6115C20.1044 16.6115 19.2828 15.7899 19.2828 14.7764V14.5929C19.2828 13.5795 20.1044 12.7579 21.1178 12.7579ZM35.7979 12.7579C36.8114 12.7579 37.6329 13.5795 37.6329 14.5929V14.7764C37.6329 15.7899 36.8114 16.6115 35.7979 16.6115C34.7845 16.6115 33.9629 15.7899 33.9629 14.7764V14.5929C33.9629 13.5795 34.7845 12.7579 35.7979 12.7579Z" fill="black"/>
<path fill-rule="evenodd" clip-rule="evenodd" d="M20.5381 22.119C21.4995 21.7985 22.5387 22.3181 22.8592 23.2795C23.6077 25.5252 25.4214 27.5298 28.4584 27.5298C31.4953 27.5298 33.309 25.5252 34.0576 23.2795C34.3781 22.3181 35.4173 21.7985 36.3787 22.119C37.3402 22.4394 37.8598 23.4786 37.5393 24.4401C36.4528 27.6994 33.5322 31.1998 28.4584 31.1998C23.3846 31.1998 20.464 27.6994 19.3775 24.4401C19.057 23.4786 19.5766 22.4394 20.5381 22.119Z" fill="black"/>
</svg>
