<svg width="31" height="29" viewBox="0 0 31 29" fill="none" xmlns="http://www.w3.org/2000/svg">
<path fill-rule="evenodd" clip-rule="evenodd" d="M22.6238 0.598938H7.8077C3.73365 0.598938 0.399658 3.79299 0.399658 7.69919V21.8997C0.399658 25.8045 3.73365 28.9999 7.8077 28.9999H22.6238C26.6978 28.9999 30.0318 25.8045 30.0318 21.8997V7.69919C30.0318 3.79299 26.6978 0.598938 22.6238 0.598938ZM15.2156 20.7161C11.8057 20.7161 9.04214 18.0663 9.04214 14.7995C9.04214 11.5312 11.8057 8.88246 15.2156 8.88246C18.6241 8.88246 21.3891 11.5312 21.3891 14.7995C21.3891 18.0663 18.6241 20.7161 15.2156 20.7161ZM21.3893 7.10744C21.3893 8.08763 22.2175 8.8825 23.2413 8.8825C24.2651 8.8825 25.0933 8.08763 25.0933 7.10744C25.0933 6.12725 24.2651 5.33237 23.2413 5.33237C22.2175 5.33237 21.3893 6.12725 21.3893 7.10744Z" fill="black"/>
</svg>
