<svg width="50" height="49" viewBox="0 0 50 49" fill="none" xmlns="http://www.w3.org/2000/svg">
<circle cx="19.5182" cy="29.3366" r="18.6667" fill="#F29200"/>
<path d="M39.4229 26.7717V34.8033H18.0055V2.67717H31.3914V0H18.0055C17.2955 0 16.6146 0.282059 16.1125 0.784126C15.6104 1.28619 15.3284 1.96714 15.3284 2.67717V34.8033C15.3284 35.5133 15.6104 36.1942 16.1125 36.6963C16.6146 37.1984 17.2955 37.4804 18.0055 37.4804H39.4229C40.133 37.4804 40.8139 37.1984 41.316 36.6963C41.8181 36.1942 42.1001 35.5133 42.1001 34.8033V26.7717H39.4229Z" fill="black"/>
<path d="M48.6374 5.03023L44.2172 0.612312C43.8166 0.219836 43.278 0 42.7171 0C42.1561 0 41.6175 0.219836 41.2169 0.612312L22.4648 19.355V26.7717H29.8719L48.624 8.02906C49.0166 7.62865 49.2366 7.09033 49.2366 6.52965C49.2366 5.96897 49.0166 5.43064 48.624 5.03023H48.6374ZM28.7602 24.0942H25.1437V20.4796L37.788 7.82824L41.4178 11.4563L28.7602 24.0942ZM43.3064 9.56864L39.6766 5.94059L42.7171 2.9016L46.3469 6.52965L43.3064 9.56864Z" fill="black"/>
</svg>
