<svg width="34" height="26" viewBox="0 0 34 26" fill="none" xmlns="http://www.w3.org/2000/svg">
<path d="M29.8619 6.48341C29.8833 6.75953 29.8833 7.03407 29.8833 7.30862C29.8833 15.7106 23.2111 25.3922 11.0175 25.3922C7.26075 25.3922 3.77074 24.3492 0.833862 22.5379C1.36724 22.5962 1.88087 22.6168 2.43565 22.6168C5.5355 22.6168 8.38842 21.6133 10.6684 19.9013C7.75297 19.8429 5.30997 18.0126 4.4671 15.4944C4.87701 15.5528 5.28856 15.5922 5.71988 15.5922C6.31417 15.5922 6.91175 15.5134 7.46653 15.3761C4.42594 14.786 2.1492 12.2283 2.1492 9.1389V9.06001C3.03323 9.53179 4.05883 9.82684 5.14534 9.86629C3.35918 8.72709 2.18871 6.77847 2.18871 4.57423C2.18871 3.39401 2.51631 2.31162 3.09085 1.36807C6.35532 5.22272 11.2627 7.74252 16.7644 8.01864C16.6624 7.54529 16.5998 7.05459 16.5998 6.5623C16.5998 3.05951 19.5565 0.206787 23.2308 0.206787C25.1405 0.206787 26.8641 0.973614 28.0757 2.21379C29.5738 1.93767 31.0093 1.40594 32.2835 0.678559C31.7912 2.15383 30.7426 3.39401 29.368 4.18135C30.7031 4.0425 31.997 3.68907 33.1856 3.19678C32.2835 4.45589 31.1558 5.57773 29.8619 6.48341Z" fill="black"/>
</svg>
