<svg width="21" height="17" viewBox="0 0 21 17" fill="none" xmlns="http://www.w3.org/2000/svg">
<path d="M18.301 4.78953C18.314 4.95726 18.314 5.12403 18.314 5.2908C18.314 10.3946 14.261 16.2756 6.85397 16.2756C4.57197 16.2756 2.45197 15.6421 0.667969 14.5418C0.991969 14.5772 1.30397 14.5897 1.64097 14.5897C3.52397 14.5897 5.25697 13.9801 6.64197 12.9402C4.87097 12.9047 3.38697 11.7929 2.87497 10.2632C3.12397 10.2987 3.37397 10.3227 3.63597 10.3227C3.99697 10.3227 4.35997 10.2747 4.69697 10.1914C2.84997 9.8329 1.46697 8.27925 1.46697 6.4026V6.35468C2.00397 6.64126 2.62697 6.82049 3.28697 6.84445C2.20197 6.15245 1.49097 4.96876 1.49097 3.6298C1.49097 2.91288 1.68997 2.25538 2.03897 1.68223C4.02197 4.02373 7.00297 5.55437 10.345 5.7221C10.283 5.43457 10.245 5.13649 10.245 4.83745C10.245 2.70969 12.041 0.976807 14.273 0.976807C15.433 0.976807 16.48 1.44261 17.216 2.19596C18.126 2.02823 18.998 1.70523 19.772 1.26338C19.473 2.15954 18.836 2.91288 18.001 3.39115C18.812 3.3068 19.598 3.09211 20.32 2.79307C19.772 3.55792 19.087 4.23938 18.301 4.78953Z" fill="white"/>
</svg>
