<svg width="21" height="25" viewBox="0 0 21 25" fill="none" xmlns="http://www.w3.org/2000/svg">
<path d="M10.0417 11.5865C13.2412 11.5865 15.8349 8.9928 15.8349 5.79326C15.8349 2.59373 13.2412 0 10.0417 0C6.84215 0 4.24841 2.59373 4.24841 5.79326C4.24841 8.9928 6.84215 11.5865 10.0417 11.5865Z" fill="black"/>
<path d="M10.0417 12.2894C7.37844 12.2894 4.82431 13.3474 2.94114 15.2306C1.05796 17.1137 0 19.6679 0 22.3311V24.015C0 24.2199 0.0813925 24.4163 0.226252 24.5612C0.371112 24.706 0.567573 24.7874 0.772435 24.7874H19.3109C19.5157 24.7874 19.7122 24.706 19.8571 24.5612C20.0019 24.4163 20.0833 24.2199 20.0833 24.015V22.3311C20.0833 19.6679 19.0254 17.1137 17.1422 15.2306C15.259 13.3474 12.7049 12.2894 10.0417 12.2894V12.2894Z" fill="black"/>
</svg>
